<?xml version="1.0" encoding="utf-8"?>
<!DOCTYPE score-partwise PUBLIC "-//Recordare//DTD MusicXML 2.0 Partwise//EN"
                                "http://www.musicxml.org/dtds/partwise.dtd">
<score-partwise version="2.0">
<identification>
<encoding>
<software>Sinsy</software>
</encoding>
</identification>
<part-list>
<score-part id="P1">
<part-name>MusicXML Part</part-name>
</score-part>
</part-list>
<part id="P1">
<measure number="1">
<attributes>
<divisions>960</divisions>
</attributes>
<attributes>
<key>
<fifths>0</fifths>
<mode>major</mode>
</key>
</attributes>
<sound tempo="128.0000000000000" />
<direction>
<direction-type>
<metronome>
<beat-unit>quarter</beat-unit>
<per-minute>128.0000000000000</per-minute>
</metronome>
</direction-type>
<sound tempo="128.0000000000000" />
</direction>
<attributes>
<time>
<beats>4</beats>
<beat-type>4</beat-type>
</time>
</attributes>
<note>
<rest />
<duration>3840</duration>
</note>
</measure>
<measure number="2">
<note>
<rest />
<duration>3840</duration>
</note>
</measure>
<measure number="3">
<note>
<rest />
<duration>3840</duration>
</note>
</measure>
<measure number="4">
<note>
<rest />
<duration>3840</duration>
</note>
</measure>
<measure number="5">
<note>
<pitch>
<step>A</step>
<octave>3</octave>
</pitch>
<duration>1920</duration>
<lyric>
<syllabic>single</syllabic>
<text>か</text>
</lyric>
</note>
<note>
<pitch>
<step>A</step>
<octave>3</octave>
</pitch>
<duration>960</duration>
<lyric>
<syllabic>single</syllabic>
<text>ご</text>
</lyric>
</note>
<note>
<pitch>
<step>B</step>
<octave>3</octave>
</pitch>
<duration>960</duration>
<lyric>
<syllabic>single</syllabic>
<text>め</text>
</lyric>
</note>
</measure>
<measure number="6">
<note>
<pitch>
<step>A</step>
<octave>3</octave>
</pitch>
<duration>960</duration>
<lyric>
<syllabic>single</syllabic>
<text>か</text>
</lyric>
</note>
<note>
<pitch>
<step>A</step>
<octave>3</octave>
</pitch>
<duration>960</duration>
<lyric>
<syllabic>single</syllabic>
<text>ご</text>
</lyric>
</note>
<note>
<pitch>
<step>A</step>
<octave>3</octave>
</pitch>
<duration>960</duration>
<lyric>
<syllabic>single</syllabic>
<text>め</text>
</lyric>
</note>
<note>
<rest />
<duration>960</duration>
</note>
</measure>
<measure number="7">
<note>
<pitch>
<step>A</step>
<octave>3</octave>
</pitch>
<duration>960</duration>
<lyric>
<syllabic>single</syllabic>
<text>か</text>
</lyric>
</note>
<note>
<pitch>
<step>A</step>
<octave>3</octave>
</pitch>
<duration>480</duration>
<lyric>
<syllabic>single</syllabic>
<text>ご</text>
</lyric>
</note>
<note>
<pitch>
<step>A</step>
<octave>3</octave>
</pitch>
<duration>480</duration>
<lyric>
<syllabic>single</syllabic>
<text>の</text>
</lyric>
</note>
<note>
<pitch>
<step>A</step>
<octave>3</octave>
</pitch>
<duration>960</duration>
<lyric>
<syllabic>single</syllabic>
<text>な</text>
</lyric>
</note>
<note>
<pitch>
<step>G</step>
<octave>3</octave>
</pitch>
<duration>480</duration>
<lyric>
<syllabic>single</syllabic>
<text>か</text>
</lyric>
</note>
<note>
<pitch>
<step>G</step>
<octave>3</octave>
</pitch>
<duration>480</duration>
<lyric>
<syllabic>single</syllabic>
<text>の</text>
</lyric>
</note>
</measure>
<measure number="8">
<note>
<pitch>
<step>A</step>
<octave>3</octave>
</pitch>
<duration>960</duration>
<lyric>
<syllabic>single</syllabic>
<text>と</text>
</lyric>
</note>
<note>
<pitch>
<step>A</step>
<octave>3</octave>
</pitch>
<duration>480</duration>
<lyric>
<syllabic>single</syllabic>
<text>り</text>
</lyric>
</note>
<note>
<pitch>
<step>G</step>
<octave>3</octave>
</pitch>
<duration>480</duration>
<lyric>
<syllabic>single</syllabic>
<text>い</text>
</lyric>
</note>
<note>
<pitch>
<step>E</step>
<octave>3</octave>
</pitch>
<duration>960</duration>
<lyric>
<syllabic>single</syllabic>
<text>わ</text>
</lyric>
</note>
<note>
<rest />
<duration>960</duration>
</note>
</measure>
<measure number="9">
<note>
<pitch>
<step>A</step>
<octave>3</octave>
</pitch>
<duration>960</duration>
<lyric>
<syllabic>single</syllabic>
<text>い</text>
</lyric>
</note>
<note>
<pitch>
<step>G</step>
<octave>3</octave>
</pitch>
<duration>960</duration>
<lyric>
<syllabic>single</syllabic>
<text>つ</text>
</lyric>
</note>
<note>
<pitch>
<step>A</step>
<octave>3</octave>
</pitch>
<duration>960</duration>
<lyric>
<syllabic>single</syllabic>
<text>い</text>
</lyric>
</note>
<note>
<pitch>
<step>G</step>
<octave>3</octave>
</pitch>
<duration>960</duration>
<lyric>
<syllabic>single</syllabic>
<text>つ</text>
</lyric>
</note>
</measure>
<measure number="10">
<note>
<pitch>
<step>A</step>
<octave>3</octave>
</pitch>
<duration>960</duration>
<lyric>
<syllabic>single</syllabic>
<text>で</text>
</lyric>
</note>
<note>
<pitch>
<step>A</step>
<octave>3</octave>
</pitch>
<duration>480</duration>
<lyric>
<syllabic>single</syllabic>
<text>や</text>
</lyric>
</note>
<note>
<pitch>
<step>G</step>
<octave>3</octave>
</pitch>
<duration>480</duration>
<lyric>
<syllabic>single</syllabic>
<text>あ</text>
</lyric>
</note>
<note>
<pitch>
<step>E</step>
<octave>3</octave>
</pitch>
<duration>960</duration>
<lyric>
<syllabic>single</syllabic>
<text>る</text>
</lyric>
</note>
<note>
<rest />
<duration>960</duration>
</note>
</measure>
<measure number="11">
<note>
<pitch>
<step>A</step>
<octave>3</octave>
</pitch>
<duration>960</duration>
<lyric>
<syllabic>single</syllabic>
<text>よ</text>
</lyric>
</note>
<note>
<pitch>
<step>A</step>
<octave>3</octave>
</pitch>
<duration>960</duration>
<lyric>
<syllabic>single</syllabic>
<text>あ</text>
</lyric>
</note>
<note>
<pitch>
<step>A</step>
<octave>3</octave>
</pitch>
<duration>960</duration>
<lyric>
<syllabic>single</syllabic>
<text>け</text>
</lyric>
</note>
<note>
<pitch>
<step>B</step>
<octave>3</octave>
</pitch>
<duration>960</duration>
<lyric>
<syllabic>single</syllabic>
<text>の</text>
</lyric>
</note>
</measure>
<measure number="12">
<note>
<pitch>
<step>A</step>
<octave>3</octave>
</pitch>
<duration>960</duration>
<lyric>
<syllabic>single</syllabic>
<text>ば</text>
</lyric>
</note>
<note>
<pitch>
<step>A</step>
<octave>3</octave>
</pitch>
<duration>960</duration>
<lyric>
<syllabic>single</syllabic>
<text>ん</text>
</lyric>
</note>
<note>
<pitch>
<step>A</step>
<octave>3</octave>
</pitch>
<duration>960</duration>
<lyric>
<syllabic>single</syllabic>
<text>に</text>
</lyric>
</note>
<note>
<rest />
<duration>960</duration>
</note>
</measure>
<measure number="13">
<note>
<pitch>
<step>A</step>
<octave>3</octave>
</pitch>
<duration>960</duration>
<lyric>
<syllabic>single</syllabic>
<text>つ</text>
</lyric>
</note>
<note>
<pitch>
<step>G</step>
<octave>3</octave>
</pitch>
<duration>480</duration>
<lyric>
<syllabic>single</syllabic>
<text>る</text>
</lyric>
</note>
<note>
<pitch>
<step>G</step>
<octave>3</octave>
</pitch>
<duration>480</duration>
<lyric>
<syllabic>single</syllabic>
<text>と</text>
</lyric>
</note>
<note>
<pitch>
<step>A</step>
<octave>3</octave>
</pitch>
<duration>960</duration>
<lyric>
<syllabic>single</syllabic>
<text>か</text>
</lyric>
</note>
<note>
<pitch>
<step>G</step>
<octave>3</octave>
</pitch>
<duration>480</duration>
<lyric>
<syllabic>single</syllabic>
<text>め</text>
</lyric>
</note>
<note>
<pitch>
<step>G</step>
<octave>3</octave>
</pitch>
<duration>480</duration>
<lyric>
<syllabic>single</syllabic>
<text>が</text>
</lyric>
</note>
</measure>
<measure number="14">
<note>
<pitch>
<step>A</step>
<octave>3</octave>
</pitch>
<duration>960</duration>
<lyric>
<syllabic>single</syllabic>
<text>す</text>
</lyric>
</note>
<note>
<pitch>
<step>A</step>
<octave>3</octave>
</pitch>
<duration>480</duration>
<lyric>
<syllabic>single</syllabic>
<text>べ</text>
</lyric>
</note>
<note>
<pitch>
<step>G</step>
<octave>3</octave>
</pitch>
<duration>480</duration>
<lyric>
<syllabic>single</syllabic>
<text>え</text>
</lyric>
</note>
<note>
<pitch>
<step>E</step>
<octave>3</octave>
</pitch>
<duration>960</duration>
<lyric>
<syllabic>single</syllabic>
<text>た</text>
</lyric>
</note>
<note>
<rest />
<duration>960</duration>
</note>
</measure>
<measure number="15">
<note>
<pitch>
<step>A</step>
<octave>3</octave>
</pitch>
<duration>480</duration>
<lyric>
<syllabic>single</syllabic>
<text>う</text>
</lyric>
</note>
<note>
<pitch>
<step>A</step>
<octave>3</octave>
</pitch>
<duration>480</duration>
<lyric>
<syllabic>single</syllabic>
<text>し</text>
</lyric>
</note>
<note>
<pitch>
<step>A</step>
<octave>3</octave>
</pitch>
<duration>480</duration>
<lyric>
<syllabic>single</syllabic>
<text>ろ</text>
</lyric>
</note>
<note>
<pitch>
<step>A</step>
<octave>3</octave>
</pitch>
<duration>480</duration>
<lyric>
<syllabic>single</syllabic>
<text>の</text>
</lyric>
</note>
<note>
<pitch>
<step>A</step>
<octave>3</octave>
</pitch>
<duration>960</duration>
<lyric>
<syllabic>single</syllabic>
<text>しょ</text>
</lyric>
</note>
<note>
<pitch>
<step>B</step>
<octave>3</octave>
</pitch>
<duration>480</duration>
<lyric>
<syllabic>single</syllabic>
<text>め</text>
</lyric>
</note>
<note>
<pitch>
<step>B</step>
<octave>3</octave>
</pitch>
<duration>480</duration>
<lyric>
<syllabic>single</syllabic>
<text>ん</text>
</lyric>
</note>
</measure>
<measure number="16">
<note>
<pitch>
<step>A</step>
<octave>3</octave>
</pitch>
<duration>1440</duration>
<lyric>
<syllabic>single</syllabic>
<text>だ</text>
</lyric>
</note>
<note>
<pitch>
<step>G</step>
<octave>3</octave>
</pitch>
<duration>480</duration>
<lyric>
<syllabic>single</syllabic>
<text>あ</text>
</lyric>
</note>
<note>
<pitch>
<step>A</step>
<octave>3</octave>
</pitch>
<duration>960</duration>
<lyric>
<syllabic>single</syllabic>
<text>れ</text>
</lyric>
</note>
<note>
<rest />
<duration>960</duration>
</note>
</measure>
<measure number="17">
<note>
<rest />
<duration>3840</duration>
</note>
</measure>
</part>
</score-partwise>
