<?xml version="1.0" encoding="utf-8"?>
<!DOCTYPE score-partwise PUBLIC "-//Recordare//DTD MusicXML 2.0 Partwise//EN"
                                "http://www.musicxml.org/dtds/partwise.dtd">
<score-partwise version="2.0">
<identification>
<encoding>
<software>Sinsy</software>
</encoding>
</identification>
<part-list>
<score-part id="P1">
<part-name>MusicXML Part</part-name>
</score-part>
</part-list>
<part id="P1">
<measure number="1">
<attributes>
<divisions>960</divisions>
</attributes>
<attributes>
<key>
<fifths>0</fifths>
<mode>major</mode>
</key>
</attributes>
<sound tempo="120.0000000000000" />
<direction>
<direction-type>
<metronome>
<beat-unit>quarter</beat-unit>
<per-minute>120.0000000000000</per-minute>
</metronome>
</direction-type>
<sound tempo="120.0000000000000" />
</direction>
<attributes>
<time>
<beats>4</beats>
<beat-type>4</beat-type>
</time>
</attributes>
<note>
<rest />
<duration>3840</duration>
</note>
</measure>
<measure number="2">
<note>
<rest />
<duration>3840</duration>
</note>
</measure>
<measure number="3">
<note>
<rest />
<duration>3840</duration>
</note>
</measure>
<measure number="4">
<note>
<rest />
<duration>3840</duration>
</note>
</measure>
<measure number="5">
<note>
<rest />
<duration>3840</duration>
</note>
</measure>
<measure number="6">
<note>
<rest />
<duration>3840</duration>
</note>
</measure>
<measure number="7">
<note>
<rest />
<duration>3840</duration>
</note>
</measure>
<measure number="8">
<note>
<rest />
<duration>3840</duration>
</note>
</measure>
<measure number="9">
<note>
<rest />
<duration>3840</duration>
</note>
</measure>
<measure number="10">
<note>
<rest />
<duration>3840</duration>
</note>
</measure>
<measure number="11">
<note>
<rest />
<duration>3840</duration>
</note>
</measure>
<measure number="12">
<note>
<rest />
<duration>3840</duration>
</note>
</measure>
<measure number="13">
<note>
<rest />
<duration>3840</duration>
</note>
</measure>
<measure number="14">
<note>
<rest />
<duration>3840</duration>
</note>
</measure>
<measure number="15">
<note>
<rest />
<duration>3840</duration>
</note>
</measure>
<measure number="16">
<note>
<rest />
<duration>3840</duration>
</note>
</measure>
<measure number="17">
<note>
<rest />
<duration>3840</duration>
</note>
</measure>
<measure number="18">
<note>
<rest />
<duration>3840</duration>
</note>
</measure>
<measure number="19">
<note>
<rest />
<duration>3840</duration>
</note>
</measure>
<measure number="20">
<note>
<rest />
<duration>3840</duration>
</note>
</measure>
<measure number="21">
<note>
<rest />
<duration>3840</duration>
</note>
</measure>
<measure number="22">
<note>
<rest />
<duration>3840</duration>
</note>
</measure>
<measure number="23">
<note>
<rest />
<duration>3840</duration>
</note>
</measure>
<measure number="24">
<note>
<rest />
<duration>3840</duration>
</note>
</measure>
<measure number="25">
<note>
<rest />
<duration>3840</duration>
</note>
</measure>
<measure number="26">
<note>
<rest />
<duration>3840</duration>
</note>
</measure>
<measure number="27">
<note>
<rest />
<duration>3840</duration>
</note>
</measure>
<measure number="28">
<note>
<rest />
<duration>3840</duration>
</note>
</measure>
<measure number="29">
<note>
<rest />
<duration>3840</duration>
</note>
</measure>
<measure number="30">
<note>
<rest />
<duration>3840</duration>
</note>
</measure>
<measure number="31">
<note>
<rest />
<duration>3840</duration>
</note>
</measure>
<measure number="32">
<note>
<rest />
<duration>3840</duration>
</note>
</measure>
<measure number="33">
<note>
<rest />
<duration>3840</duration>
</note>
</measure>
<measure number="34">
<note>
<rest />
<duration>3840</duration>
</note>
</measure>
<measure number="35">
<note>
<rest />
<duration>3840</duration>
</note>
</measure>
<measure number="36">
<note>
<rest />
<duration>3840</duration>
</note>
</measure>
<measure number="37">
<note>
<rest />
<duration>3840</duration>
</note>
</measure>
<measure number="38">
<note>
<rest />
<duration>3840</duration>
</note>
</measure>
<measure number="39">
<note>
<rest />
<duration>3840</duration>
</note>
</measure>
<measure number="40">
<note>
<rest />
<duration>3840</duration>
</note>
</measure>
<measure number="41">
<note>
<rest />
<duration>3840</duration>
</note>
</measure>
<measure number="42">
<note>
<rest />
<duration>3840</duration>
</note>
</measure>
<measure number="43">
<note>
<rest />
<duration>3840</duration>
</note>
</measure>
<measure number="44">
<note>
<rest />
<duration>3840</duration>
</note>
</measure>
<measure number="45">
<note>
<rest />
<duration>3840</duration>
</note>
</measure>
<measure number="46">
<note>
<rest />
<duration>3840</duration>
</note>
</measure>
<measure number="47">
<note>
<rest />
<duration>3840</duration>
</note>
</measure>
<measure number="48">
<note>
<rest />
<duration>3840</duration>
</note>
</measure>
<measure number="49">
<note>
<rest />
<duration>3840</duration>
</note>
</measure>
<measure number="50">
<note>
<rest />
<duration>3840</duration>
</note>
</measure>
<measure number="51">
<note>
<rest />
<duration>3840</duration>
</note>
</measure>
<measure number="52">
<note>
<rest />
<duration>3840</duration>
</note>
</measure>
<measure number="53">
<note>
<rest />
<duration>3840</duration>
</note>
</measure>
<measure number="54">
<note>
<rest />
<duration>3840</duration>
</note>
</measure>
<measure number="55">
<note>
<rest />
<duration>3840</duration>
</note>
</measure>
<measure number="56">
<note>
<rest />
<duration>3840</duration>
</note>
</measure>
<measure number="57">
<note>
<rest />
<duration>3840</duration>
</note>
</measure>
<measure number="58">
<note>
<rest />
<duration>3840</duration>
</note>
</measure>
<measure number="59">
<note>
<rest />
<duration>3840</duration>
</note>
</measure>
<measure number="60">
<note>
<rest />
<duration>3840</duration>
</note>
</measure>
<measure number="61">
<note>
<rest />
<duration>3840</duration>
</note>
</measure>
<measure number="62">
<note>
<rest />
<duration>3840</duration>
</note>
</measure>
<measure number="63">
<note>
<rest />
<duration>3840</duration>
</note>
</measure>
<measure number="64">
<note>
<rest />
<duration>3840</duration>
</note>
</measure>
<measure number="65">
<note>
<rest />
<duration>3840</duration>
</note>
</measure>
<measure number="66">
<note>
<rest />
<duration>3840</duration>
</note>
</measure>
<measure number="67">
<note>
<rest />
<duration>3840</duration>
</note>
</measure>
<measure number="68">
<note>
<rest />
<duration>3840</duration>
</note>
</measure>
<measure number="69">
<note>
<rest />
<duration>3840</duration>
</note>
</measure>
<measure number="70">
<note>
<rest />
<duration>3840</duration>
</note>
</measure>
<measure number="71">
<note>
<rest />
<duration>3840</duration>
</note>
</measure>
<measure number="72">
<note>
<rest />
<duration>3840</duration>
</note>
</measure>
<measure number="73">
<note>
<rest />
<duration>3840</duration>
</note>
</measure>
<measure number="74">
<note>
<rest />
<duration>3840</duration>
</note>
</measure>
<measure number="75">
<note>
<rest />
<duration>3840</duration>
</note>
</measure>
<measure number="76">
<note>
<rest />
<duration>3840</duration>
</note>
</measure>
<measure number="77">
<note>
<rest />
<duration>3840</duration>
</note>
</measure>
<measure number="78">
<note>
<rest />
<duration>3840</duration>
</note>
</measure>
<measure number="79">
<note>
<rest />
<duration>3840</duration>
</note>
</measure>
<measure number="80">
<note>
<rest />
<duration>3840</duration>
</note>
</measure>
<measure number="81">
<note>
<rest />
<duration>3840</duration>
</note>
</measure>
<measure number="82">
<note>
<rest />
<duration>3840</duration>
</note>
</measure>
<measure number="83">
<note>
<rest />
<duration>3840</duration>
</note>
</measure>
<measure number="84">
<note>
<rest />
<duration>3840</duration>
</note>
</measure>
<measure number="85">
<note>
<rest />
<duration>3840</duration>
</note>
</measure>
<measure number="86">
<note>
<rest />
<duration>3840</duration>
</note>
</measure>
<measure number="87">
<note>
<rest />
<duration>3840</duration>
</note>
</measure>
<measure number="88">
<note>
<rest />
<duration>3840</duration>
</note>
</measure>
<measure number="89">
<note>
<rest />
<duration>3840</duration>
</note>
</measure>
<measure number="90">
<note>
<rest />
<duration>3840</duration>
</note>
</measure>
<measure number="91">
<note>
<rest />
<duration>3840</duration>
</note>
</measure>
<measure number="92">
<note>
<rest />
<duration>3840</duration>
</note>
</measure>
<measure number="93">
<note>
<rest />
<duration>3840</duration>
</note>
</measure>
<measure number="94">
<note>
<rest />
<duration>3840</duration>
</note>
</measure>
<measure number="95">
<note>
<rest />
<duration>3840</duration>
</note>
</measure>
<measure number="96">
<note>
<rest />
<duration>3840</duration>
</note>
</measure>
<measure number="97">
<note>
<rest />
<duration>3840</duration>
</note>
</measure>
<measure number="98">
<note>
<rest />
<duration>3840</duration>
</note>
</measure>
<measure number="99">
<note>
<rest />
<duration>3840</duration>
</note>
</measure>
<measure number="100">
<note>
<rest />
<duration>3840</duration>
</note>
</measure>
<measure number="101">
<note>
<rest />
<duration>3840</duration>
</note>
</measure>
<measure number="102">
<note>
<rest />
<duration>3840</duration>
</note>
</measure>
<measure number="103">
<note>
<rest />
<duration>3840</duration>
</note>
</measure>
<measure number="104">
<note>
<rest />
<duration>3840</duration>
</note>
</measure>
<measure number="105">
<note>
<rest />
<duration>3840</duration>
</note>
</measure>
<measure number="106">
<note>
<rest />
<duration>2880</duration>
</note>
<note>
<pitch>
<step>D</step>
<octave>3</octave>
</pitch>
<duration>960</duration>
<lyric>
<syllabic>single</syllabic>
<text>み</text>
</lyric>
</note>
</measure>
<measure number="107">
<note>
<pitch>
<step>B</step>
<octave>3</octave>
</pitch>
<duration>1440</duration>
<lyric>
<syllabic>single</syllabic>
<text>ら</text>
</lyric>
</note>
<note>
<pitch>
<step>C</step>
<alter>1</alter>
<octave>4</octave>
</pitch>
<duration>240</duration>
<lyric>
<syllabic>single</syllabic>
<text>い</text>
</lyric>
</note>
<note>
<pitch>
<step>C</step>
<alter>1</alter>
<octave>4</octave>
</pitch>
<duration>1200</duration>
<lyric>
<syllabic>single</syllabic>
<text>え</text>
</lyric>
</note>
<note>
<rest />
<duration>480</duration>
</note>
<note>
<pitch>
<step>F</step>
<alter>1</alter>
<octave>3</octave>
</pitch>
<duration>480</duration>
<lyric>
<syllabic>single</syllabic>
<text>あ</text>
</lyric>
</note>
</measure>
<measure number="108">
<note>
<pitch>
<step>C</step>
<alter>1</alter>
<octave>4</octave>
</pitch>
<duration>480</duration>
<lyric>
<syllabic>single</syllabic>
<text>げ</text>
</lyric>
</note>
<note>
<pitch>
<step>D</step>
<octave>4</octave>
</pitch>
<duration>240</duration>
<lyric>
<syllabic>single</syllabic>
<text>ら</text>
</lyric>
</note>
<note>
<pitch>
<step>C</step>
<alter>1</alter>
<octave>4</octave>
</pitch>
<duration>720</duration>
<lyric>
<syllabic>single</syllabic>
<text>れ</text>
</lyric>
</note>
<note>
<pitch>
<step>B</step>
<octave>3</octave>
</pitch>
<duration>480</duration>
<lyric>
<syllabic>single</syllabic>
<text>た</text>
</lyric>
</note>
<note>
<pitch>
<step>B</step>
<octave>3</octave>
</pitch>
<duration>480</duration>
<lyric>
<syllabic>single</syllabic>
<text>ぼ</text>
</lyric>
</note>
<note>
<pitch>
<step>A</step>
<octave>3</octave>
</pitch>
<duration>480</duration>
<lyric>
<syllabic>single</syllabic>
<text>お</text>
</lyric>
</note>
<note>
<pitch>
<step>G</step>
<octave>3</octave>
</pitch>
<duration>480</duration>
<lyric>
<syllabic>single</syllabic>
<text>る</text>
</lyric>
</note>
<note>
<pitch>
<step>F</step>
<alter>1</alter>
<octave>3</octave>
</pitch>
<duration>480</duration>
<lyric>
<syllabic>single</syllabic>
<text>を</text>
</lyric>
</note>
</measure>
<measure number="109">
<note>
<rest />
<duration>480</duration>
</note>
<note>
<pitch>
<step>A</step>
<octave>3</octave>
</pitch>
<duration>240</duration>
<lyric>
<syllabic>single</syllabic>
<text>つ</text>
</lyric>
</note>
<note>
<pitch>
<step>A</step>
<octave>3</octave>
</pitch>
<duration>240</duration>
<lyric>
<syllabic>single</syllabic>
<text>な</text>
</lyric>
</note>
<note>
<pitch>
<step>A</step>
<octave>3</octave>
</pitch>
<duration>240</duration>
<lyric>
<syllabic>single</syllabic>
<text>い</text>
</lyric>
</note>
<note>
<pitch>
<step>A</step>
<octave>3</octave>
</pitch>
<duration>480</duration>
<lyric>
<syllabic>single</syllabic>
<text>で</text>
</lyric>
</note>
<note>
<pitch>
<step>A</step>
<octave>3</octave>
</pitch>
<duration>240</duration>
<lyric>
<syllabic>single</syllabic>
<text>か</text>
</lyric>
</note>
<note>
<pitch>
<step>G</step>
<octave>3</octave>
</pitch>
<duration>720</duration>
<lyric>
<syllabic>single</syllabic>
<text>べ</text>
</lyric>
</note>
<note>
<pitch>
<step>A</step>
<octave>3</octave>
</pitch>
<duration>720</duration>
<lyric>
<syllabic>single</syllabic>
<text>を</text>
</lyric>
</note>
<note>
<pitch>
<step>E</step>
<octave>3</octave>
</pitch>
<duration>480</duration>
<lyric>
<syllabic>single</syllabic>
<text>き</text>
</lyric>
</note>
</measure>
<measure number="110">
<note>
<pitch>
<step>E</step>
<octave>4</octave>
</pitch>
<duration>720</duration>
<lyric>
<syllabic>single</syllabic>
<text>り</text>
</lyric>
</note>
<note>
<pitch>
<step>D</step>
<octave>4</octave>
</pitch>
<duration>720</duration>
<lyric>
<syllabic>single</syllabic>
<text>ひ</text>
</lyric>
</note>
<note>
<pitch>
<step>C</step>
<alter>1</alter>
<octave>4</octave>
</pitch>
<duration>720</duration>
<lyric>
<syllabic>single</syllabic>
<text>ら</text>
</lyric>
</note>
<note>
<pitch>
<step>B</step>
<octave>3</octave>
</pitch>
<duration>720</duration>
<lyric>
<syllabic>single</syllabic>
<text>く</text>
</lyric>
</note>
<note>
<pitch>
<step>A</step>
<octave>3</octave>
</pitch>
<duration>480</duration>
<lyric>
<syllabic>single</syllabic>
<text>か</text>
</lyric>
</note>
<note>
<pitch>
<step>G</step>
<octave>3</octave>
</pitch>
<duration>480</duration>
<lyric>
<syllabic>single</syllabic>
<text>ら</text>
</lyric>
</note>
</measure>
<measure number="111">
<note>
<rest />
<duration>480</duration>
</note>
<note>
<pitch>
<step>G</step>
<octave>3</octave>
</pitch>
<duration>240</duration>
<lyric>
<syllabic>single</syllabic>
<text>お</text>
</lyric>
</note>
<note>
<pitch>
<step>G</step>
<octave>3</octave>
</pitch>
<duration>240</duration>
<lyric>
<syllabic>single</syllabic>
<text>わ</text>
</lyric>
</note>
<note>
<pitch>
<step>G</step>
<octave>3</octave>
</pitch>
<duration>240</duration>
<lyric>
<syllabic>single</syllabic>
<text>り</text>
</lyric>
</note>
<note>
<pitch>
<step>G</step>
<octave>3</octave>
</pitch>
<duration>480</duration>
<lyric>
<syllabic>single</syllabic>
<text>を</text>
</lyric>
</note>
<note>
<pitch>
<step>G</step>
<octave>3</octave>
</pitch>
<duration>240</duration>
<lyric>
<syllabic>single</syllabic>
<text>む</text>
</lyric>
</note>
<note>
<pitch>
<step>F</step>
<alter>1</alter>
<octave>3</octave>
</pitch>
<duration>480</duration>
<lyric>
<syllabic>single</syllabic>
<text>か</text>
</lyric>
</note>
<note>
<pitch>
<step>F</step>
<alter>1</alter>
<octave>3</octave>
</pitch>
<duration>240</duration>
<lyric>
<syllabic>single</syllabic>
<text>え</text>
</lyric>
</note>
<note>
<pitch>
<step>G</step>
<octave>3</octave>
</pitch>
<duration>720</duration>
<lyric>
<syllabic>single</syllabic>
<text>る</text>
</lyric>
</note>
<note>
<pitch>
<step>D</step>
<octave>3</octave>
</pitch>
<duration>480</duration>
<lyric>
<syllabic>single</syllabic>
<text>そ</text>
</lyric>
</note>
</measure>
<measure number="112">
<note>
<pitch>
<step>D</step>
<octave>4</octave>
</pitch>
<duration>960</duration>
<lyric>
<syllabic>single</syllabic>
<text>の</text>
</lyric>
</note>
<note>
<pitch>
<step>C</step>
<alter>1</alter>
<octave>4</octave>
</pitch>
<duration>960</duration>
<lyric>
<syllabic>single</syllabic>
<text>しゅ</text>
</lyric>
</note>
<note>
<pitch>
<step>B</step>
<octave>3</octave>
</pitch>
<duration>480</duration>
<lyric>
<syllabic>single</syllabic>
<text>ん</text>
</lyric>
</note>
<note>
<pitch>
<step>A</step>
<octave>3</octave>
</pitch>
<duration>480</duration>
<lyric>
<syllabic>single</syllabic>
<text>か</text>
</lyric>
</note>
<note>
<pitch>
<step>G</step>
<octave>3</octave>
</pitch>
<duration>480</duration>
<lyric>
<syllabic>single</syllabic>
<text>ん</text>
</lyric>
</note>
<note>
<pitch>
<step>A</step>
<octave>3</octave>
</pitch>
<duration>480</duration>
<lyric>
<syllabic>single</syllabic>
<text>ま</text>
</lyric>
</note>
</measure>
<measure number="113">
<note>
<pitch>
<step>E</step>
<octave>3</octave>
</pitch>
<duration>1920</duration>
<lyric>
<syllabic>single</syllabic>
<text>で</text>
</lyric>
</note>
<note>
<rest />
<duration>960</duration>
</note>
<note>
<pitch>
<step>E</step>
<octave>3</octave>
</pitch>
<duration>480</duration>
<lyric>
<syllabic>single</syllabic>
<text>た</text>
</lyric>
</note>
<note>
<pitch>
<step>F</step>
<alter>1</alter>
<octave>3</octave>
</pitch>
<duration>480</duration>
<lyric>
<syllabic>single</syllabic>
<text>だ</text>
</lyric>
</note>
</measure>
<measure number="114">
<note>
<pitch>
<step>G</step>
<octave>3</octave>
</pitch>
<duration>480</duration>
<lyric>
<syllabic>single</syllabic>
<text>い</text>
</lyric>
</note>
<note>
<pitch>
<step>G</step>
<octave>3</octave>
</pitch>
<duration>240</duration>
<lyric>
<syllabic>single</syllabic>
<text>ま</text>
</lyric>
</note>
<note>
<pitch>
<step>G</step>
<octave>3</octave>
</pitch>
<duration>720</duration>
<lyric>
<syllabic>single</syllabic>
<text>わ</text>
</lyric>
</note>
<note>
<pitch>
<step>G</step>
<octave>3</octave>
</pitch>
<duration>480</duration>
<lyric>
<syllabic>single</syllabic>
<text>ま</text>
</lyric>
</note>
<note>
<pitch>
<step>C</step>
<alter>1</alter>
<octave>4</octave>
</pitch>
<duration>480</duration>
<lyric>
<syllabic>single</syllabic>
<text>え</text>
</lyric>
</note>
<note>
<pitch>
<step>B</step>
<octave>3</octave>
</pitch>
<duration>480</duration>
<lyric>
<syllabic>single</syllabic>
<text>を</text>
</lyric>
</note>
<note>
<pitch>
<step>A</step>
<octave>3</octave>
</pitch>
<duration>480</duration>
<lyric>
<syllabic>single</syllabic>
<text>み</text>
</lyric>
</note>
<note>
<pitch>
<step>G</step>
<octave>3</octave>
</pitch>
<duration>480</duration>
<lyric>
<syllabic>single</syllabic>
<text>す</text>
</lyric>
</note>
</measure>
<measure number="115">
<note>
<pitch>
<step>G</step>
<octave>3</octave>
</pitch>
<duration>720</duration>
<lyric>
<syllabic>single</syllabic>
<text>え</text>
</lyric>
</note>
<note>
<pitch>
<step>A</step>
<octave>3</octave>
</pitch>
<duration>3120</duration>
<lyric>
<syllabic>single</syllabic>
<text>て</text>
</lyric>
</note>
</measure>
<measure number="116">
<note>
<rest />
<duration>3840</duration>
</note>
</measure>
</part>
</score-partwise>
