<?xml version="1.0" encoding="UTF-8"?>
<score-partwise version="2.0">
<part-list>
<score-part id="p1">
<part-name>Sinsy</part-name>
</score-part>
</part-list>
<part id="p1">
<measure number="1">
<attributes>
<divisions>480</divisions>
<key>
<fifths>0</fifths>
</key>
<time>
<beats>4</beats>
<beat-type>4</beat-type>
</time>
</attributes>
<direction placement="above">
<sound tempo="185.00" />
<direction-type>
<metronome>
<beat-unit>quarter</beat-unit>
<per-minute>185.00</per-minute>
</metronome>
</direction-type>
</direction>
<direction placement="above">
<sound tempo="185.00" />
<direction-type>
<metronome>
<beat-unit>quarter</beat-unit>
<per-minute>185.00</per-minute>
</metronome>
</direction-type>
</direction>
<note>
<rest />
<duration>1920</duration>
<voice>1</voice>
<type>whole</type>
</note>
</measure>
<measure number="2">
<note>
<rest />
<duration>480</duration>
<voice>1</voice>
<type>quarter</type>
</note>
<note>
<rest />
<duration>240</duration>
<voice>1</voice>
<type>eighth</type>
</note>
<note>
<lyric number="1">
<syllabic>single</syllabic>
<text>と</text>
</lyric>
<pitch>
<step>G</step>
<alter>1</alter>
<octave>3</octave>
</pitch>
<duration>240</duration>
<voice>1</voice>
<type>eighth</type>
</note>
<note>
<lyric number="1">
<syllabic>single</syllabic>
<text>ぎ</text>
</lyric>
<pitch>
<step>B</step>
<octave>3</octave>
</pitch>
<duration>240</duration>
<voice>1</voice>
<type>eighth</type>
</note>
<note>
<lyric number="1">
<syllabic>single</syllabic>
<text>す</text>
</lyric>
<pitch>
<step>C</step>
<alter>1</alter>
<octave>4</octave>
</pitch>
<duration>240</duration>
<voice>1</voice>
<type>eighth</type>
</note>
<note>
<lyric number="1">
<syllabic>single</syllabic>
<text>ま</text>
</lyric>
<pitch>
<step>D</step>
<alter>1</alter>
<octave>4</octave>
</pitch>
<duration>240</duration>
<voice>1</voice>
<type>eighth</type>
</note>
<note>
<lyric number="1">
<syllabic>single</syllabic>
<text>し</text>
</lyric>
<pitch>
<step>B</step>
<octave>3</octave>
</pitch>
<duration>240</duration>
<voice>1</voice>
<type>eighth</type>
</note>
</measure>
<measure number="3">
<note>
<lyric number="1">
<syllabic>single</syllabic>
<text>た</text>
</lyric>
<pitch>
<step>F</step>
<alter>1</alter>
<octave>4</octave>
</pitch>
<duration>960</duration>
<voice>1</voice>
<type>half</type>
</note>
<note>
<lyric number="1">
<syllabic>single</syllabic>
<text>そ</text>
</lyric>
<pitch>
<step>G</step>
<alter>1</alter>
<octave>4</octave>
</pitch>
<duration>480</duration>
<voice>1</voice>
<type>quarter</type>
</note>
<note>
<lyric number="1">
<syllabic>single</syllabic>
<text>う</text>
</lyric>
<pitch>
<step>G</step>
<alter>1</alter>
<octave>4</octave>
</pitch>
<duration>240</duration>
<voice>1</voice>
<type>eighth</type>
</note>
<note>
<lyric number="1">
<syllabic>single</syllabic>
<text>が</text>
</lyric>
<pitch>
<step>C</step>
<alter>1</alter>
<octave>4</octave>
</pitch>
<tie type="start" />
<notations>
<tied type="start" />
</notations>
<duration>240</duration>
<voice>1</voice>
<type>eighth</type>
</note>
</measure>
<measure number="4">
<note>
<pitch>
<step>C</step>
<alter>1</alter>
<octave>4</octave>
</pitch>
<tie type="stop" />
<notations>
<tied type="stop" />
</notations>
<duration>240</duration>
<voice>1</voice>
<type>eighth</type>
</note>
<note>
<lyric number="1">
<syllabic>single</syllabic>
<text>と</text>
</lyric>
<pitch>
<step>B</step>
<octave>3</octave>
</pitch>
<duration>480</duration>
<voice>1</voice>
<type>quarter</type>
</note>
<note>
<rest />
<duration>480</duration>
<voice>1</voice>
<type>quarter</type>
</note>
<note>
<lyric number="1">
<syllabic>single</syllabic>
<text>ひ</text>
</lyric>
<pitch>
<step>B</step>
<octave>3</octave>
</pitch>
<duration>240</duration>
<voice>1</voice>
<type>eighth</type>
</note>
<note>
<lyric number="1">
<syllabic>single</syllabic>
<text>ろ</text>
</lyric>
<pitch>
<step>C</step>
<alter>1</alter>
<octave>4</octave>
</pitch>
<duration>240</duration>
<voice>1</voice>
<type>eighth</type>
</note>
<note>
<lyric number="1">
<syllabic>single</syllabic>
<text>げ</text>
</lyric>
<pitch>
<step>B</step>
<octave>3</octave>
</pitch>
<duration>240</duration>
<voice>1</voice>
<type>eighth</type>
</note>
</measure>
<measure number="5">
<note>
<lyric number="1">
<syllabic>single</syllabic>
<text>た</text>
</lyric>
<pitch>
<step>F</step>
<alter>1</alter>
<octave>4</octave>
</pitch>
<duration>960</duration>
<voice>1</voice>
<type>half</type>
</note>
<note>
<lyric number="1">
<syllabic>single</syllabic>
<text>りょ</text>
</lyric>
<pitch>
<step>G</step>
<alter>1</alter>
<octave>4</octave>
</pitch>
<duration>720</duration>
<voice>1</voice>
<type>quarter</type>
<dot />
</note>
<note>
<lyric number="1">
<syllabic>single</syllabic>
<text>よ</text>
</lyric>
<pitch>
<step>C</step>
<alter>1</alter>
<octave>4</octave>
</pitch>
<tie type="start" />
<notations>
<tied type="start" />
</notations>
<duration>240</duration>
<voice>1</voice>
<type>eighth</type>
</note>
</measure>
<measure number="6">
<note>
<pitch>
<step>C</step>
<alter>1</alter>
<octave>4</octave>
</pitch>
<tie type="stop" />
<notations>
<tied type="stop" />
</notations>
<duration>120</duration>
<voice>1</voice>
<type>16th</type>
</note>
<note>
<lyric number="1">
<syllabic>single</syllabic>
<text>く</text>
</lyric>
<pitch>
<step>C</step>
<alter>1</alter>
<octave>4</octave>
</pitch>
<duration>120</duration>
<voice>1</voice>
<type>16th</type>
</note>
<note>
<lyric number="1">
<syllabic>single</syllabic>
<text>で</text>
</lyric>
<pitch>
<step>B</step>
<octave>3</octave>
</pitch>
<duration>240</duration>
<voice>1</voice>
<type>eighth</type>
</note>
<note>
<rest />
<duration>240</duration>
<voice>1</voice>
<type>eighth</type>
</note>
<note>
<lyric number="1">
<syllabic>single</syllabic>
<text>め</text>
</lyric>
<pitch>
<step>G</step>
<alter>1</alter>
<octave>3</octave>
</pitch>
<duration>240</duration>
<voice>1</voice>
<type>eighth</type>
</note>
<note>
<lyric number="1">
<syllabic>single</syllabic>
<text>の</text>
</lyric>
<pitch>
<step>B</step>
<octave>3</octave>
</pitch>
<duration>240</duration>
<voice>1</voice>
<type>eighth</type>
</note>
<note>
<lyric number="1">
<syllabic>single</syllabic>
<text>ま</text>
</lyric>
<pitch>
<step>C</step>
<alter>1</alter>
<octave>4</octave>
</pitch>
<duration>240</duration>
<voice>1</voice>
<type>eighth</type>
</note>
<note>
<lyric number="1">
<syllabic>single</syllabic>
<text>え</text>
</lyric>
<pitch>
<step>D</step>
<alter>1</alter>
<octave>4</octave>
</pitch>
<duration>240</duration>
<voice>1</voice>
<type>eighth</type>
</note>
<note>
<lyric number="1">
<syllabic>single</syllabic>
<text>の</text>
</lyric>
<pitch>
<step>B</step>
<octave>3</octave>
</pitch>
<tie type="start" />
<notations>
<tied type="start" />
</notations>
<duration>240</duration>
<voice>1</voice>
<type>eighth</type>
</note>
</measure>
<measure number="7">
<note>
<pitch>
<step>B</step>
<octave>3</octave>
</pitch>
<tie type="stop" />
<notations>
<tied type="stop" />
</notations>
<duration>480</duration>
<voice>1</voice>
<type>quarter</type>
</note>
<note>
<rest />
<duration>240</duration>
<voice>1</voice>
<type>eighth</type>
</note>
<note>
<lyric number="1">
<syllabic>single</syllabic>
<text>きょ</text>
</lyric>
<pitch>
<step>G</step>
<alter>1</alter>
<octave>3</octave>
</pitch>
<duration>240</duration>
<voice>1</voice>
<type>eighth</type>
</note>
<note>
<lyric number="1">
<syllabic>single</syllabic>
<text>お</text>
</lyric>
<pitch>
<step>B</step>
<octave>3</octave>
</pitch>
<duration>240</duration>
<voice>1</voice>
<type>eighth</type>
</note>
<note>
<lyric number="1">
<syllabic>single</syllabic>
<text>て</text>
</lyric>
<pitch>
<step>C</step>
<alter>1</alter>
<octave>4</octave>
</pitch>
<duration>240</duration>
<voice>1</voice>
<type>eighth</type>
</note>
<note>
<lyric number="1">
<syllabic>single</syllabic>
<text>き</text>
</lyric>
<pitch>
<step>D</step>
<alter>1</alter>
<octave>4</octave>
</pitch>
<duration>240</duration>
<voice>1</voice>
<type>eighth</type>
</note>
<note>
<lyric number="1">
<syllabic>single</syllabic>
<text>に</text>
</lyric>
<pitch>
<step>B</step>
<octave>3</octave>
</pitch>
<tie type="start" />
<notations>
<tied type="start" />
</notations>
<duration>240</duration>
<voice>1</voice>
<type>eighth</type>
</note>
</measure>
<measure number="8">
<note>
<pitch>
<step>B</step>
<octave>3</octave>
</pitch>
<tie type="stop" />
<notations>
<tied type="stop" />
</notations>
<duration>960</duration>
<voice>1</voice>
<type>half</type>
</note>
<note>
<rest />
<duration>480</duration>
<voice>1</voice>
<type>quarter</type>
</note>
<note>
<lyric number="1">
<syllabic>single</syllabic>
<text>さ</text>
</lyric>
<pitch>
<step>C</step>
<alter>1</alter>
<octave>4</octave>
</pitch>
<duration>480</duration>
<voice>1</voice>
<type>quarter</type>
</note>
</measure>
<measure number="9">
<note>
<lyric number="1">
<syllabic>single</syllabic>
<text>あ</text>
</lyric>
<pitch>
<step>B</step>
<octave>3</octave>
</pitch>
<duration>960</duration>
<voice>1</voice>
<type>half</type>
</note>
<note>
<rest />
<duration>480</duration>
<voice>1</voice>
<type>quarter</type>
</note>
<note>
<rest />
<duration>240</duration>
<voice>1</voice>
<type>eighth</type>
</note>
<note>
<lyric number="1">
<syllabic>single</syllabic>
<text>く</text>
</lyric>
<pitch>
<step>B</step>
<octave>3</octave>
</pitch>
<duration>240</duration>
<voice>1</voice>
<type>eighth</type>
</note>
</measure>
<measure number="10">
<note>
<lyric number="1">
<syllabic>single</syllabic>
<text>ら</text>
</lyric>
<pitch>
<step>B</step>
<octave>3</octave>
</pitch>
<duration>720</duration>
<voice>1</voice>
<type>quarter</type>
<dot />
</note>
<note>
<lyric number="1">
<syllabic>single</syllabic>
<text>い</text>
</lyric>
<pitch>
<step>B</step>
<octave>3</octave>
</pitch>
<duration>240</duration>
<voice>1</voice>
<type>eighth</type>
</note>
<note>
<lyric number="1">
<syllabic>single</syllabic>
<text>つ</text>
</lyric>
<pitch>
<step>A</step>
<alter>1</alter>
<octave>3</octave>
</pitch>
<duration>960</duration>
<voice>1</voice>
<type>half</type>
</note>
</measure>
<measure number="11">
<note>
<lyric number="1">
<syllabic>single</syllabic>
<text>け</text>
</lyric>
<pitch>
<step>B</step>
<octave>3</octave>
</pitch>
<tie type="start" />
<notations>
<tied type="start" />
</notations>
<duration>1920</duration>
<voice>1</voice>
<type>whole</type>
</note>
</measure>
<measure number="12">
<note>
<pitch>
<step>B</step>
<octave>3</octave>
</pitch>
<tie type="stop" />
<notations>
<tied type="stop" />
</notations>
<duration>840</duration>
<voice>1</voice>
<type>quarter</type>
<dot />
<dot />
</note>
<note>
<rest />
<duration>960</duration>
<voice>1</voice>
<type>half</type>
</note>
<note>
<rest />
<duration>120</duration>
<voice>1</voice>
<type>16th</type>
</note>
</measure>
<measure number="13">
<note>
<rest />
<duration>1920</duration>
<voice>1</voice>
<type>whole</type>
</note>
</measure>
<measure number="14">
<note>
<rest />
<duration>1920</duration>
<voice>1</voice>
<type>whole</type>
</note>
</measure>
<measure number="15">
<note>
<rest />
<duration>1920</duration>
<voice>1</voice>
<type>whole</type>
</note>
</measure>
<measure number="16">
<note>
<rest />
<duration>1920</duration>
<voice>1</voice>
<type>whole</type>
</note>
</measure>
<measure number="17">
<note>
<rest />
<duration>1920</duration>
<voice>1</voice>
<type>whole</type>
</note>
</measure>
<measure number="18">
<note>
<rest />
<duration>960</duration>
<voice>1</voice>
<type>half</type>
</note>
<note>
<rest />
<duration>480</duration>
<voice>1</voice>
<type>quarter</type>
</note>
<note>
<rest />
<duration>240</duration>
<voice>1</voice>
<type>eighth</type>
</note>
<note>
<lyric number="1">
<syllabic>single</syllabic>
<text>え</text>
</lyric>
<pitch>
<step>B</step>
<octave>2</octave>
</pitch>
<duration>240</duration>
<voice>1</voice>
<type>eighth</type>
</note>
</measure>
<measure number="19">
<note>
<lyric number="1">
<syllabic>single</syllabic>
<text>が</text>
</lyric>
<pitch>
<step>F</step>
<alter>1</alter>
<octave>3</octave>
</pitch>
<duration>1440</duration>
<voice>1</voice>
<type>half</type>
<dot />
</note>
<note>
<lyric number="1">
<syllabic>single</syllabic>
<text>い</text>
</lyric>
<pitch>
<step>G</step>
<alter>1</alter>
<octave>3</octave>
</pitch>
<duration>240</duration>
<voice>1</voice>
<type>eighth</type>
</note>
<note>
<lyric number="1">
<syllabic>single</syllabic>
<text>た</text>
</lyric>
<pitch>
<step>F</step>
<alter>1</alter>
<octave>3</octave>
</pitch>
<tie type="start" />
<notations>
<tied type="start" />
</notations>
<duration>240</duration>
<voice>1</voice>
<type>eighth</type>
</note>
</measure>
<measure number="20">
<note>
<pitch>
<step>F</step>
<alter>1</alter>
<octave>3</octave>
</pitch>
<tie type="stop" />
<notations>
<tied type="stop" />
</notations>
<duration>960</duration>
<voice>1</voice>
<type>half</type>
</note>
<note>
<rest />
<duration>480</duration>
<voice>1</voice>
<type>quarter</type>
</note>
<note>
<lyric number="1">
<syllabic>single</syllabic>
<text>り</text>
</lyric>
<pitch>
<step>F</step>
<alter>1</alter>
<octave>3</octave>
</pitch>
<duration>480</duration>
<voice>1</voice>
<type>quarter</type>
</note>
</measure>
<measure number="21">
<note>
<lyric number="1">
<syllabic>single</syllabic>
<text>そ</text>
</lyric>
<pitch>
<step>F</step>
<alter>1</alter>
<octave>3</octave>
</pitch>
<duration>480</duration>
<voice>1</voice>
<type>quarter</type>
</note>
<note>
<lyric number="1">
<syllabic>single</syllabic>
<text>お</text>
</lyric>
<pitch>
<step>E</step>
<octave>3</octave>
</pitch>
<duration>240</duration>
<voice>1</voice>
<type>eighth</type>
</note>
<note>
<lyric number="1">
<syllabic>single</syllabic>
<text>ぞ</text>
</lyric>
<pitch>
<step>D</step>
<alter>1</alter>
<octave>3</octave>
</pitch>
<duration>480</duration>
<voice>1</voice>
<type>quarter</type>
</note>
<note>
<lyric number="1">
<syllabic>single</syllabic>
<text>お</text>
</lyric>
<pitch>
<step>E</step>
<octave>3</octave>
</pitch>
<duration>480</duration>
<voice>1</voice>
<type>quarter</type>
</note>
<note>
<lyric number="1">
<syllabic>single</syllabic>
<text>わ</text>
</lyric>
<pitch>
<step>D</step>
<alter>1</alter>
<octave>3</octave>
</pitch>
<tie type="start" />
<notations>
<tied type="start" />
</notations>
<duration>240</duration>
<voice>1</voice>
<type>eighth</type>
</note>
</measure>
<measure number="22">
<note>
<pitch>
<step>D</step>
<alter>1</alter>
<octave>3</octave>
</pitch>
<tie type="stop" />
<notations>
<tied type="stop" />
</notations>
<duration>720</duration>
<voice>1</voice>
<type>quarter</type>
<dot />
</note>
<note>
<rest />
<duration>480</duration>
<voice>1</voice>
<type>quarter</type>
</note>
<note>
<lyric number="1">
<syllabic>single</syllabic>
<text>く</text>
</lyric>
<pitch>
<step>D</step>
<alter>1</alter>
<octave>3</octave>
</pitch>
<duration>240</duration>
<voice>1</voice>
<type>eighth</type>
</note>
<note>
<lyric number="1">
<syllabic>single</syllabic>
<text>ろ</text>
</lyric>
<pitch>
<step>C</step>
<alter>1</alter>
<octave>3</octave>
</pitch>
<duration>240</duration>
<voice>1</voice>
<type>eighth</type>
</note>
<note>
<lyric number="1">
<syllabic>single</syllabic>
<text>の</text>
</lyric>
<pitch>
<step>B</step>
<octave>2</octave>
</pitch>
<tie type="start" />
<notations>
<tied type="start" />
</notations>
<duration>240</duration>
<voice>1</voice>
<type>eighth</type>
</note>
</measure>
<measure number="23">
<note>
<pitch>
<step>B</step>
<octave>2</octave>
</pitch>
<tie type="stop" />
<notations>
<tied type="stop" />
</notations>
<duration>960</duration>
<voice>1</voice>
<type>half</type>
</note>
<note>
<lyric number="1">
<syllabic>single</syllabic>
<text>つ</text>
</lyric>
<pitch>
<step>G</step>
<alter>1</alter>
<octave>3</octave>
</pitch>
<duration>960</duration>
<voice>1</voice>
<type>half</type>
</note>
</measure>
<measure number="24">
<note>
<lyric number="1">
<syllabic>single</syllabic>
<text>ば</text>
</lyric>
<pitch>
<step>F</step>
<alter>1</alter>
<octave>3</octave>
</pitch>
<duration>960</duration>
<voice>1</voice>
<type>half</type>
</note>
<note>
<lyric number="1">
<syllabic>single</syllabic>
<text>さ</text>
</lyric>
<pitch>
<step>E</step>
<octave>3</octave>
</pitch>
<duration>960</duration>
<voice>1</voice>
<type>half</type>
</note>
</measure>
<measure number="25">
<note>
<lyric number="1">
<syllabic>single</syllabic>
<text>うぉ</text>
</lyric>
<pitch>
<step>D</step>
<alter>1</alter>
<octave>3</octave>
</pitch>
<tie type="start" />
<notations>
<tied type="start" />
</notations>
<duration>960</duration>
<voice>1</voice>
<type>half</type>
</note>
<note>
<pitch>
<step>D</step>
<alter>1</alter>
<octave>3</octave>
</pitch>
<tie type="stop" />
<notations>
<tied type="stop" />
</notations>
<duration>240</duration>
<voice>1</voice>
<type>eighth</type>
</note>
<note>
<lyric number="1">
<syllabic>single</syllabic>
<text>ひ</text>
</lyric>
<pitch>
<step>D</step>
<alter>1</alter>
<octave>3</octave>
</pitch>
<duration>240</duration>
<voice>1</voice>
<type>eighth</type>
</note>
<note>
<lyric number="1">
<syllabic>single</syllabic>
<text>ろ</text>
</lyric>
<pitch>
<step>C</step>
<alter>1</alter>
<octave>3</octave>
</pitch>
<duration>240</duration>
<voice>1</voice>
<type>eighth</type>
</note>
<note>
<lyric number="1">
<syllabic>single</syllabic>
<text>げ</text>
</lyric>
<pitch>
<step>E</step>
<octave>3</octave>
</pitch>
<duration>240</duration>
<voice>1</voice>
<type>eighth</type>
</note>
</measure>
<measure number="26">
<note>
<lyric number="1">
<syllabic>single</syllabic>
<text>え</text>
</lyric>
<pitch>
<step>D</step>
<alter>1</alter>
<octave>3</octave>
</pitch>
<duration>960</duration>
<voice>1</voice>
<type>half</type>
</note>
<note>
<rest />
<duration>480</duration>
<voice>1</voice>
<type>quarter</type>
</note>
<note>
<rest />
<duration>240</duration>
<voice>1</voice>
<type>eighth</type>
</note>
<note>
<lyric number="1">
<syllabic>single</syllabic>
<text>お</text>
</lyric>
<pitch>
<step>B</step>
<octave>2</octave>
</pitch>
<duration>240</duration>
<voice>1</voice>
<type>eighth</type>
</note>
</measure>
<measure number="27">
<note>
<lyric number="1">
<syllabic>single</syllabic>
<text>お</text>
</lyric>
<pitch>
<step>F</step>
<alter>1</alter>
<octave>3</octave>
</pitch>
<tie type="start" />
<notations>
<tied type="start" />
</notations>
<duration>960</duration>
<voice>1</voice>
<type>half</type>
</note>
<note>
<pitch>
<step>F</step>
<alter>1</alter>
<octave>3</octave>
</pitch>
<tie type="stop" />
<notations>
<tied type="stop" />
</notations>
<duration>240</duration>
<voice>1</voice>
<type>eighth</type>
</note>
<note>
<lyric number="1">
<syllabic>single</syllabic>
<text>ぞ</text>
</lyric>
<pitch>
<step>B</step>
<octave>2</octave>
</pitch>
<duration>240</duration>
<voice>1</voice>
<type>eighth</type>
</note>
<note>
<lyric number="1">
<syllabic>single</syllabic>
<text>ら</text>
</lyric>
<pitch>
<step>G</step>
<alter>1</alter>
<octave>3</octave>
</pitch>
<duration>240</duration>
<voice>1</voice>
<type>eighth</type>
</note>
<note>
<lyric number="1">
<syllabic>single</syllabic>
<text>うぉ</text>
</lyric>
<pitch>
<step>F</step>
<alter>1</alter>
<octave>3</octave>
</pitch>
<tie type="start" />
<notations>
<tied type="start" />
</notations>
<duration>240</duration>
<voice>1</voice>
<type>eighth</type>
</note>
</measure>
<measure number="28">
<note>
<pitch>
<step>F</step>
<alter>1</alter>
<octave>3</octave>
</pitch>
<tie type="stop" />
<notations>
<tied type="stop" />
</notations>
<duration>960</duration>
<voice>1</voice>
<type>half</type>
</note>
<note>
<rest />
<duration>480</duration>
<voice>1</voice>
<type>quarter</type>
</note>
<note>
<lyric number="1">
<syllabic>single</syllabic>
<text>じ</text>
</lyric>
<pitch>
<step>F</step>
<alter>1</alter>
<octave>3</octave>
</pitch>
<duration>480</duration>
<voice>1</voice>
<type>quarter</type>
</note>
</measure>
<measure number="29">
<note>
<lyric number="1">
<syllabic>single</syllabic>
<text>ゆ</text>
</lyric>
<pitch>
<step>F</step>
<alter>1</alter>
<octave>3</octave>
</pitch>
<duration>480</duration>
<voice>1</voice>
<type>quarter</type>
</note>
<note>
<lyric number="1">
<syllabic>single</syllabic>
<text>う</text>
</lyric>
<pitch>
<step>E</step>
<octave>3</octave>
</pitch>
<duration>240</duration>
<voice>1</voice>
<type>eighth</type>
</note>
<note>
<lyric number="1">
<syllabic>single</syllabic>
<text>に</text>
</lyric>
<pitch>
<step>F</step>
<alter>1</alter>
<octave>3</octave>
</pitch>
<duration>480</duration>
<voice>1</voice>
<type>quarter</type>
</note>
<note>
<lyric number="1">
<syllabic>single</syllabic>
<text>ま</text>
</lyric>
<pitch>
<step>G</step>
<alter>1</alter>
<octave>3</octave>
</pitch>
<duration>480</duration>
<voice>1</voice>
<type>quarter</type>
</note>
<note>
<lyric number="1">
<syllabic>single</syllabic>
<text>う</text>
</lyric>
<pitch>
<step>F</step>
<alter>1</alter>
<octave>3</octave>
</pitch>
<tie type="start" />
<notations>
<tied type="start" />
</notations>
<duration>240</duration>
<voice>1</voice>
<type>eighth</type>
</note>
</measure>
<measure number="30">
<note>
<pitch>
<step>F</step>
<alter>1</alter>
<octave>3</octave>
</pitch>
<tie type="stop" />
<notations>
<tied type="stop" />
</notations>
<duration>720</duration>
<voice>1</voice>
<type>quarter</type>
<dot />
</note>
<note>
<rest />
<duration>480</duration>
<voice>1</voice>
<type>quarter</type>
</note>
<note>
<lyric number="1">
<syllabic>single</syllabic>
<text>い</text>
</lyric>
<pitch>
<step>D</step>
<alter>1</alter>
<octave>3</octave>
</pitch>
<duration>240</duration>
<voice>1</voice>
<type>eighth</type>
</note>
<note>
<lyric number="1">
<syllabic>single</syllabic>
<text>ち</text>
</lyric>
<pitch>
<step>C</step>
<alter>1</alter>
<octave>3</octave>
</pitch>
<duration>240</duration>
<voice>1</voice>
<type>eighth</type>
</note>
<note>
<lyric number="1">
<syllabic>single</syllabic>
<text>わ</text>
</lyric>
<pitch>
<step>B</step>
<octave>2</octave>
</pitch>
<duration>240</duration>
<voice>1</voice>
<type>eighth</type>
</note>
</measure>
<measure number="31">
<note>
<lyric number="1">
<syllabic>single</syllabic>
<text>の</text>
</lyric>
<pitch>
<step>B</step>
<octave>2</octave>
</pitch>
<duration>960</duration>
<voice>1</voice>
<type>half</type>
</note>
<note>
<lyric number="1">
<syllabic>single</syllabic>
<text>か</text>
</lyric>
<pitch>
<step>G</step>
<alter>1</alter>
<octave>3</octave>
</pitch>
<duration>960</duration>
<voice>1</voice>
<type>half</type>
</note>
</measure>
<measure number="32">
<note>
<lyric number="1">
<syllabic>single</syllabic>
<text>ら</text>
</lyric>
<pitch>
<step>F</step>
<alter>1</alter>
<octave>3</octave>
</pitch>
<duration>960</duration>
<voice>1</voice>
<type>half</type>
</note>
<note>
<lyric number="1">
<syllabic>single</syllabic>
<text>す</text>
</lyric>
<pitch>
<step>E</step>
<octave>3</octave>
</pitch>
<duration>960</duration>
<voice>1</voice>
<type>half</type>
</note>
</measure>
<measure number="33">
<note>
<lyric number="1">
<syllabic>single</syllabic>
<text>の</text>
</lyric>
<pitch>
<step>F</step>
<alter>1</alter>
<octave>3</octave>
</pitch>
<duration>960</duration>
<voice>1</voice>
<type>half</type>
</note>
<note>
<rest />
<duration>240</duration>
<voice>1</voice>
<type>eighth</type>
</note>
<note>
<lyric number="1">
<syllabic>single</syllabic>
<text>せ</text>
</lyric>
<pitch>
<step>D</step>
<alter>1</alter>
<octave>3</octave>
</pitch>
<duration>240</duration>
<voice>1</voice>
<type>eighth</type>
</note>
<note>
<lyric number="1">
<syllabic>single</syllabic>
<text>な</text>
</lyric>
<pitch>
<step>C</step>
<alter>1</alter>
<octave>3</octave>
</pitch>
<duration>240</duration>
<voice>1</voice>
<type>eighth</type>
</note>
<note>
<lyric number="1">
<syllabic>single</syllabic>
<text>か</text>
</lyric>
<pitch>
<step>B</step>
<octave>2</octave>
</pitch>
<tie type="start" />
<notations>
<tied type="start" />
</notations>
<duration>240</duration>
<voice>1</voice>
<type>eighth</type>
</note>
</measure>
<measure number="34">
<note>
<pitch>
<step>B</step>
<octave>2</octave>
</pitch>
<tie type="stop" />
<notations>
<tied type="stop" />
</notations>
<duration>480</duration>
<voice>1</voice>
<type>quarter</type>
</note>
<note>
<rest />
<duration>240</duration>
<voice>1</voice>
<type>eighth</type>
</note>
<note>
<lyric number="1">
<syllabic>single</syllabic>
<text>い</text>
</lyric>
<pitch>
<step>D</step>
<alter>1</alter>
<octave>3</octave>
</pitch>
<duration>240</duration>
<voice>1</voice>
<type>eighth</type>
</note>
<note>
<lyric number="1">
<syllabic>single</syllabic>
<text>く</text>
</lyric>
<pitch>
<step>C</step>
<alter>1</alter>
<octave>3</octave>
</pitch>
<duration>240</duration>
<voice>1</voice>
<type>eighth</type>
</note>
<note>
<lyric number="1">
<syllabic>single</syllabic>
<text>ど</text>
</lyric>
<pitch>
<step>D</step>
<alter>1</alter>
<octave>3</octave>
</pitch>
<duration>240</duration>
<voice>1</voice>
<type>eighth</type>
</note>
<note>
<lyric number="1">
<syllabic>single</syllabic>
<text>の</text>
</lyric>
<pitch>
<step>C</step>
<alter>1</alter>
<octave>3</octave>
</pitch>
<duration>240</duration>
<voice>1</voice>
<type>eighth</type>
</note>
<note>
<lyric number="1">
<syllabic>single</syllabic>
<text>あ</text>
</lyric>
<pitch>
<step>B</step>
<octave>2</octave>
</pitch>
<duration>240</duration>
<voice>1</voice>
<type>eighth</type>
</note>
</measure>
<measure number="35">
<note>
<lyric number="1">
<syllabic>single</syllabic>
<text>せ</text>
</lyric>
<pitch>
<step>B</step>
<octave>2</octave>
</pitch>
<duration>960</duration>
<voice>1</voice>
<type>half</type>
</note>
<note>
<lyric number="1">
<syllabic>single</syllabic>
<text>と</text>
</lyric>
<pitch>
<step>D</step>
<alter>1</alter>
<octave>3</octave>
</pitch>
<duration>960</duration>
<voice>1</voice>
<type>half</type>
</note>
</measure>
<measure number="36">
<note>
<lyric number="1">
<syllabic>single</syllabic>
<text>な</text>
</lyric>
<pitch>
<step>E</step>
<octave>3</octave>
</pitch>
<duration>960</duration>
<voice>1</voice>
<type>half</type>
</note>
<note>
<lyric number="1">
<syllabic>single</syllabic>
<text>み</text>
</lyric>
<pitch>
<step>G</step>
<alter>1</alter>
<octave>3</octave>
</pitch>
<duration>960</duration>
<voice>1</voice>
<type>half</type>
</note>
</measure>
<measure number="37">
<note>
<lyric number="1">
<syllabic>single</syllabic>
<text>だ</text>
</lyric>
<pitch>
<step>F</step>
<alter>1</alter>
<octave>3</octave>
</pitch>
<duration>480</duration>
<voice>1</voice>
<type>quarter</type>
</note>
<note>
<lyric number="1">
<syllabic>single</syllabic>
<text>ふ</text>
</lyric>
<pitch>
<step>F</step>
<alter>1</alter>
<octave>3</octave>
</pitch>
<duration>240</duration>
<voice>1</voice>
<type>eighth</type>
</note>
<note>
<lyric number="1">
<syllabic>single</syllabic>
<text>み</text>
</lyric>
<pitch>
<step>F</step>
<alter>1</alter>
<octave>3</octave>
</pitch>
<duration>480</duration>
<voice>1</voice>
<type>quarter</type>
</note>
<note>
<lyric number="1">
<syllabic>single</syllabic>
<text>こ</text>
</lyric>
<pitch>
<step>D</step>
<alter>1</alter>
<octave>3</octave>
</pitch>
<duration>240</duration>
<voice>1</voice>
<type>eighth</type>
</note>
<note>
<lyric number="1">
<syllabic>single</syllabic>
<text>え</text>
</lyric>
<pitch>
<step>C</step>
<alter>1</alter>
<octave>3</octave>
</pitch>
<duration>240</duration>
<voice>1</voice>
<type>eighth</type>
</note>
<note>
<lyric number="1">
<syllabic>single</syllabic>
<text>て</text>
</lyric>
<pitch>
<step>B</step>
<octave>2</octave>
</pitch>
<tie type="start" />
<notations>
<tied type="start" />
</notations>
<duration>240</duration>
<voice>1</voice>
<type>eighth</type>
</note>
</measure>
<measure number="38">
<note>
<pitch>
<step>B</step>
<octave>2</octave>
</pitch>
<tie type="stop" />
<notations>
<tied type="stop" />
</notations>
<duration>480</duration>
<voice>1</voice>
<type>quarter</type>
</note>
<note>
<rest />
<duration>480</duration>
<voice>1</voice>
<type>quarter</type>
</note>
<note>
<lyric number="1">
<syllabic>single</syllabic>
<text>つ</text>
</lyric>
<pitch>
<step>B</step>
<octave>2</octave>
</pitch>
<duration>240</duration>
<voice>1</voice>
<type>eighth</type>
</note>
<note>
<lyric number="1">
<syllabic>single</syllabic>
<text>ら</text>
</lyric>
<pitch>
<step>C</step>
<alter>1</alter>
<octave>3</octave>
</pitch>
<duration>240</duration>
<voice>1</voice>
<type>eighth</type>
</note>
<note>
<lyric number="1">
<syllabic>single</syllabic>
<text>く</text>
</lyric>
<pitch>
<step>D</step>
<alter>1</alter>
<octave>3</octave>
</pitch>
<duration>240</duration>
<voice>1</voice>
<type>eighth</type>
</note>
<note>
<lyric number="1">
<syllabic>single</syllabic>
<text>て</text>
</lyric>
<pitch>
<step>E</step>
<octave>3</octave>
</pitch>
<duration>240</duration>
<voice>1</voice>
<type>eighth</type>
</note>
</measure>
<measure number="39">
<note>
<lyric number="1">
<syllabic>single</syllabic>
<text>も</text>
</lyric>
<pitch>
<step>D</step>
<alter>1</alter>
<octave>3</octave>
</pitch>
<duration>480</duration>
<voice>1</voice>
<type>quarter</type>
</note>
<note>
<rest />
<duration>240</duration>
<voice>1</voice>
<type>eighth</type>
</note>
<note>
<lyric number="1">
<syllabic>single</syllabic>
<text>き</text>
</lyric>
<pitch>
<step>B</step>
<octave>2</octave>
</pitch>
<duration>240</duration>
<voice>1</voice>
<type>eighth</type>
</note>
<note>
<lyric number="1">
<syllabic>single</syllabic>
<text>ず</text>
</lyric>
<pitch>
<step>C</step>
<alter>1</alter>
<octave>3</octave>
</pitch>
<duration>240</duration>
<voice>1</voice>
<type>eighth</type>
</note>
<note>
<lyric number="1">
<syllabic>single</syllabic>
<text>つ</text>
</lyric>
<pitch>
<step>D</step>
<alter>1</alter>
<octave>3</octave>
</pitch>
<duration>240</duration>
<voice>1</voice>
<type>eighth</type>
</note>
<note>
<lyric number="1">
<syllabic>single</syllabic>
<text>い</text>
</lyric>
<pitch>
<step>E</step>
<octave>3</octave>
</pitch>
<duration>240</duration>
<voice>1</voice>
<type>eighth</type>
</note>
<note>
<lyric number="1">
<syllabic>single</syllabic>
<text>て</text>
</lyric>
<pitch>
<step>G</step>
<alter>1</alter>
<octave>3</octave>
</pitch>
<duration>240</duration>
<voice>1</voice>
<type>eighth</type>
</note>
</measure>
<measure number="40">
<note>
<lyric number="1">
<syllabic>single</syllabic>
<text>も</text>
</lyric>
<pitch>
<step>F</step>
<alter>1</alter>
<octave>3</octave>
</pitch>
<duration>480</duration>
<voice>1</voice>
<type>quarter</type>
</note>
<note>
<rest />
<duration>240</duration>
<voice>1</voice>
<type>eighth</type>
</note>
<note>
<lyric number="1">
<syllabic>single</syllabic>
<text>な</text>
</lyric>
<pitch>
<step>F</step>
<alter>1</alter>
<octave>3</octave>
</pitch>
<duration>240</duration>
<voice>1</voice>
<type>eighth</type>
</note>
<note>
<lyric number="1">
<syllabic>single</syllabic>
<text>ん</text>
</lyric>
<pitch>
<step>F</step>
<alter>1</alter>
<octave>3</octave>
</pitch>
<duration>240</duration>
<voice>1</voice>
<type>eighth</type>
</note>
<note>
<lyric number="1">
<syllabic>single</syllabic>
<text>ど</text>
</lyric>
<pitch>
<step>E</step>
<octave>3</octave>
</pitch>
<duration>240</duration>
<voice>1</voice>
<type>eighth</type>
</note>
<note>
<lyric number="1">
<syllabic>single</syllabic>
<text>で</text>
</lyric>
<pitch>
<step>D</step>
<alter>1</alter>
<octave>3</octave>
</pitch>
<duration>240</duration>
<voice>1</voice>
<type>eighth</type>
</note>
<note>
<lyric number="1">
<syllabic>single</syllabic>
<text>も</text>
</lyric>
<pitch>
<step>E</step>
<octave>3</octave>
</pitch>
<duration>240</duration>
<voice>1</voice>
<type>eighth</type>
</note>
</measure>
<measure number="41">
<note>
<lyric number="1">
<syllabic>single</syllabic>
<text>と</text>
</lyric>
<pitch>
<step>F</step>
<alter>1</alter>
<octave>3</octave>
</pitch>
<duration>480</duration>
<voice>1</voice>
<type>quarter</type>
</note>
<note>
<lyric number="1">
<syllabic>single</syllabic>
<text>び</text>
</lyric>
<pitch>
<step>B</step>
<octave>3</octave>
</pitch>
<duration>240</duration>
<voice>1</voice>
<type>eighth</type>
</note>
<note>
<lyric number="1">
<syllabic>single</syllabic>
<text>た</text>
</lyric>
<pitch>
<step>C</step>
<alter>1</alter>
<octave>4</octave>
</pitch>
<duration>480</duration>
<voice>1</voice>
<type>quarter</type>
</note>
<note>
<lyric number="1">
<syllabic>single</syllabic>
<text>つ</text>
</lyric>
<pitch>
<step>D</step>
<alter>1</alter>
<octave>4</octave>
</pitch>
<duration>480</duration>
<voice>1</voice>
<type>quarter</type>
</note>
<note>
<lyric number="1">
<syllabic>single</syllabic>
<text>よ</text>
</lyric>
<pitch>
<step>C</step>
<alter>1</alter>
<octave>4</octave>
</pitch>
<tie type="start" />
<notations>
<tied type="start" />
</notations>
<duration>240</duration>
<voice>1</voice>
<type>eighth</type>
</note>
</measure>
<measure number="42">
<note>
<pitch>
<step>C</step>
<alter>1</alter>
<octave>4</octave>
</pitch>
<tie type="stop" />
<notations>
<tied type="stop" />
</notations>
<duration>1920</duration>
<voice>1</voice>
<type>whole</type>
</note>
</measure>
<measure number="43">
<note>
<rest />
<duration>1920</duration>
<voice>1</voice>
<type>whole</type>
</note>
</measure>
<measure number="44">
<note>
<rest />
<duration>480</duration>
<voice>1</voice>
<type>quarter</type>
</note>
<note>
<rest />
<duration>240</duration>
<voice>1</voice>
<type>eighth</type>
</note>
<note>
<lyric number="1">
<syllabic>single</syllabic>
<text>と</text>
</lyric>
<pitch>
<step>G</step>
<alter>1</alter>
<octave>3</octave>
</pitch>
<duration>240</duration>
<voice>1</voice>
<type>eighth</type>
</note>
<note>
<lyric number="1">
<syllabic>single</syllabic>
<text>ぎ</text>
</lyric>
<pitch>
<step>B</step>
<octave>3</octave>
</pitch>
<duration>240</duration>
<voice>1</voice>
<type>eighth</type>
</note>
<note>
<lyric number="1">
<syllabic>single</syllabic>
<text>す</text>
</lyric>
<pitch>
<step>C</step>
<alter>1</alter>
<octave>4</octave>
</pitch>
<duration>240</duration>
<voice>1</voice>
<type>eighth</type>
</note>
<note>
<lyric number="1">
<syllabic>single</syllabic>
<text>ま</text>
</lyric>
<pitch>
<step>D</step>
<alter>1</alter>
<octave>4</octave>
</pitch>
<duration>240</duration>
<voice>1</voice>
<type>eighth</type>
</note>
<note>
<lyric number="1">
<syllabic>single</syllabic>
<text>し</text>
</lyric>
<pitch>
<step>B</step>
<octave>3</octave>
</pitch>
<duration>240</duration>
<voice>1</voice>
<type>eighth</type>
</note>
</measure>
<measure number="45">
<note>
<lyric number="1">
<syllabic>single</syllabic>
<text>た</text>
</lyric>
<pitch>
<step>F</step>
<alter>1</alter>
<octave>4</octave>
</pitch>
<duration>960</duration>
<voice>1</voice>
<type>half</type>
</note>
<note>
<lyric number="1">
<syllabic>single</syllabic>
<text>そ</text>
</lyric>
<pitch>
<step>G</step>
<alter>1</alter>
<octave>4</octave>
</pitch>
<duration>720</duration>
<voice>1</voice>
<type>quarter</type>
<dot />
</note>
<note>
<lyric number="1">
<syllabic>single</syllabic>
<text>が</text>
</lyric>
<pitch>
<step>C</step>
<alter>1</alter>
<octave>4</octave>
</pitch>
<tie type="start" />
<notations>
<tied type="start" />
</notations>
<duration>240</duration>
<voice>1</voice>
<type>eighth</type>
</note>
</measure>
<measure number="46">
<note>
<pitch>
<step>C</step>
<alter>1</alter>
<octave>4</octave>
</pitch>
<tie type="stop" />
<notations>
<tied type="stop" />
</notations>
<duration>240</duration>
<voice>1</voice>
<type>eighth</type>
</note>
<note>
<lyric number="1">
<syllabic>single</syllabic>
<text>と</text>
</lyric>
<pitch>
<step>B</step>
<octave>3</octave>
</pitch>
<duration>480</duration>
<voice>1</voice>
<type>quarter</type>
</note>
<note>
<rest />
<duration>480</duration>
<voice>1</voice>
<type>quarter</type>
</note>
<note>
<lyric number="1">
<syllabic>single</syllabic>
<text>ひ</text>
</lyric>
<pitch>
<step>B</step>
<octave>3</octave>
</pitch>
<duration>240</duration>
<voice>1</voice>
<type>eighth</type>
</note>
<note>
<lyric number="1">
<syllabic>single</syllabic>
<text>ろ</text>
</lyric>
<pitch>
<step>C</step>
<alter>1</alter>
<octave>4</octave>
</pitch>
<duration>240</duration>
<voice>1</voice>
<type>eighth</type>
</note>
<note>
<lyric number="1">
<syllabic>single</syllabic>
<text>げ</text>
</lyric>
<pitch>
<step>B</step>
<octave>3</octave>
</pitch>
<duration>240</duration>
<voice>1</voice>
<type>eighth</type>
</note>
</measure>
<measure number="47">
<note>
<lyric number="1">
<syllabic>single</syllabic>
<text>た</text>
</lyric>
<pitch>
<step>F</step>
<alter>1</alter>
<octave>4</octave>
</pitch>
<duration>960</duration>
<voice>1</voice>
<type>half</type>
</note>
<note>
<lyric number="1">
<syllabic>single</syllabic>
<text>りょ</text>
</lyric>
<pitch>
<step>G</step>
<alter>1</alter>
<octave>4</octave>
</pitch>
<duration>720</duration>
<voice>1</voice>
<type>quarter</type>
<dot />
</note>
<note>
<lyric number="1">
<syllabic>single</syllabic>
<text>よ</text>
</lyric>
<pitch>
<step>C</step>
<alter>1</alter>
<octave>4</octave>
</pitch>
<tie type="start" />
<notations>
<tied type="start" />
</notations>
<duration>240</duration>
<voice>1</voice>
<type>eighth</type>
</note>
</measure>
<measure number="48">
<note>
<pitch>
<step>C</step>
<alter>1</alter>
<octave>4</octave>
</pitch>
<tie type="stop" />
<notations>
<tied type="stop" />
</notations>
<duration>120</duration>
<voice>1</voice>
<type>16th</type>
</note>
<note>
<lyric number="1">
<syllabic>single</syllabic>
<text>く</text>
</lyric>
<pitch>
<step>C</step>
<alter>1</alter>
<octave>4</octave>
</pitch>
<duration>120</duration>
<voice>1</voice>
<type>16th</type>
</note>
<note>
<lyric number="1">
<syllabic>single</syllabic>
<text>で</text>
</lyric>
<pitch>
<step>B</step>
<octave>3</octave>
</pitch>
<duration>240</duration>
<voice>1</voice>
<type>eighth</type>
</note>
<note>
<rest />
<duration>240</duration>
<voice>1</voice>
<type>eighth</type>
</note>
<note>
<lyric number="1">
<syllabic>single</syllabic>
<text>め</text>
</lyric>
<pitch>
<step>G</step>
<alter>1</alter>
<octave>3</octave>
</pitch>
<duration>240</duration>
<voice>1</voice>
<type>eighth</type>
</note>
<note>
<lyric number="1">
<syllabic>single</syllabic>
<text>の</text>
</lyric>
<pitch>
<step>B</step>
<octave>3</octave>
</pitch>
<duration>240</duration>
<voice>1</voice>
<type>eighth</type>
</note>
<note>
<lyric number="1">
<syllabic>single</syllabic>
<text>ま</text>
</lyric>
<pitch>
<step>C</step>
<alter>1</alter>
<octave>4</octave>
</pitch>
<duration>240</duration>
<voice>1</voice>
<type>eighth</type>
</note>
<note>
<lyric number="1">
<syllabic>single</syllabic>
<text>え</text>
</lyric>
<pitch>
<step>D</step>
<alter>1</alter>
<octave>4</octave>
</pitch>
<duration>240</duration>
<voice>1</voice>
<type>eighth</type>
</note>
<note>
<lyric number="1">
<syllabic>single</syllabic>
<text>の</text>
</lyric>
<pitch>
<step>B</step>
<octave>3</octave>
</pitch>
<tie type="start" />
<notations>
<tied type="start" />
</notations>
<duration>240</duration>
<voice>1</voice>
<type>eighth</type>
</note>
</measure>
<measure number="49">
<note>
<pitch>
<step>B</step>
<octave>3</octave>
</pitch>
<tie type="stop" />
<notations>
<tied type="stop" />
</notations>
<duration>480</duration>
<voice>1</voice>
<type>quarter</type>
</note>
<note>
<rest />
<duration>240</duration>
<voice>1</voice>
<type>eighth</type>
</note>
<note>
<lyric number="1">
<syllabic>single</syllabic>
<text>きょ</text>
</lyric>
<pitch>
<step>G</step>
<alter>1</alter>
<octave>3</octave>
</pitch>
<duration>240</duration>
<voice>1</voice>
<type>eighth</type>
</note>
<note>
<lyric number="1">
<syllabic>single</syllabic>
<text>お</text>
</lyric>
<pitch>
<step>B</step>
<octave>3</octave>
</pitch>
<duration>240</duration>
<voice>1</voice>
<type>eighth</type>
</note>
<note>
<lyric number="1">
<syllabic>single</syllabic>
<text>て</text>
</lyric>
<pitch>
<step>C</step>
<alter>1</alter>
<octave>4</octave>
</pitch>
<duration>240</duration>
<voice>1</voice>
<type>eighth</type>
</note>
<note>
<lyric number="1">
<syllabic>single</syllabic>
<text>き</text>
</lyric>
<pitch>
<step>D</step>
<alter>1</alter>
<octave>4</octave>
</pitch>
<duration>240</duration>
<voice>1</voice>
<type>eighth</type>
</note>
<note>
<lyric number="1">
<syllabic>single</syllabic>
<text>に</text>
</lyric>
<pitch>
<step>B</step>
<octave>3</octave>
</pitch>
<tie type="start" />
<notations>
<tied type="start" />
</notations>
<duration>240</duration>
<voice>1</voice>
<type>eighth</type>
</note>
</measure>
<measure number="50">
<note>
<pitch>
<step>B</step>
<octave>3</octave>
</pitch>
<tie type="stop" />
<notations>
<tied type="stop" />
</notations>
<duration>720</duration>
<voice>1</voice>
<type>quarter</type>
<dot />
</note>
<note>
<rest />
<duration>480</duration>
<voice>1</voice>
<type>quarter</type>
</note>
<note>
<rest />
<duration>240</duration>
<voice>1</voice>
<type>eighth</type>
</note>
<note>
<lyric number="1">
<syllabic>single</syllabic>
<text>く</text>
</lyric>
<pitch>
<step>B</step>
<octave>3</octave>
</pitch>
<duration>240</duration>
<voice>1</voice>
<type>eighth</type>
</note>
<note>
<lyric number="1">
<syllabic>single</syllabic>
<text>ら</text>
</lyric>
<pitch>
<step>B</step>
<octave>3</octave>
</pitch>
<duration>240</duration>
<voice>1</voice>
<type>eighth</type>
</note>
</measure>
<measure number="51">
<note>
<lyric number="1">
<syllabic>single</syllabic>
<text>い</text>
</lyric>
<pitch>
<step>B</step>
<octave>3</octave>
</pitch>
<duration>480</duration>
<voice>1</voice>
<type>quarter</type>
</note>
<note>
<lyric number="1">
<syllabic>single</syllabic>
<text>つ</text>
</lyric>
<pitch>
<step>A</step>
<alter>1</alter>
<octave>3</octave>
</pitch>
<duration>240</duration>
<voice>1</voice>
<type>eighth</type>
</note>
<note>
<lyric number="1">
<syllabic>single</syllabic>
<text>く</text>
</lyric>
<pitch>
<step>B</step>
<octave>3</octave>
</pitch>
<duration>480</duration>
<voice>1</voice>
<type>quarter</type>
</note>
<note>
<lyric number="1">
<syllabic>single</syllabic>
<text>の</text>
</lyric>
<pitch>
<step>C</step>
<alter>1</alter>
<octave>4</octave>
</pitch>
<duration>480</duration>
<voice>1</voice>
<type>quarter</type>
</note>
<note>
<lyric number="1">
<syllabic>single</syllabic>
<text>さ</text>
</lyric>
<pitch>
<step>D</step>
<alter>1</alter>
<octave>4</octave>
</pitch>
<tie type="start" />
<notations>
<tied type="start" />
</notations>
<duration>240</duration>
<voice>1</voice>
<type>eighth</type>
</note>
</measure>
<measure number="52">
<note>
<pitch>
<step>D</step>
<alter>1</alter>
<octave>4</octave>
</pitch>
<tie type="stop" />
<notations>
<tied type="stop" />
</notations>
<duration>240</duration>
<voice>1</voice>
<type>eighth</type>
</note>
<note>
<rest />
<duration>480</duration>
<voice>1</voice>
<type>quarter</type>
</note>
<note>
<lyric number="1">
<syllabic>single</syllabic>
<text>い</text>
</lyric>
<pitch>
<step>G</step>
<alter>1</alter>
<octave>3</octave>
</pitch>
<duration>240</duration>
<voice>1</voice>
<type>eighth</type>
</note>
<note>
<lyric number="1">
<syllabic>single</syllabic>
<text>ち</text>
</lyric>
<pitch>
<step>B</step>
<octave>3</octave>
</pitch>
<duration>240</duration>
<voice>1</voice>
<type>eighth</type>
</note>
<note>
<lyric number="1">
<syllabic>single</syllabic>
<text>びょ</text>
</lyric>
<pitch>
<step>C</step>
<alter>1</alter>
<octave>4</octave>
</pitch>
<duration>240</duration>
<voice>1</voice>
<type>eighth</type>
</note>
<note>
<lyric number="1">
<syllabic>single</syllabic>
<text>お</text>
</lyric>
<pitch>
<step>D</step>
<alter>1</alter>
<octave>4</octave>
</pitch>
<duration>240</duration>
<voice>1</voice>
<type>eighth</type>
</note>
<note>
<lyric number="1">
<syllabic>single</syllabic>
<text>で</text>
</lyric>
<pitch>
<step>B</step>
<octave>3</octave>
</pitch>
<duration>240</duration>
<voice>1</voice>
<type>eighth</type>
</note>
</measure>
<measure number="53">
<note>
<lyric number="1">
<syllabic>single</syllabic>
<text>も</text>
</lyric>
<pitch>
<step>F</step>
<alter>1</alter>
<octave>4</octave>
</pitch>
<duration>960</duration>
<voice>1</voice>
<type>half</type>
</note>
<note>
<lyric number="1">
<syllabic>single</syllabic>
<text>は</text>
</lyric>
<pitch>
<step>G</step>
<alter>1</alter>
<octave>4</octave>
</pitch>
<duration>720</duration>
<voice>1</voice>
<type>quarter</type>
<dot />
</note>
<note>
<lyric number="1">
<syllabic>single</syllabic>
<text>や</text>
</lyric>
<pitch>
<step>C</step>
<alter>1</alter>
<octave>4</octave>
</pitch>
<tie type="start" />
<notations>
<tied type="start" />
</notations>
<duration>240</duration>
<voice>1</voice>
<type>eighth</type>
</note>
</measure>
<measure number="54">
<note>
<pitch>
<step>C</step>
<alter>1</alter>
<octave>4</octave>
</pitch>
<tie type="stop" />
<notations>
<tied type="stop" />
</notations>
<duration>240</duration>
<voice>1</voice>
<type>eighth</type>
</note>
<note>
<lyric number="1">
<syllabic>single</syllabic>
<text>く</text>
</lyric>
<pitch>
<step>B</step>
<octave>3</octave>
</pitch>
<duration>240</duration>
<voice>1</voice>
<type>eighth</type>
</note>
<note>
<rest />
<duration>240</duration>
<voice>1</voice>
<type>eighth</type>
</note>
<note>
<lyric number="1">
<syllabic>single</syllabic>
<text>た</text>
</lyric>
<pitch>
<step>G</step>
<alter>1</alter>
<octave>3</octave>
</pitch>
<duration>240</duration>
<voice>1</voice>
<type>eighth</type>
</note>
<note>
<lyric number="1">
<syllabic>single</syllabic>
<text>か</text>
</lyric>
<pitch>
<step>B</step>
<octave>3</octave>
</pitch>
<duration>240</duration>
<voice>1</voice>
<type>eighth</type>
</note>
<note>
<lyric number="1">
<syllabic>single</syllabic>
<text>い</text>
</lyric>
<pitch>
<step>C</step>
<alter>1</alter>
<octave>4</octave>
</pitch>
<duration>240</duration>
<voice>1</voice>
<type>eighth</type>
</note>
<note>
<lyric number="1">
<syllabic>single</syllabic>
<text>か</text>
</lyric>
<pitch>
<step>D</step>
<alter>1</alter>
<octave>4</octave>
</pitch>
<duration>240</duration>
<voice>1</voice>
<type>eighth</type>
</note>
<note>
<lyric number="1">
<syllabic>single</syllabic>
<text>べ</text>
</lyric>
<pitch>
<step>B</step>
<octave>3</octave>
</pitch>
<duration>240</duration>
<voice>1</voice>
<type>eighth</type>
</note>
</measure>
<measure number="55">
<note>
<lyric number="1">
<syllabic>single</syllabic>
<text>さ</text>
</lyric>
<pitch>
<step>F</step>
<alter>1</alter>
<octave>4</octave>
</pitch>
<duration>960</duration>
<voice>1</voice>
<type>half</type>
</note>
<note>
<lyric number="1">
<syllabic>single</syllabic>
<text>え</text>
</lyric>
<pitch>
<step>G</step>
<alter>1</alter>
<octave>4</octave>
</pitch>
<duration>480</duration>
<voice>1</voice>
<type>quarter</type>
</note>
<note>
<lyric number="1">
<syllabic>single</syllabic>
<text>こ</text>
</lyric>
<pitch>
<step>G</step>
<alter>1</alter>
<octave>4</octave>
</pitch>
<duration>240</duration>
<voice>1</voice>
<type>eighth</type>
</note>
<note>
<lyric number="1">
<syllabic>single</syllabic>
<text>え</text>
</lyric>
<pitch>
<step>C</step>
<alter>1</alter>
<octave>4</octave>
</pitch>
<tie type="start" />
<notations>
<tied type="start" />
</notations>
<duration>240</duration>
<voice>1</voice>
<type>eighth</type>
</note>
</measure>
<measure number="56">
<note>
<pitch>
<step>C</step>
<alter>1</alter>
<octave>4</octave>
</pitch>
<tie type="stop" />
<notations>
<tied type="stop" />
</notations>
<duration>240</duration>
<voice>1</voice>
<type>eighth</type>
</note>
<note>
<lyric number="1">
<syllabic>single</syllabic>
<text>て</text>
</lyric>
<pitch>
<step>B</step>
<octave>3</octave>
</pitch>
<duration>240</duration>
<voice>1</voice>
<type>eighth</type>
</note>
<note>
<rest />
<duration>240</duration>
<voice>1</voice>
<type>eighth</type>
</note>
<note>
<lyric number="1">
<syllabic>single</syllabic>
<text>と</text>
</lyric>
<pitch>
<step>G</step>
<alter>1</alter>
<octave>3</octave>
</pitch>
<duration>240</duration>
<voice>1</voice>
<type>eighth</type>
</note>
<note>
<lyric number="1">
<syllabic>single</syllabic>
<text>ど</text>
</lyric>
<pitch>
<step>B</step>
<octave>3</octave>
</pitch>
<duration>240</duration>
<voice>1</voice>
<type>eighth</type>
</note>
<note>
<lyric number="1">
<syllabic>single</syllabic>
<text>き</text>
</lyric>
<pitch>
<step>C</step>
<alter>1</alter>
<octave>4</octave>
</pitch>
<duration>240</duration>
<voice>1</voice>
<type>eighth</type>
</note>
<note>
<lyric number="1">
<syllabic>single</syllabic>
<text>た</text>
</lyric>
<pitch>
<step>D</step>
<alter>1</alter>
<octave>4</octave>
</pitch>
<duration>240</duration>
<voice>1</voice>
<type>eighth</type>
</note>
<note>
<lyric number="1">
<syllabic>single</syllabic>
<text>い</text>
</lyric>
<pitch>
<step>B</step>
<octave>3</octave>
</pitch>
<tie type="start" />
<notations>
<tied type="start" />
</notations>
<duration>240</duration>
<voice>1</voice>
<type>eighth</type>
</note>
</measure>
<measure number="57">
<note>
<pitch>
<step>B</step>
<octave>3</octave>
</pitch>
<tie type="stop" />
<notations>
<tied type="stop" />
</notations>
<duration>480</duration>
<voice>1</voice>
<type>quarter</type>
</note>
<note>
<rest />
<duration>240</duration>
<voice>1</voice>
<type>eighth</type>
</note>
<note>
<lyric number="1">
<syllabic>single</syllabic>
<text>あ</text>
</lyric>
<pitch>
<step>G</step>
<alter>1</alter>
<octave>3</octave>
</pitch>
<duration>240</duration>
<voice>1</voice>
<type>eighth</type>
</note>
<note>
<lyric number="1">
<syllabic>single</syllabic>
<text>の</text>
</lyric>
<pitch>
<step>B</step>
<octave>3</octave>
</pitch>
<duration>240</duration>
<voice>1</voice>
<type>eighth</type>
</note>
<note>
<lyric number="1">
<syllabic>single</syllabic>
<text>け</text>
</lyric>
<pitch>
<step>C</step>
<alter>1</alter>
<octave>4</octave>
</pitch>
<duration>240</duration>
<voice>1</voice>
<type>eighth</type>
</note>
<note>
<lyric number="1">
<syllabic>single</syllabic>
<text>し</text>
</lyric>
<pitch>
<step>D</step>
<alter>1</alter>
<octave>4</octave>
</pitch>
<duration>240</duration>
<voice>1</voice>
<type>eighth</type>
</note>
<note>
<lyric number="1">
<syllabic>single</syllabic>
<text>き</text>
</lyric>
<pitch>
<step>B</step>
<octave>3</octave>
</pitch>
<tie type="start" />
<notations>
<tied type="start" />
</notations>
<duration>240</duration>
<voice>1</voice>
<type>eighth</type>
</note>
</measure>
<measure number="58">
<note>
<pitch>
<step>B</step>
<octave>3</octave>
</pitch>
<tie type="stop" />
<notations>
<tied type="stop" />
</notations>
<duration>720</duration>
<voice>1</voice>
<type>quarter</type>
<dot />
</note>
<note>
<rest />
<duration>480</duration>
<voice>1</voice>
<type>quarter</type>
</note>
<note>
<rest />
<duration>240</duration>
<voice>1</voice>
<type>eighth</type>
</note>
<note>
<lyric number="1">
<syllabic>single</syllabic>
<text>い</text>
</lyric>
<pitch>
<step>C</step>
<alter>1</alter>
<octave>4</octave>
</pitch>
<duration>480</duration>
<voice>1</voice>
<type>quarter</type>
</note>
</measure>
<measure number="59">
<note>
<lyric number="1">
<syllabic>single</syllabic>
<text>ま</text>
</lyric>
<pitch>
<step>B</step>
<octave>3</octave>
</pitch>
<tie type="start" />
<notations>
<tied type="start" />
</notations>
<duration>960</duration>
<voice>1</voice>
<type>half</type>
</note>
<note>
<pitch>
<step>B</step>
<octave>3</octave>
</pitch>
<tie type="stop" />
<notations>
<tied type="stop" />
</notations>
<duration>240</duration>
<voice>1</voice>
<type>eighth</type>
</note>
<note>
<rest />
<duration>480</duration>
<voice>1</voice>
<type>quarter</type>
</note>
<note>
<lyric number="1">
<syllabic>single</syllabic>
<text>て</text>
</lyric>
<pitch>
<step>B</step>
<octave>3</octave>
</pitch>
<duration>240</duration>
<voice>1</voice>
<type>eighth</type>
</note>
</measure>
<measure number="60">
<note>
<lyric number="1">
<syllabic>single</syllabic>
<text>を</text>
</lyric>
<pitch>
<step>B</step>
<octave>3</octave>
</pitch>
<duration>720</duration>
<voice>1</voice>
<type>quarter</type>
<dot />
</note>
<note>
<lyric number="1">
<syllabic>single</syllabic>
<text>の</text>
</lyric>
<pitch>
<step>A</step>
<alter>1</alter>
<octave>3</octave>
</pitch>
<duration>240</duration>
<voice>1</voice>
<type>eighth</type>
</note>
<note>
<lyric number="1">
<syllabic>single</syllabic>
<text>ば</text>
</lyric>
<pitch>
<step>A</step>
<alter>1</alter>
<octave>3</octave>
</pitch>
<duration>720</duration>
<voice>1</voice>
<type>quarter</type>
<dot />
</note>
<note>
<lyric number="1">
<syllabic>single</syllabic>
<text>し</text>
</lyric>
<pitch>
<step>B</step>
<octave>3</octave>
</pitch>
<duration>240</duration>
<voice>1</voice>
<type>eighth</type>
</note>
</measure>
<measure number="61">
<note>
<lyric number="1">
<syllabic>single</syllabic>
<text>て</text>
</lyric>
<pitch>
<step>B</step>
<octave>3</octave>
</pitch>
<duration>1920</duration>
<voice>1</voice>
<type>whole</type>
</note>
</measure>
<measure number="62">
<note>
<rest />
<duration>1920</duration>
<voice>1</voice>
<type>whole</type>
</note>
</measure>
</part>
</score-partwise>