<?xml version="1.0" encoding="utf-8"?>
<!DOCTYPE score-partwise PUBLIC "-//Recordare//DTD MusicXML 2.0 Partwise//EN"
                                "http://www.musicxml.org/dtds/partwise.dtd">
<score-partwise version="2.0">
<identification>
<encoding>
<software>Sinsy</software>
</encoding>
</identification>
<part-list>
<score-part id="P1">
<part-name>MusicXML Part</part-name>
</score-part>
</part-list>
<part id="P1">
<measure number="1">
<attributes>
<divisions>960</divisions>
</attributes>
<attributes>
<key>
<fifths>0</fifths>
<mode>major</mode>
</key>
</attributes>
<sound tempo="122.0000000000000" />
<direction>
<direction-type>
<metronome>
<beat-unit>quarter</beat-unit>
<per-minute>122.0000000000000</per-minute>
</metronome>
</direction-type>
<sound tempo="122.0000000000000" />
</direction>
<sound tempo="122.0000000000000" />
<direction>
<direction-type>
<metronome>
<beat-unit>quarter</beat-unit>
<per-minute>122.0000000000000</per-minute>
</metronome>
</direction-type>
<sound tempo="122.0000000000000" />
</direction>
<attributes>
<time>
<beats>4</beats>
<beat-type>4</beat-type>
</time>
</attributes>
<note>
<rest />
<duration>3840</duration>
</note>
</measure>
<measure number="2">
<note>
<rest />
<duration>3840</duration>
</note>
</measure>
<measure number="3">
<note>
<rest />
<duration>3840</duration>
</note>
</measure>
<measure number="4">
<note>
<rest />
<duration>3840</duration>
</note>
</measure>
<measure number="5">
<note>
<pitch>
<step>D</step>
<octave>3</octave>
</pitch>
<duration>640</duration>
<lyric>
<syllabic>single</syllabic>
<text>あ</text>
</lyric>
</note>
<note>
<pitch>
<step>D</step>
<octave>3</octave>
</pitch>
<duration>320</duration>
<lyric>
<syllabic>single</syllabic>
<text>め</text>
</lyric>
</note>
<note>
<pitch>
<step>D</step>
<octave>3</octave>
</pitch>
<duration>640</duration>
<lyric>
<syllabic>single</syllabic>
<text>あ</text>
</lyric>
</note>
<note>
<pitch>
<step>E</step>
<octave>3</octave>
</pitch>
<duration>320</duration>
<lyric>
<syllabic>single</syllabic>
<text>め</text>
</lyric>
</note>
<note>
<pitch>
<step>F</step>
<alter>1</alter>
<octave>3</octave>
</pitch>
<duration>600</duration>
<lyric>
<syllabic>single</syllabic>
<text>ふ</text>
</lyric>
</note>
<note>
<pitch>
<step>E</step>
<octave>3</octave>
</pitch>
<duration>360</duration>
<lyric>
<syllabic>single</syllabic>
<text>れ</text>
</lyric>
</note>
<note>
<pitch>
<step>A</step>
<octave>3</octave>
</pitch>
<duration>600</duration>
<lyric>
<syllabic>single</syllabic>
<text>ふ</text>
</lyric>
</note>
<note>
<pitch>
<step>F</step>
<alter>1</alter>
<octave>3</octave>
</pitch>
<duration>360</duration>
<lyric>
<syllabic>single</syllabic>
<text>れ</text>
</lyric>
</note>
</measure>
<measure number="6">
<note>
<pitch>
<step>D</step>
<octave>4</octave>
</pitch>
<duration>480</duration>
<lyric>
<syllabic>single</syllabic>
<text>か</text>
</lyric>
</note>
<note>
<pitch>
<step>B</step>
<octave>3</octave>
</pitch>
<duration>480</duration>
<lyric>
<syllabic>single</syllabic>
<text>あ</text>
</lyric>
</note>
<note>
<pitch>
<step>A</step>
<octave>3</octave>
</pitch>
<duration>600</duration>
<lyric>
<syllabic>single</syllabic>
<text>さ</text>
</lyric>
</note>
<note>
<pitch>
<step>F</step>
<alter>1</alter>
<octave>3</octave>
</pitch>
<duration>360</duration>
<lyric>
<syllabic>single</syllabic>
<text>ん</text>
</lyric>
</note>
<note>
<pitch>
<step>A</step>
<octave>3</octave>
</pitch>
<duration>800</duration>
<lyric>
<syllabic>single</syllabic>
<text>が</text>
</lyric>
</note>
<note>
<rest />
<duration>1120</duration>
</note>
</measure>
<measure number="7">
<note>
<pitch>
<step>D</step>
<octave>3</octave>
</pitch>
<duration>640</duration>
<lyric>
<syllabic>single</syllabic>
<text>じゃ</text>
</lyric>
</note>
<note>
<pitch>
<step>D</step>
<octave>3</octave>
</pitch>
<duration>320</duration>
<lyric>
<syllabic>single</syllabic>
<text>の</text>
</lyric>
</note>
<note>
<pitch>
<step>D</step>
<octave>3</octave>
</pitch>
<duration>600</duration>
<lyric>
<syllabic>single</syllabic>
<text>め</text>
</lyric>
</note>
<note>
<pitch>
<step>E</step>
<octave>3</octave>
</pitch>
<duration>360</duration>
<lyric>
<syllabic>single</syllabic>
<text>で</text>
</lyric>
</note>
<note>
<pitch>
<step>F</step>
<alter>1</alter>
<octave>3</octave>
</pitch>
<duration>600</duration>
<lyric>
<syllabic>single</syllabic>
<text>お</text>
</lyric>
</note>
<note>
<pitch>
<step>A</step>
<octave>3</octave>
</pitch>
<duration>360</duration>
<lyric>
<syllabic>single</syllabic>
<text>む</text>
</lyric>
</note>
<note>
<pitch>
<step>B</step>
<octave>3</octave>
</pitch>
<duration>640</duration>
<lyric>
<syllabic>single</syllabic>
<text>か</text>
</lyric>
</note>
<note>
<pitch>
<step>B</step>
<octave>3</octave>
</pitch>
<duration>320</duration>
<lyric>
<syllabic>single</syllabic>
<text>え</text>
</lyric>
</note>
</measure>
<measure number="8">
<note>
<pitch>
<step>F</step>
<alter>1</alter>
<octave>3</octave>
</pitch>
<duration>600</duration>
<lyric>
<syllabic>single</syllabic>
<text>う</text>
</lyric>
</note>
<note>
<pitch>
<step>F</step>
<alter>1</alter>
<octave>3</octave>
</pitch>
<duration>360</duration>
<lyric>
<syllabic>single</syllabic>
<text>れ</text>
</lyric>
</note>
<note>
<pitch>
<step>F</step>
<alter>1</alter>
<octave>3</octave>
</pitch>
<duration>600</duration>
<lyric>
<syllabic>single</syllabic>
<text>し</text>
</lyric>
</note>
<note>
<pitch>
<step>E</step>
<octave>3</octave>
</pitch>
<duration>360</duration>
<lyric>
<syllabic>single</syllabic>
<text>い</text>
</lyric>
</note>
<note>
<pitch>
<step>D</step>
<octave>3</octave>
</pitch>
<duration>800</duration>
<lyric>
<syllabic>single</syllabic>
<text>な</text>
</lyric>
</note>
<note>
<rest />
<duration>1120</duration>
</note>
</measure>
<measure number="9">
<note>
<pitch>
<step>D</step>
<octave>4</octave>
</pitch>
<duration>640</duration>
<lyric>
<syllabic>single</syllabic>
<text>ぴっ</text>
</lyric>
</note>
<note>
<pitch>
<step>B</step>
<octave>3</octave>
</pitch>
<duration>320</duration>
<lyric>
<syllabic>single</syllabic>
<text>ち</text>
</lyric>
</note>
<note>
<pitch>
<step>D</step>
<octave>4</octave>
</pitch>
<duration>640</duration>
<lyric>
<syllabic>single</syllabic>
<text>ぴっ</text>
</lyric>
</note>
<note>
<pitch>
<step>B</step>
<octave>3</octave>
</pitch>
<duration>320</duration>
<lyric>
<syllabic>single</syllabic>
<text>ち</text>
</lyric>
</note>
<note>
<pitch>
<step>A</step>
<octave>3</octave>
</pitch>
<duration>640</duration>
<lyric>
<syllabic>single</syllabic>
<text>ちゃっ</text>
</lyric>
</note>
<note>
<pitch>
<step>F</step>
<alter>1</alter>
<octave>3</octave>
</pitch>
<duration>320</duration>
<lyric>
<syllabic>single</syllabic>
<text>ぷ</text>
</lyric>
</note>
<note>
<pitch>
<step>A</step>
<octave>3</octave>
</pitch>
<duration>640</duration>
<lyric>
<syllabic>single</syllabic>
<text>ちゃっ</text>
</lyric>
</note>
<note>
<pitch>
<step>F</step>
<alter>1</alter>
<octave>3</octave>
</pitch>
<duration>320</duration>
<lyric>
<syllabic>single</syllabic>
<text>ぷ</text>
</lyric>
</note>
</measure>
<measure number="10">
<note>
<pitch>
<step>A</step>
<octave>3</octave>
</pitch>
<duration>360</duration>
<lyric>
<syllabic>single</syllabic>
<text>ら</text>
</lyric>
</note>
<note>
<pitch>
<step>A</step>
<octave>3</octave>
</pitch>
<duration>600</duration>
<lyric>
<syllabic>single</syllabic>
<text>ん</text>
</lyric>
</note>
<note>
<pitch>
<step>D</step>
<octave>4</octave>
</pitch>
<duration>480</duration>
<lyric>
<syllabic>single</syllabic>
<text>ら</text>
</lyric>
</note>
<note>
<pitch>
<step>D</step>
<octave>4</octave>
</pitch>
<duration>480</duration>
<lyric>
<syllabic>single</syllabic>
<text>ん</text>
</lyric>
</note>
<note>
<pitch>
<step>D</step>
<octave>4</octave>
</pitch>
<duration>360</duration>
<lyric>
<syllabic>single</syllabic>
<text>ら</text>
</lyric>
</note>
<note>
<pitch>
<step>D</step>
<octave>4</octave>
</pitch>
<duration>240</duration>
<lyric>
<syllabic>single</syllabic>
<text>ん</text>
</lyric>
</note>
<note>
<rest />
<duration>1320</duration>
</note>
</measure>
<measure number="11">
<note>
<pitch>
<step>D</step>
<octave>3</octave>
</pitch>
<duration>600</duration>
<lyric>
<syllabic>single</syllabic>
<text>か</text>
</lyric>
</note>
<note>
<pitch>
<step>D</step>
<octave>3</octave>
</pitch>
<duration>360</duration>
<lyric>
<syllabic>single</syllabic>
<text>け</text>
</lyric>
</note>
<note>
<pitch>
<step>D</step>
<octave>3</octave>
</pitch>
<duration>600</duration>
<lyric>
<syllabic>single</syllabic>
<text>ま</text>
</lyric>
</note>
<note>
<pitch>
<step>E</step>
<octave>3</octave>
</pitch>
<duration>360</duration>
<lyric>
<syllabic>single</syllabic>
<text>しょ</text>
</lyric>
</note>
<note>
<pitch>
<step>F</step>
<alter>1</alter>
<octave>3</octave>
</pitch>
<duration>600</duration>
<lyric>
<syllabic>single</syllabic>
<text>か</text>
</lyric>
</note>
<note>
<pitch>
<step>E</step>
<octave>3</octave>
</pitch>
<duration>360</duration>
<lyric>
<syllabic>single</syllabic>
<text>ば</text>
</lyric>
</note>
<note>
<pitch>
<step>A</step>
<octave>3</octave>
</pitch>
<duration>600</duration>
<lyric>
<syllabic>single</syllabic>
<text>ん</text>
</lyric>
</note>
<note>
<pitch>
<step>F</step>
<alter>1</alter>
<octave>3</octave>
</pitch>
<duration>360</duration>
<lyric>
<syllabic>single</syllabic>
<text>うぉ</text>
</lyric>
</note>
</measure>
<measure number="12">
<note>
<pitch>
<step>D</step>
<octave>4</octave>
</pitch>
<duration>640</duration>
<lyric>
<syllabic>single</syllabic>
<text>か</text>
</lyric>
</note>
<note>
<pitch>
<step>B</step>
<octave>3</octave>
</pitch>
<duration>320</duration>
<lyric>
<syllabic>single</syllabic>
<text>あ</text>
</lyric>
</note>
<note>
<pitch>
<step>A</step>
<octave>3</octave>
</pitch>
<duration>600</duration>
<lyric>
<syllabic>single</syllabic>
<text>さ</text>
</lyric>
</note>
<note>
<pitch>
<step>F</step>
<alter>1</alter>
<octave>3</octave>
</pitch>
<duration>360</duration>
<lyric>
<syllabic>single</syllabic>
<text>ん</text>
</lyric>
</note>
<note>
<pitch>
<step>A</step>
<octave>3</octave>
</pitch>
<duration>840</duration>
<lyric>
<syllabic>single</syllabic>
<text>の</text>
</lyric>
</note>
<note>
<rest />
<duration>1080</duration>
</note>
</measure>
<measure number="13">
<note>
<pitch>
<step>D</step>
<octave>3</octave>
</pitch>
<duration>640</duration>
<lyric>
<syllabic>single</syllabic>
<text>あ</text>
</lyric>
</note>
<note>
<pitch>
<step>D</step>
<octave>3</octave>
</pitch>
<duration>320</duration>
<lyric>
<syllabic>single</syllabic>
<text>と</text>
</lyric>
</note>
<note>
<pitch>
<step>D</step>
<octave>3</octave>
</pitch>
<duration>640</duration>
<lyric>
<syllabic>single</syllabic>
<text>か</text>
</lyric>
</note>
<note>
<pitch>
<step>E</step>
<octave>3</octave>
</pitch>
<duration>320</duration>
<lyric>
<syllabic>single</syllabic>
<text>ら</text>
</lyric>
</note>
<note>
<pitch>
<step>F</step>
<alter>1</alter>
<octave>3</octave>
</pitch>
<duration>640</duration>
<lyric>
<syllabic>single</syllabic>
<text>ゆ</text>
</lyric>
</note>
<note>
<pitch>
<step>A</step>
<octave>3</octave>
</pitch>
<duration>320</duration>
<lyric>
<syllabic>single</syllabic>
<text>こ</text>
</lyric>
</note>
<note>
<pitch>
<step>B</step>
<octave>3</octave>
</pitch>
<duration>640</duration>
<lyric>
<syllabic>single</syllabic>
<text>ゆ</text>
</lyric>
</note>
<note>
<pitch>
<step>B</step>
<octave>3</octave>
</pitch>
<duration>320</duration>
<lyric>
<syllabic>single</syllabic>
<text>こ</text>
</lyric>
</note>
</measure>
<measure number="14">
<note>
<pitch>
<step>F</step>
<alter>1</alter>
<octave>3</octave>
</pitch>
<duration>640</duration>
<lyric>
<syllabic>single</syllabic>
<text>か</text>
</lyric>
</note>
<note>
<pitch>
<step>F</step>
<alter>1</alter>
<octave>3</octave>
</pitch>
<duration>320</duration>
<lyric>
<syllabic>single</syllabic>
<text>ね</text>
</lyric>
</note>
<note>
<pitch>
<step>F</step>
<alter>1</alter>
<octave>3</octave>
</pitch>
<duration>640</duration>
<lyric>
<syllabic>single</syllabic>
<text>が</text>
</lyric>
</note>
<note>
<pitch>
<step>E</step>
<octave>3</octave>
</pitch>
<duration>320</duration>
<lyric>
<syllabic>single</syllabic>
<text>な</text>
</lyric>
</note>
<note>
<pitch>
<step>D</step>
<octave>3</octave>
</pitch>
<duration>800</duration>
<lyric>
<syllabic>single</syllabic>
<text>る</text>
</lyric>
</note>
<note>
<rest />
<duration>1120</duration>
</note>
</measure>
<measure number="15">
<note>
<pitch>
<step>D</step>
<octave>4</octave>
</pitch>
<duration>640</duration>
<lyric>
<syllabic>single</syllabic>
<text>ぴっ</text>
</lyric>
</note>
<note>
<pitch>
<step>B</step>
<octave>3</octave>
</pitch>
<duration>320</duration>
<lyric>
<syllabic>single</syllabic>
<text>ち</text>
</lyric>
</note>
<note>
<pitch>
<step>D</step>
<octave>4</octave>
</pitch>
<duration>640</duration>
<lyric>
<syllabic>single</syllabic>
<text>ぴっ</text>
</lyric>
</note>
<note>
<pitch>
<step>B</step>
<octave>3</octave>
</pitch>
<duration>320</duration>
<lyric>
<syllabic>single</syllabic>
<text>ち</text>
</lyric>
</note>
<note>
<pitch>
<step>A</step>
<octave>3</octave>
</pitch>
<duration>640</duration>
<lyric>
<syllabic>single</syllabic>
<text>ちゃっ</text>
</lyric>
</note>
<note>
<pitch>
<step>F</step>
<alter>1</alter>
<octave>3</octave>
</pitch>
<duration>320</duration>
<lyric>
<syllabic>single</syllabic>
<text>ぷ</text>
</lyric>
</note>
<note>
<pitch>
<step>A</step>
<octave>3</octave>
</pitch>
<duration>640</duration>
<lyric>
<syllabic>single</syllabic>
<text>ちゃっ</text>
</lyric>
</note>
<note>
<pitch>
<step>F</step>
<alter>1</alter>
<octave>3</octave>
</pitch>
<duration>320</duration>
<lyric>
<syllabic>single</syllabic>
<text>ぷ</text>
</lyric>
</note>
</measure>
<measure number="16">
<note>
<pitch>
<step>A</step>
<octave>3</octave>
</pitch>
<duration>360</duration>
<lyric>
<syllabic>single</syllabic>
<text>ら</text>
</lyric>
</note>
<note>
<pitch>
<step>A</step>
<octave>3</octave>
</pitch>
<duration>600</duration>
<lyric>
<syllabic>single</syllabic>
<text>ん</text>
</lyric>
</note>
<note>
<pitch>
<step>D</step>
<octave>4</octave>
</pitch>
<duration>480</duration>
<lyric>
<syllabic>single</syllabic>
<text>ら</text>
</lyric>
</note>
<note>
<pitch>
<step>D</step>
<octave>4</octave>
</pitch>
<duration>480</duration>
<lyric>
<syllabic>single</syllabic>
<text>ん</text>
</lyric>
</note>
<note>
<pitch>
<step>D</step>
<octave>4</octave>
</pitch>
<duration>360</duration>
<lyric>
<syllabic>single</syllabic>
<text>ら</text>
</lyric>
</note>
<note>
<pitch>
<step>D</step>
<octave>4</octave>
</pitch>
<duration>240</duration>
<lyric>
<syllabic>single</syllabic>
<text>ん</text>
</lyric>
</note>
<note>
<rest />
<duration>1320</duration>
</note>
</measure>
<measure number="17">
<note>
<pitch>
<step>D</step>
<octave>3</octave>
</pitch>
<duration>600</duration>
<lyric>
<syllabic>single</syllabic>
<text>あ</text>
</lyric>
</note>
<note>
<pitch>
<step>D</step>
<octave>3</octave>
</pitch>
<duration>360</duration>
<lyric>
<syllabic>single</syllabic>
<text>ら</text>
</lyric>
</note>
<note>
<pitch>
<step>D</step>
<octave>3</octave>
</pitch>
<duration>600</duration>
<lyric>
<syllabic>single</syllabic>
<text>あ</text>
</lyric>
</note>
<note>
<pitch>
<step>E</step>
<octave>3</octave>
</pitch>
<duration>360</duration>
<lyric>
<syllabic>single</syllabic>
<text>ら</text>
</lyric>
</note>
<note>
<pitch>
<step>F</step>
<alter>1</alter>
<octave>3</octave>
</pitch>
<duration>600</duration>
<lyric>
<syllabic>single</syllabic>
<text>あ</text>
</lyric>
</note>
<note>
<pitch>
<step>E</step>
<octave>3</octave>
</pitch>
<duration>360</duration>
<lyric>
<syllabic>single</syllabic>
<text>の</text>
</lyric>
</note>
<note>
<pitch>
<step>A</step>
<octave>3</octave>
</pitch>
<duration>600</duration>
<lyric>
<syllabic>single</syllabic>
<text>こ</text>
</lyric>
</note>
<note>
<pitch>
<step>F</step>
<alter>1</alter>
<octave>3</octave>
</pitch>
<duration>360</duration>
<lyric>
<syllabic>single</syllabic>
<text>わ</text>
</lyric>
</note>
</measure>
<measure number="18">
<note>
<pitch>
<step>D</step>
<octave>4</octave>
</pitch>
<duration>640</duration>
<lyric>
<syllabic>single</syllabic>
<text>ず</text>
</lyric>
</note>
<note>
<pitch>
<step>B</step>
<octave>3</octave>
</pitch>
<duration>320</duration>
<lyric>
<syllabic>single</syllabic>
<text>ぶ</text>
</lyric>
</note>
<note>
<pitch>
<step>A</step>
<octave>3</octave>
</pitch>
<duration>600</duration>
<lyric>
<syllabic>single</syllabic>
<text>ぬ</text>
</lyric>
</note>
<note>
<pitch>
<step>F</step>
<alter>1</alter>
<octave>3</octave>
</pitch>
<duration>360</duration>
<lyric>
<syllabic>single</syllabic>
<text>れ</text>
</lyric>
</note>
<note>
<pitch>
<step>A</step>
<octave>3</octave>
</pitch>
<duration>840</duration>
<lyric>
<syllabic>single</syllabic>
<text>だ</text>
</lyric>
</note>
<note>
<rest />
<duration>1080</duration>
</note>
</measure>
<measure number="19">
<note>
<pitch>
<step>D</step>
<octave>3</octave>
</pitch>
<duration>640</duration>
<lyric>
<syllabic>single</syllabic>
<text>や</text>
</lyric>
</note>
<note>
<pitch>
<step>D</step>
<octave>3</octave>
</pitch>
<duration>320</duration>
<lyric>
<syllabic>single</syllabic>
<text>な</text>
</lyric>
</note>
<note>
<pitch>
<step>D</step>
<octave>3</octave>
</pitch>
<duration>640</duration>
<lyric>
<syllabic>single</syllabic>
<text>ぎ</text>
</lyric>
</note>
<note>
<pitch>
<step>E</step>
<octave>3</octave>
</pitch>
<duration>320</duration>
<lyric>
<syllabic>single</syllabic>
<text>の</text>
</lyric>
</note>
<note>
<pitch>
<step>F</step>
<alter>1</alter>
<octave>3</octave>
</pitch>
<duration>640</duration>
<lyric>
<syllabic>single</syllabic>
<text>ね</text>
</lyric>
</note>
<note>
<pitch>
<step>A</step>
<octave>3</octave>
</pitch>
<duration>320</duration>
<lyric>
<syllabic>single</syllabic>
<text>か</text>
</lyric>
</note>
<note>
<pitch>
<step>B</step>
<octave>3</octave>
</pitch>
<duration>640</duration>
<lyric>
<syllabic>single</syllabic>
<text>た</text>
</lyric>
</note>
<note>
<pitch>
<step>B</step>
<octave>3</octave>
</pitch>
<duration>320</duration>
<lyric>
<syllabic>single</syllabic>
<text>で</text>
</lyric>
</note>
</measure>
<measure number="20">
<note>
<pitch>
<step>F</step>
<alter>1</alter>
<octave>3</octave>
</pitch>
<duration>640</duration>
<lyric>
<syllabic>single</syllabic>
<text>な</text>
</lyric>
</note>
<note>
<pitch>
<step>F</step>
<alter>1</alter>
<octave>3</octave>
</pitch>
<duration>320</duration>
<lyric>
<syllabic>single</syllabic>
<text>い</text>
</lyric>
</note>
<note>
<pitch>
<step>F</step>
<alter>1</alter>
<octave>3</octave>
</pitch>
<duration>640</duration>
<lyric>
<syllabic>single</syllabic>
<text>て</text>
</lyric>
</note>
<note>
<pitch>
<step>E</step>
<octave>3</octave>
</pitch>
<duration>320</duration>
<lyric>
<syllabic>single</syllabic>
<text>い</text>
</lyric>
</note>
<note>
<pitch>
<step>D</step>
<octave>3</octave>
</pitch>
<duration>800</duration>
<lyric>
<syllabic>single</syllabic>
<text>る</text>
</lyric>
</note>
<note>
<rest />
<duration>1120</duration>
</note>
</measure>
<measure number="21">
<note>
<pitch>
<step>D</step>
<octave>4</octave>
</pitch>
<duration>640</duration>
<lyric>
<syllabic>single</syllabic>
<text>ぴっ</text>
</lyric>
</note>
<note>
<pitch>
<step>B</step>
<octave>3</octave>
</pitch>
<duration>320</duration>
<lyric>
<syllabic>single</syllabic>
<text>ち</text>
</lyric>
</note>
<note>
<pitch>
<step>D</step>
<octave>4</octave>
</pitch>
<duration>640</duration>
<lyric>
<syllabic>single</syllabic>
<text>ぴっ</text>
</lyric>
</note>
<note>
<pitch>
<step>B</step>
<octave>3</octave>
</pitch>
<duration>320</duration>
<lyric>
<syllabic>single</syllabic>
<text>ち</text>
</lyric>
</note>
<note>
<pitch>
<step>A</step>
<octave>3</octave>
</pitch>
<duration>640</duration>
<lyric>
<syllabic>single</syllabic>
<text>ちゃっ</text>
</lyric>
</note>
<note>
<pitch>
<step>F</step>
<alter>1</alter>
<octave>3</octave>
</pitch>
<duration>320</duration>
<lyric>
<syllabic>single</syllabic>
<text>ぷ</text>
</lyric>
</note>
<note>
<pitch>
<step>A</step>
<octave>3</octave>
</pitch>
<duration>640</duration>
<lyric>
<syllabic>single</syllabic>
<text>ちゃっ</text>
</lyric>
</note>
<note>
<pitch>
<step>F</step>
<alter>1</alter>
<octave>3</octave>
</pitch>
<duration>320</duration>
<lyric>
<syllabic>single</syllabic>
<text>ぷ</text>
</lyric>
</note>
</measure>
<measure number="22">
<note>
<pitch>
<step>A</step>
<octave>3</octave>
</pitch>
<duration>360</duration>
<lyric>
<syllabic>single</syllabic>
<text>ら</text>
</lyric>
</note>
<note>
<pitch>
<step>A</step>
<octave>3</octave>
</pitch>
<duration>600</duration>
<lyric>
<syllabic>single</syllabic>
<text>ん</text>
</lyric>
</note>
<note>
<pitch>
<step>D</step>
<octave>4</octave>
</pitch>
<duration>480</duration>
<lyric>
<syllabic>single</syllabic>
<text>ら</text>
</lyric>
</note>
<note>
<pitch>
<step>D</step>
<octave>4</octave>
</pitch>
<duration>480</duration>
<lyric>
<syllabic>single</syllabic>
<text>ん</text>
</lyric>
</note>
<note>
<pitch>
<step>D</step>
<octave>4</octave>
</pitch>
<duration>360</duration>
<lyric>
<syllabic>single</syllabic>
<text>ら</text>
</lyric>
</note>
<note>
<pitch>
<step>D</step>
<octave>4</octave>
</pitch>
<duration>240</duration>
<lyric>
<syllabic>single</syllabic>
<text>ん</text>
</lyric>
</note>
<note>
<rest />
<duration>1320</duration>
</note>
</measure>
<measure number="23">
<note>
<pitch>
<step>D</step>
<octave>3</octave>
</pitch>
<duration>960</duration>
<lyric>
<syllabic>single</syllabic>
<text>か</text>
</lyric>
</note>
<note>
<pitch>
<step>D</step>
<octave>3</octave>
</pitch>
<duration>600</duration>
<lyric>
<syllabic>single</syllabic>
<text>さ</text>
</lyric>
</note>
<note>
<pitch>
<step>E</step>
<octave>3</octave>
</pitch>
<duration>360</duration>
<lyric>
<syllabic>single</syllabic>
<text>ん</text>
</lyric>
</note>
<note>
<pitch>
<step>F</step>
<alter>1</alter>
<octave>3</octave>
</pitch>
<duration>600</duration>
<lyric>
<syllabic>single</syllabic>
<text>ぼ</text>
</lyric>
</note>
<note>
<pitch>
<step>E</step>
<octave>3</octave>
</pitch>
<duration>360</duration>
<lyric>
<syllabic>single</syllabic>
<text>く</text>
</lyric>
</note>
<note>
<pitch>
<step>A</step>
<octave>3</octave>
</pitch>
<duration>600</duration>
<lyric>
<syllabic>single</syllabic>
<text>の</text>
</lyric>
</note>
<note>
<pitch>
<step>F</step>
<alter>1</alter>
<octave>3</octave>
</pitch>
<duration>360</duration>
<lyric>
<syllabic>single</syllabic>
<text>お</text>
</lyric>
</note>
</measure>
<measure number="24">
<note>
<pitch>
<step>D</step>
<octave>4</octave>
</pitch>
<duration>640</duration>
<lyric>
<syllabic>single</syllabic>
<text>か</text>
</lyric>
</note>
<note>
<pitch>
<step>B</step>
<octave>3</octave>
</pitch>
<duration>320</duration>
<lyric>
<syllabic>single</syllabic>
<text>し</text>
</lyric>
</note>
<note>
<pitch>
<step>A</step>
<octave>3</octave>
</pitch>
<duration>600</duration>
<lyric>
<syllabic>single</syllabic>
<text>ま</text>
</lyric>
</note>
<note>
<pitch>
<step>F</step>
<alter>1</alter>
<octave>3</octave>
</pitch>
<duration>360</duration>
<lyric>
<syllabic>single</syllabic>
<text>しょ</text>
</lyric>
</note>
<note>
<pitch>
<step>A</step>
<octave>3</octave>
</pitch>
<duration>840</duration>
<lyric>
<syllabic>single</syllabic>
<text>か</text>
</lyric>
</note>
<note>
<rest />
<duration>1080</duration>
</note>
</measure>
<measure number="25">
<note>
<pitch>
<step>D</step>
<octave>3</octave>
</pitch>
<duration>640</duration>
<lyric>
<syllabic>single</syllabic>
<text>き</text>
</lyric>
</note>
<note>
<pitch>
<step>D</step>
<octave>3</octave>
</pitch>
<duration>320</duration>
<lyric>
<syllabic>single</syllabic>
<text>み</text>
</lyric>
</note>
<note>
<pitch>
<step>D</step>
<octave>3</octave>
</pitch>
<duration>640</duration>
<lyric>
<syllabic>single</syllabic>
<text>き</text>
</lyric>
</note>
<note>
<pitch>
<step>E</step>
<octave>3</octave>
</pitch>
<duration>320</duration>
<lyric>
<syllabic>single</syllabic>
<text>み</text>
</lyric>
</note>
<note>
<pitch>
<step>F</step>
<alter>1</alter>
<octave>3</octave>
</pitch>
<duration>640</duration>
<lyric>
<syllabic>single</syllabic>
<text>こ</text>
</lyric>
</note>
<note>
<pitch>
<step>A</step>
<octave>3</octave>
</pitch>
<duration>320</duration>
<lyric>
<syllabic>single</syllabic>
<text>の</text>
</lyric>
</note>
<note>
<pitch>
<step>B</step>
<octave>3</octave>
</pitch>
<duration>640</duration>
<lyric>
<syllabic>single</syllabic>
<text>か</text>
</lyric>
</note>
<note>
<pitch>
<step>B</step>
<octave>3</octave>
</pitch>
<duration>320</duration>
<lyric>
<syllabic>single</syllabic>
<text>さ</text>
</lyric>
</note>
</measure>
<measure number="26">
<note>
<pitch>
<step>F</step>
<alter>1</alter>
<octave>3</octave>
</pitch>
<duration>640</duration>
<lyric>
<syllabic>single</syllabic>
<text>さ</text>
</lyric>
</note>
<note>
<pitch>
<step>F</step>
<alter>1</alter>
<octave>3</octave>
</pitch>
<duration>320</duration>
<lyric>
<syllabic>single</syllabic>
<text>し</text>
</lyric>
</note>
<note>
<pitch>
<step>F</step>
<alter>1</alter>
<octave>3</octave>
</pitch>
<duration>640</duration>
<lyric>
<syllabic>single</syllabic>
<text>た</text>
</lyric>
</note>
<note>
<pitch>
<step>E</step>
<octave>3</octave>
</pitch>
<duration>320</duration>
<lyric>
<syllabic>single</syllabic>
<text>ま</text>
</lyric>
</note>
<note>
<pitch>
<step>D</step>
<octave>3</octave>
</pitch>
<duration>800</duration>
<lyric>
<syllabic>single</syllabic>
<text>え</text>
</lyric>
</note>
<note>
<rest />
<duration>1120</duration>
</note>
</measure>
<measure number="27">
<note>
<pitch>
<step>D</step>
<octave>4</octave>
</pitch>
<duration>640</duration>
<lyric>
<syllabic>single</syllabic>
<text>ぴっ</text>
</lyric>
</note>
<note>
<pitch>
<step>B</step>
<octave>3</octave>
</pitch>
<duration>320</duration>
<lyric>
<syllabic>single</syllabic>
<text>ち</text>
</lyric>
</note>
<note>
<pitch>
<step>D</step>
<octave>4</octave>
</pitch>
<duration>640</duration>
<lyric>
<syllabic>single</syllabic>
<text>ぴっ</text>
</lyric>
</note>
<note>
<pitch>
<step>B</step>
<octave>3</octave>
</pitch>
<duration>320</duration>
<lyric>
<syllabic>single</syllabic>
<text>ち</text>
</lyric>
</note>
<note>
<pitch>
<step>A</step>
<octave>3</octave>
</pitch>
<duration>640</duration>
<lyric>
<syllabic>single</syllabic>
<text>ちゃっ</text>
</lyric>
</note>
<note>
<pitch>
<step>F</step>
<alter>1</alter>
<octave>3</octave>
</pitch>
<duration>320</duration>
<lyric>
<syllabic>single</syllabic>
<text>ぷ</text>
</lyric>
</note>
<note>
<pitch>
<step>A</step>
<octave>3</octave>
</pitch>
<duration>640</duration>
<lyric>
<syllabic>single</syllabic>
<text>ちゃっ</text>
</lyric>
</note>
<note>
<pitch>
<step>F</step>
<alter>1</alter>
<octave>3</octave>
</pitch>
<duration>320</duration>
<lyric>
<syllabic>single</syllabic>
<text>ぷ</text>
</lyric>
</note>
</measure>
<measure number="28">
<note>
<pitch>
<step>A</step>
<octave>3</octave>
</pitch>
<duration>360</duration>
<lyric>
<syllabic>single</syllabic>
<text>ら</text>
</lyric>
</note>
<note>
<pitch>
<step>A</step>
<octave>3</octave>
</pitch>
<duration>600</duration>
<lyric>
<syllabic>single</syllabic>
<text>ん</text>
</lyric>
</note>
<note>
<pitch>
<step>D</step>
<octave>4</octave>
</pitch>
<duration>480</duration>
<lyric>
<syllabic>single</syllabic>
<text>ら</text>
</lyric>
</note>
<note>
<pitch>
<step>D</step>
<octave>4</octave>
</pitch>
<duration>480</duration>
<lyric>
<syllabic>single</syllabic>
<text>ん</text>
</lyric>
</note>
<note>
<pitch>
<step>D</step>
<octave>4</octave>
</pitch>
<duration>360</duration>
<lyric>
<syllabic>single</syllabic>
<text>ら</text>
</lyric>
</note>
<note>
<pitch>
<step>D</step>
<octave>4</octave>
</pitch>
<duration>240</duration>
<lyric>
<syllabic>single</syllabic>
<text>ん</text>
</lyric>
</note>
<note>
<rest />
<duration>1320</duration>
</note>
</measure>
<measure number="29">
<note>
<pitch>
<step>D</step>
<octave>3</octave>
</pitch>
<duration>600</duration>
<lyric>
<syllabic>single</syllabic>
<text>ぼ</text>
</lyric>
</note>
<note>
<pitch>
<step>D</step>
<octave>3</octave>
</pitch>
<duration>360</duration>
<lyric>
<syllabic>single</syllabic>
<text>く</text>
</lyric>
</note>
<note>
<pitch>
<step>D</step>
<octave>3</octave>
</pitch>
<duration>600</duration>
<lyric>
<syllabic>single</syllabic>
<text>な</text>
</lyric>
</note>
<note>
<pitch>
<step>E</step>
<octave>3</octave>
</pitch>
<duration>360</duration>
<lyric>
<syllabic>single</syllabic>
<text>ら</text>
</lyric>
</note>
<note>
<pitch>
<step>F</step>
<alter>1</alter>
<octave>3</octave>
</pitch>
<duration>600</duration>
<lyric>
<syllabic>single</syllabic>
<text>い</text>
</lyric>
</note>
<note>
<pitch>
<step>E</step>
<octave>3</octave>
</pitch>
<duration>360</duration>
<lyric>
<syllabic>single</syllabic>
<text>い</text>
</lyric>
</note>
<note>
<pitch>
<step>A</step>
<octave>3</octave>
</pitch>
<duration>600</duration>
<lyric>
<syllabic>single</syllabic>
<text>ん</text>
</lyric>
</note>
<note>
<pitch>
<step>F</step>
<alter>1</alter>
<octave>3</octave>
</pitch>
<duration>360</duration>
<lyric>
<syllabic>single</syllabic>
<text>だ</text>
</lyric>
</note>
</measure>
<measure number="30">
<note>
<pitch>
<step>D</step>
<octave>4</octave>
</pitch>
<duration>640</duration>
<lyric>
<syllabic>single</syllabic>
<text>か</text>
</lyric>
</note>
<note>
<pitch>
<step>B</step>
<octave>3</octave>
</pitch>
<duration>320</duration>
<lyric>
<syllabic>single</syllabic>
<text>あ</text>
</lyric>
</note>
<note>
<pitch>
<step>A</step>
<octave>3</octave>
</pitch>
<duration>600</duration>
<lyric>
<syllabic>single</syllabic>
<text>さ</text>
</lyric>
</note>
<note>
<pitch>
<step>F</step>
<alter>1</alter>
<octave>3</octave>
</pitch>
<duration>360</duration>
<lyric>
<syllabic>single</syllabic>
<text>ん</text>
</lyric>
</note>
<note>
<pitch>
<step>A</step>
<octave>3</octave>
</pitch>
<duration>840</duration>
<lyric>
<syllabic>single</syllabic>
<text>の</text>
</lyric>
</note>
<note>
<rest />
<duration>1080</duration>
</note>
</measure>
<measure number="31">
<note>
<pitch>
<step>D</step>
<octave>3</octave>
</pitch>
<duration>960</duration>
<lyric>
<syllabic>single</syllabic>
<text>お</text>
</lyric>
</note>
<note>
<pitch>
<step>D</step>
<octave>3</octave>
</pitch>
<duration>640</duration>
<lyric>
<syllabic>single</syllabic>
<text>き</text>
</lyric>
</note>
<note>
<pitch>
<step>E</step>
<octave>3</octave>
</pitch>
<duration>320</duration>
<lyric>
<syllabic>single</syllabic>
<text>な</text>
</lyric>
</note>
<note>
<pitch>
<step>F</step>
<alter>1</alter>
<octave>3</octave>
</pitch>
<duration>640</duration>
<lyric>
<syllabic>single</syllabic>
<text>じゃ</text>
</lyric>
</note>
<note>
<pitch>
<step>A</step>
<octave>3</octave>
</pitch>
<duration>320</duration>
<lyric>
<syllabic>single</syllabic>
<text>の</text>
</lyric>
</note>
<note>
<pitch>
<step>B</step>
<octave>3</octave>
</pitch>
<duration>640</duration>
<lyric>
<syllabic>single</syllabic>
<text>め</text>
</lyric>
</note>
<note>
<pitch>
<step>B</step>
<octave>3</octave>
</pitch>
<duration>320</duration>
<lyric>
<syllabic>single</syllabic>
<text>に</text>
</lyric>
</note>
</measure>
<measure number="32">
<note>
<pitch>
<step>F</step>
<alter>1</alter>
<octave>3</octave>
</pitch>
<duration>640</duration>
<lyric>
<syllabic>single</syllabic>
<text>は</text>
</lyric>
</note>
<note>
<pitch>
<step>F</step>
<alter>1</alter>
<octave>3</octave>
</pitch>
<duration>960</duration>
<lyric>
<syllabic>single</syllabic>
<text>いっ</text>
</lyric>
</note>
<note>
<pitch>
<step>E</step>
<octave>3</octave>
</pitch>
<duration>320</duration>
<lyric>
<syllabic>single</syllabic>
<text>て</text>
</lyric>
</note>
<note>
<pitch>
<step>D</step>
<octave>3</octave>
</pitch>
<duration>800</duration>
<lyric>
<syllabic>single</syllabic>
<text>く</text>
</lyric>
</note>
<note>
<rest />
<duration>1120</duration>
</note>
</measure>
<measure number="33">
<note>
<pitch>
<step>D</step>
<octave>4</octave>
</pitch>
<duration>640</duration>
<lyric>
<syllabic>single</syllabic>
<text>ぴっ</text>
</lyric>
</note>
<note>
<pitch>
<step>B</step>
<octave>3</octave>
</pitch>
<duration>320</duration>
<lyric>
<syllabic>single</syllabic>
<text>ち</text>
</lyric>
</note>
<note>
<pitch>
<step>D</step>
<octave>4</octave>
</pitch>
<duration>640</duration>
<lyric>
<syllabic>single</syllabic>
<text>ぴっ</text>
</lyric>
</note>
<note>
<pitch>
<step>B</step>
<octave>3</octave>
</pitch>
<duration>320</duration>
<lyric>
<syllabic>single</syllabic>
<text>ち</text>
</lyric>
</note>
<note>
<pitch>
<step>A</step>
<octave>3</octave>
</pitch>
<duration>640</duration>
<lyric>
<syllabic>single</syllabic>
<text>ちゃっ</text>
</lyric>
</note>
<note>
<pitch>
<step>F</step>
<alter>1</alter>
<octave>3</octave>
</pitch>
<duration>320</duration>
<lyric>
<syllabic>single</syllabic>
<text>ぷ</text>
</lyric>
</note>
<note>
<pitch>
<step>A</step>
<octave>3</octave>
</pitch>
<duration>640</duration>
<lyric>
<syllabic>single</syllabic>
<text>ちゃっ</text>
</lyric>
</note>
<note>
<pitch>
<step>F</step>
<alter>1</alter>
<octave>3</octave>
</pitch>
<duration>320</duration>
<lyric>
<syllabic>single</syllabic>
<text>ぷ</text>
</lyric>
</note>
</measure>
<measure number="34">
<note>
<pitch>
<step>A</step>
<octave>3</octave>
</pitch>
<duration>360</duration>
<lyric>
<syllabic>single</syllabic>
<text>ら</text>
</lyric>
</note>
<note>
<pitch>
<step>A</step>
<octave>3</octave>
</pitch>
<duration>600</duration>
<lyric>
<syllabic>single</syllabic>
<text>ん</text>
</lyric>
</note>
<note>
<pitch>
<step>D</step>
<octave>4</octave>
</pitch>
<duration>480</duration>
<lyric>
<syllabic>single</syllabic>
<text>ら</text>
</lyric>
</note>
<note>
<pitch>
<step>D</step>
<octave>4</octave>
</pitch>
<duration>480</duration>
<lyric>
<syllabic>single</syllabic>
<text>ん</text>
</lyric>
</note>
<note>
<pitch>
<step>D</step>
<octave>4</octave>
</pitch>
<duration>360</duration>
<lyric>
<syllabic>single</syllabic>
<text>ら</text>
</lyric>
</note>
<note>
<pitch>
<step>D</step>
<octave>4</octave>
</pitch>
<duration>360</duration>
<lyric>
<syllabic>single</syllabic>
<text>ん</text>
</lyric>
</note>
<note>
<rest />
<duration>1200</duration>
</note>
</measure>
<measure number="35">
<note>
<rest />
<duration>3840</duration>
</note>
</measure>
</part>
</score-partwise>
