<?xml version="1.0" encoding="utf-8"?>
<!DOCTYPE score-partwise PUBLIC "-//Recordare//DTD MusicXML 2.0 Partwise//EN"
                                "http://www.musicxml.org/dtds/partwise.dtd">
<score-partwise version="2.0">
<identification>
<encoding>
<software>Sinsy</software>
</encoding>
</identification>
<part-list>
<score-part id="P1">
<part-name>MusicXML Part</part-name>
</score-part>
</part-list>
<part id="P1">
<measure number="1">
<attributes>
<divisions>960</divisions>
</attributes>
<attributes>
<key>
<fifths>0</fifths>
<mode>major</mode>
</key>
</attributes>
<sound tempo="142.0000000000000" />
<direction>
<direction-type>
<metronome>
<beat-unit>quarter</beat-unit>
<per-minute>142.0000000000000</per-minute>
</metronome>
</direction-type>
<sound tempo="142.0000000000000" />
</direction>
<sound tempo="142.0000000000000" />
<direction>
<direction-type>
<metronome>
<beat-unit>quarter</beat-unit>
<per-minute>142.0000000000000</per-minute>
</metronome>
</direction-type>
<sound tempo="142.0000000000000" />
</direction>
<attributes>
<time>
<beats>4</beats>
<beat-type>4</beat-type>
</time>
</attributes>
<note>
<rest />
<duration>3840</duration>
</note>
</measure>
<measure number="2">
<note>
<rest />
<duration>3840</duration>
</note>
</measure>
<measure number="3">
<note>
<rest />
<duration>480</duration>
</note>
<note>
<pitch>
<step>G</step>
<alter>1</alter>
<octave>3</octave>
</pitch>
<duration>480</duration>
<lyric>
<syllabic>single</syllabic>
<text>は</text>
</lyric>
</note>
<note>
<pitch>
<step>G</step>
<alter>1</alter>
<octave>3</octave>
</pitch>
<duration>480</duration>
<lyric>
<syllabic>single</syllabic>
<text>じ</text>
</lyric>
</note>
<note>
<pitch>
<step>G</step>
<alter>1</alter>
<octave>3</octave>
</pitch>
<duration>480</duration>
<lyric>
<syllabic>single</syllabic>
<text>め</text>
</lyric>
</note>
<note>
<pitch>
<step>G</step>
<alter>1</alter>
<octave>3</octave>
</pitch>
<duration>480</duration>
<lyric>
<syllabic>single</syllabic>
<text>て</text>
</lyric>
</note>
<note>
<pitch>
<step>G</step>
<alter>1</alter>
<octave>3</octave>
</pitch>
<duration>480</duration>
<lyric>
<syllabic>single</syllabic>
<text>ふ</text>
</lyric>
</note>
<note>
<pitch>
<step>G</step>
<alter>1</alter>
<octave>3</octave>
</pitch>
<duration>480</duration>
<lyric>
<syllabic>single</syllabic>
<text>れ</text>
</lyric>
</note>
<note>
<pitch>
<step>G</step>
<alter>1</alter>
<octave>3</octave>
</pitch>
<duration>480</duration>
<tie type="start" />
<notations>
<tied type="start" />
</notations>
<lyric>
<syllabic>begin</syllabic>
<text>た</text>
</lyric>
</note>
</measure>
<measure number="4">
<note>
<pitch>
<step>G</step>
<alter>1</alter>
<octave>3</octave>
</pitch>
<duration>480</duration>
<tie type="stop" />
<notations>
<tied type="stop" />
</notations>
<lyric>
<syllabic>middle</syllabic>
<text />
</lyric>
</note>
<note>
<pitch>
<step>G</step>
<octave>3</octave>
</pitch>
<duration>960</duration>
<lyric>
<syllabic>middle</syllabic>
<text>お</text>
</lyric>
</note>
<note>
<pitch>
<step>D</step>
<alter>1</alter>
<octave>3</octave>
</pitch>
<duration>960</duration>
<lyric>
<syllabic>middle</syllabic>
<text>と</text>
</lyric>
</note>
<note>
<pitch>
<step>C</step>
<octave>3</octave>
</pitch>
<duration>480</duration>
<lyric>
<syllabic>middle</syllabic>
<text>な</text>
</lyric>
</note>
<note>
<pitch>
<step>C</step>
<alter>1</alter>
<octave>3</octave>
</pitch>
<duration>480</duration>
<lyric>
<syllabic>middle</syllabic>
<text>ん</text>
</lyric>
</note>
<note>
<pitch>
<step>D</step>
<alter>1</alter>
<octave>3</octave>
</pitch>
<duration>480</duration>
<lyric>
<syllabic>middle</syllabic>
<text>て</text>
</lyric>
</note>
</measure>
<measure number="5">
<note>
<rest />
<duration>480</duration>
</note>
<note>
<pitch>
<step>G</step>
<alter>1</alter>
<octave>3</octave>
</pitch>
<duration>480</duration>
<lyric>
<syllabic>middle</syllabic>
<text>も</text>
</lyric>
</note>
<note>
<pitch>
<step>G</step>
<alter>1</alter>
<octave>3</octave>
</pitch>
<duration>480</duration>
<lyric>
<syllabic>middle</syllabic>
<text>お</text>
</lyric>
</note>
<note>
<pitch>
<step>G</step>
<alter>1</alter>
<octave>3</octave>
</pitch>
<duration>480</duration>
<lyric>
<syllabic>middle</syllabic>
<text>お</text>
</lyric>
</note>
<note>
<pitch>
<step>G</step>
<alter>1</alter>
<octave>3</octave>
</pitch>
<duration>480</duration>
<lyric>
<syllabic>middle</syllabic>
<text>ぼ</text>
</lyric>
</note>
<note>
<pitch>
<step>G</step>
<octave>3</octave>
</pitch>
<duration>480</duration>
<lyric>
<syllabic>middle</syllabic>
<text>え</text>
</lyric>
</note>
<note>
<pitch>
<step>G</step>
<alter>1</alter>
<octave>3</octave>
</pitch>
<duration>480</duration>
<lyric>
<syllabic>middle</syllabic>
<text>ちゃ</text>
</lyric>
</note>
<note>
<pitch>
<step>A</step>
<alter>1</alter>
<octave>3</octave>
</pitch>
<duration>480</duration>
<tie type="start" />
<notations>
<tied type="start" />
</notations>
<lyric>
<syllabic>begin</syllabic>
<text>い</text>
</lyric>
</note>
</measure>
<measure number="6">
<note>
<pitch>
<step>A</step>
<alter>1</alter>
<octave>3</octave>
</pitch>
<duration>480</duration>
<tie type="stop" />
<notations>
<tied type="stop" />
</notations>
<lyric>
<syllabic>middle</syllabic>
<text />
</lyric>
</note>
<note>
<pitch>
<step>C</step>
<octave>4</octave>
</pitch>
<duration>960</duration>
<lyric>
<syllabic>middle</syllabic>
<text>な</text>
</lyric>
</note>
<note>
<pitch>
<step>G</step>
<alter>1</alter>
<octave>3</octave>
</pitch>
<duration>960</duration>
<lyric>
<syllabic>middle</syllabic>
<text>い</text>
</lyric>
</note>
<note>
<pitch>
<step>G</step>
<octave>3</octave>
</pitch>
<duration>960</duration>
<lyric>
<syllabic>middle</syllabic>
<text>け</text>
</lyric>
</note>
<note>
<pitch>
<step>G</step>
<alter>1</alter>
<octave>3</octave>
</pitch>
<duration>480</duration>
<lyric>
<syllabic>middle</syllabic>
<text>ど</text>
</lyric>
</note>
</measure>
<measure number="7">
<note>
<rest />
<duration>480</duration>
</note>
<note>
<pitch>
<step>G</step>
<alter>1</alter>
<octave>3</octave>
</pitch>
<duration>480</duration>
<lyric>
<syllabic>middle</syllabic>
<text>き</text>
</lyric>
</note>
<note>
<pitch>
<step>G</step>
<alter>1</alter>
<octave>3</octave>
</pitch>
<duration>480</duration>
<lyric>
<syllabic>middle</syllabic>
<text>み</text>
</lyric>
</note>
<note>
<pitch>
<step>G</step>
<alter>1</alter>
<octave>3</octave>
</pitch>
<duration>480</duration>
<lyric>
<syllabic>middle</syllabic>
<text>が</text>
</lyric>
</note>
<note>
<pitch>
<step>G</step>
<alter>1</alter>
<octave>3</octave>
</pitch>
<duration>480</duration>
<lyric>
<syllabic>middle</syllabic>
<text>く</text>
</lyric>
</note>
<note>
<pitch>
<step>G</step>
<alter>1</alter>
<octave>3</octave>
</pitch>
<duration>480</duration>
<lyric>
<syllabic>middle</syllabic>
<text>れ</text>
</lyric>
</note>
<note>
<pitch>
<step>G</step>
<alter>1</alter>
<octave>3</octave>
</pitch>
<duration>480</duration>
<lyric>
<syllabic>middle</syllabic>
<text>た</text>
</lyric>
</note>
<note>
<pitch>
<step>G</step>
<alter>1</alter>
<octave>3</octave>
</pitch>
<duration>480</duration>
<lyric>
<syllabic>middle</syllabic>
<text>め</text>
</lyric>
</note>
</measure>
<measure number="8">
<note>
<pitch>
<step>G</step>
<alter>1</alter>
<octave>3</octave>
</pitch>
<duration>480</duration>
<lyric>
<syllabic>middle</syllabic>
<text>ろ</text>
</lyric>
</note>
<note>
<pitch>
<step>G</step>
<octave>3</octave>
</pitch>
<duration>960</duration>
<lyric>
<syllabic>middle</syllabic>
<text>でぃ</text>
</lyric>
</note>
<note>
<pitch>
<step>D</step>
<alter>1</alter>
<octave>3</octave>
</pitch>
<duration>960</duration>
<lyric>
<syllabic>middle</syllabic>
<text>が</text>
</lyric>
</note>
<note>
<pitch>
<step>C</step>
<octave>3</octave>
</pitch>
<duration>480</duration>
<lyric>
<syllabic>middle</syllabic>
<text>あ</text>
</lyric>
</note>
<note>
<pitch>
<step>C</step>
<alter>1</alter>
<octave>3</octave>
</pitch>
<duration>480</duration>
<lyric>
<syllabic>middle</syllabic>
<text>れ</text>
</lyric>
</note>
<note>
<pitch>
<step>D</step>
<alter>1</alter>
<octave>3</octave>
</pitch>
<duration>480</duration>
<lyric>
<syllabic>middle</syllabic>
<text>ば</text>
</lyric>
</note>
</measure>
<measure number="9">
<note>
<rest />
<duration>480</duration>
</note>
<note>
<pitch>
<step>G</step>
<alter>1</alter>
<octave>3</octave>
</pitch>
<duration>480</duration>
<lyric>
<syllabic>middle</syllabic>
<text>そ</text>
</lyric>
</note>
<note>
<pitch>
<step>G</step>
<alter>1</alter>
<octave>3</octave>
</pitch>
<duration>480</duration>
<lyric>
<syllabic>middle</syllabic>
<text>れ</text>
</lyric>
</note>
<note>
<pitch>
<step>G</step>
<alter>1</alter>
<octave>3</octave>
</pitch>
<duration>480</duration>
<lyric>
<syllabic>middle</syllabic>
<text>で</text>
</lyric>
</note>
<note>
<pitch>
<step>G</step>
<alter>1</alter>
<octave>3</octave>
</pitch>
<duration>480</duration>
<lyric>
<syllabic>middle</syllabic>
<text>い</text>
</lyric>
</note>
<note>
<pitch>
<step>G</step>
<octave>3</octave>
</pitch>
<duration>480</duration>
<lyric>
<syllabic>middle</syllabic>
<text>い</text>
</lyric>
</note>
<note>
<pitch>
<step>A</step>
<alter>1</alter>
<octave>3</octave>
</pitch>
<duration>480</duration>
<lyric>
<syllabic>middle</syllabic>
<text>か</text>
</lyric>
</note>
<note>
<pitch>
<step>G</step>
<alter>1</alter>
<octave>3</octave>
</pitch>
<duration>480</duration>
<tie type="start" />
<notations>
<tied type="start" />
</notations>
<lyric>
<syllabic>begin</syllabic>
<text>な</text>
</lyric>
</note>
</measure>
<measure number="10">
<note>
<pitch>
<step>G</step>
<alter>1</alter>
<octave>3</octave>
</pitch>
<duration>1920</duration>
<tie type="stop" />
<notations>
<tied type="stop" />
</notations>
<lyric>
<syllabic>middle</syllabic>
<text />
</lyric>
</note>
<note>
<rest />
<duration>1920</duration>
</note>
</measure>
<measure number="11">
<note>
<rest />
<duration>480</duration>
</note>
<note>
<pitch>
<step>G</step>
<alter>1</alter>
<octave>3</octave>
</pitch>
<duration>960</duration>
<lyric>
<syllabic>single</syllabic>
<text>ぱっ</text>
</lyric>
</note>
<note>
<pitch>
<step>G</step>
<alter>1</alter>
<octave>3</octave>
</pitch>
<duration>960</duration>
<lyric>
<syllabic>single</syllabic>
<text>け</text>
</lyric>
</note>
<note>
<pitch>
<step>G</step>
<alter>1</alter>
<octave>3</octave>
</pitch>
<duration>480</duration>
<lyric>
<syllabic>single</syllabic>
<text>じ</text>
</lyric>
</note>
<note>
<pitch>
<step>G</step>
<alter>1</alter>
<octave>3</octave>
</pitch>
<duration>480</duration>
<lyric>
<syllabic>single</syllabic>
<text>あ</text>
</lyric>
</note>
<note>
<pitch>
<step>G</step>
<alter>1</alter>
<octave>3</octave>
</pitch>
<duration>480</duration>
<tie type="start" />
<notations>
<tied type="start" />
</notations>
<lyric>
<syllabic>begin</syllabic>
<text>け</text>
</lyric>
</note>
</measure>
<measure number="12">
<note>
<pitch>
<step>G</step>
<alter>1</alter>
<octave>3</octave>
</pitch>
<duration>480</duration>
<tie type="stop" />
<notations>
<tied type="stop" />
</notations>
<lyric>
<syllabic>middle</syllabic>
<text />
</lyric>
</note>
<note>
<pitch>
<step>G</step>
<octave>3</octave>
</pitch>
<duration>960</duration>
<lyric>
<syllabic>middle</syllabic>
<text>た</text>
</lyric>
</note>
<note>
<pitch>
<step>D</step>
<alter>1</alter>
<octave>3</octave>
</pitch>
<duration>960</duration>
<lyric>
<syllabic>middle</syllabic>
<text>しゅ</text>
</lyric>
</note>
<note>
<pitch>
<step>C</step>
<octave>3</octave>
</pitch>
<duration>480</duration>
<lyric>
<syllabic>middle</syllabic>
<text>ん</text>
</lyric>
</note>
<note>
<pitch>
<step>C</step>
<alter>1</alter>
<octave>3</octave>
</pitch>
<duration>480</duration>
<lyric>
<syllabic>middle</syllabic>
<text>か</text>
</lyric>
</note>
<note>
<pitch>
<step>D</step>
<alter>1</alter>
<octave>3</octave>
</pitch>
<duration>480</duration>
<lyric>
<syllabic>middle</syllabic>
<text>ん</text>
</lyric>
</note>
</measure>
<measure number="13">
<note>
<rest />
<duration>480</duration>
</note>
<note>
<pitch>
<step>G</step>
<alter>1</alter>
<octave>3</octave>
</pitch>
<duration>480</duration>
<lyric>
<syllabic>middle</syllabic>
<text>あ</text>
</lyric>
</note>
<note>
<pitch>
<step>G</step>
<alter>1</alter>
<octave>3</octave>
</pitch>
<duration>480</duration>
<lyric>
<syllabic>middle</syllabic>
<text>ふ</text>
</lyric>
</note>
<note>
<pitch>
<step>G</step>
<alter>1</alter>
<octave>3</octave>
</pitch>
<duration>480</duration>
<lyric>
<syllabic>middle</syllabic>
<text>れ</text>
</lyric>
</note>
<note>
<pitch>
<step>G</step>
<alter>1</alter>
<octave>3</octave>
</pitch>
<duration>480</duration>
<lyric>
<syllabic>middle</syllabic>
<text>だ</text>
</lyric>
</note>
<note>
<pitch>
<step>G</step>
<octave>3</octave>
</pitch>
<duration>480</duration>
<lyric>
<syllabic>middle</syllabic>
<text>し</text>
</lyric>
</note>
<note>
<pitch>
<step>G</step>
<alter>1</alter>
<octave>3</octave>
</pitch>
<duration>480</duration>
<lyric>
<syllabic>middle</syllabic>
<text>た</text>
</lyric>
</note>
<note>
<pitch>
<step>A</step>
<alter>1</alter>
<octave>3</octave>
</pitch>
<duration>480</duration>
<tie type="start" />
<notations>
<tied type="start" />
</notations>
<lyric>
<syllabic>begin</syllabic>
<text>こ</text>
</lyric>
</note>
</measure>
<measure number="14">
<note>
<pitch>
<step>A</step>
<alter>1</alter>
<octave>3</octave>
</pitch>
<duration>480</duration>
<tie type="stop" />
<notations>
<tied type="stop" />
</notations>
<lyric>
<syllabic>middle</syllabic>
<text />
</lyric>
</note>
<note>
<pitch>
<step>C</step>
<octave>4</octave>
</pitch>
<duration>960</duration>
<lyric>
<syllabic>middle</syllabic>
<text>の</text>
</lyric>
</note>
<note>
<pitch>
<step>G</step>
<alter>1</alter>
<octave>3</octave>
</pitch>
<duration>960</duration>
<lyric>
<syllabic>middle</syllabic>
<text>お</text>
</lyric>
</note>
<note>
<pitch>
<step>G</step>
<octave>3</octave>
</pitch>
<duration>960</duration>
<lyric>
<syllabic>middle</syllabic>
<text>も</text>
</lyric>
</note>
<note>
<pitch>
<step>G</step>
<alter>1</alter>
<octave>3</octave>
</pitch>
<duration>480</duration>
<lyric>
<syllabic>middle</syllabic>
<text>い</text>
</lyric>
</note>
</measure>
<measure number="15">
<note>
<rest />
<duration>480</duration>
</note>
<note>
<pitch>
<step>G</step>
<alter>1</alter>
<octave>3</octave>
</pitch>
<duration>480</duration>
<lyric>
<syllabic>middle</syllabic>
<text>き</text>
</lyric>
</note>
<note>
<pitch>
<step>G</step>
<alter>1</alter>
<octave>3</octave>
</pitch>
<duration>480</duration>
<lyric>
<syllabic>middle</syllabic>
<text>み</text>
</lyric>
</note>
<note>
<pitch>
<step>G</step>
<alter>1</alter>
<octave>3</octave>
</pitch>
<duration>480</duration>
<lyric>
<syllabic>middle</syllabic>
<text>が</text>
</lyric>
</note>
<note>
<pitch>
<step>G</step>
<alter>1</alter>
<octave>3</octave>
</pitch>
<duration>480</duration>
<lyric>
<syllabic>middle</syllabic>
<text>く</text>
</lyric>
</note>
<note>
<pitch>
<step>G</step>
<alter>1</alter>
<octave>3</octave>
</pitch>
<duration>480</duration>
<lyric>
<syllabic>middle</syllabic>
<text>れ</text>
</lyric>
</note>
<note>
<pitch>
<step>G</step>
<alter>1</alter>
<octave>3</octave>
</pitch>
<duration>480</duration>
<lyric>
<syllabic>middle</syllabic>
<text>た</text>
</lyric>
</note>
<note>
<pitch>
<step>G</step>
<alter>1</alter>
<octave>3</octave>
</pitch>
<duration>480</duration>
<lyric>
<syllabic>middle</syllabic>
<text>め</text>
</lyric>
</note>
</measure>
<measure number="16">
<note>
<pitch>
<step>G</step>
<alter>1</alter>
<octave>3</octave>
</pitch>
<duration>480</duration>
<lyric>
<syllabic>middle</syllabic>
<text>ろ</text>
</lyric>
</note>
<note>
<pitch>
<step>G</step>
<octave>3</octave>
</pitch>
<duration>960</duration>
<lyric>
<syllabic>middle</syllabic>
<text>でぃ</text>
</lyric>
</note>
<note>
<pitch>
<step>D</step>
<alter>1</alter>
<octave>3</octave>
</pitch>
<duration>960</duration>
<lyric>
<syllabic>middle</syllabic>
<text>に</text>
</lyric>
</note>
<note>
<pitch>
<step>C</step>
<octave>3</octave>
</pitch>
<duration>480</duration>
<lyric>
<syllabic>middle</syllabic>
<text>の</text>
</lyric>
</note>
<note>
<pitch>
<step>C</step>
<alter>1</alter>
<octave>3</octave>
</pitch>
<duration>480</duration>
<lyric>
<syllabic>middle</syllabic>
<text>せ</text>
</lyric>
</note>
<note>
<pitch>
<step>D</step>
<alter>1</alter>
<octave>3</octave>
</pitch>
<duration>480</duration>
<lyric>
<syllabic>middle</syllabic>
<text>て</text>
</lyric>
</note>
</measure>
<measure number="17">
<note>
<rest />
<duration>480</duration>
</note>
<note>
<pitch>
<step>G</step>
<alter>1</alter>
<octave>3</octave>
</pitch>
<duration>480</duration>
<lyric>
<syllabic>middle</syllabic>
<text>と</text>
</lyric>
</note>
<note>
<pitch>
<step>G</step>
<alter>1</alter>
<octave>3</octave>
</pitch>
<duration>480</duration>
<lyric>
<syllabic>middle</syllabic>
<text>ど</text>
</lyric>
</note>
<note>
<pitch>
<step>G</step>
<alter>1</alter>
<octave>3</octave>
</pitch>
<duration>960</duration>
<lyric>
<syllabic>middle</syllabic>
<text>け</text>
</lyric>
</note>
<note>
<pitch>
<step>G</step>
<octave>3</octave>
</pitch>
<duration>480</duration>
<lyric>
<syllabic>middle</syllabic>
<text>た</text>
</lyric>
</note>
<note>
<pitch>
<step>A</step>
<alter>1</alter>
<octave>3</octave>
</pitch>
<duration>480</duration>
<lyric>
<syllabic>middle</syllabic>
<text>い</text>
</lyric>
</note>
<note>
<pitch>
<step>G</step>
<alter>1</alter>
<octave>3</octave>
</pitch>
<duration>480</duration>
<tie type="start" />
<notations>
<tied type="start" />
</notations>
<lyric>
<syllabic>begin</syllabic>
<text>よ</text>
</lyric>
</note>
</measure>
<measure number="18">
<note>
<pitch>
<step>G</step>
<alter>1</alter>
<octave>3</octave>
</pitch>
<duration>1920</duration>
<tie type="stop" />
<notations>
<tied type="stop" />
</notations>
<lyric>
<syllabic>middle</syllabic>
<text />
</lyric>
</note>
<note>
<rest />
<duration>1920</duration>
</note>
</measure>
<measure number="19">
<note>
<rest />
<duration>2880</duration>
</note>
<note>
<pitch>
<step>D</step>
<alter>1</alter>
<octave>3</octave>
</pitch>
<duration>960</duration>
<lyric>
<syllabic>single</syllabic>
<text>き</text>
</lyric>
</note>
</measure>
<measure number="20">
<note>
<pitch>
<step>G</step>
<alter>1</alter>
<octave>3</octave>
</pitch>
<duration>960</duration>
<lyric>
<syllabic>single</syllabic>
<text>づ</text>
</lyric>
</note>
<note>
<pitch>
<step>A</step>
<alter>1</alter>
<octave>3</octave>
</pitch>
<duration>960</duration>
<lyric>
<syllabic>single</syllabic>
<text>け</text>
</lyric>
</note>
<note>
<pitch>
<step>C</step>
<octave>4</octave>
</pitch>
<duration>960</duration>
<lyric>
<syllabic>single</syllabic>
<text>ば</text>
</lyric>
</note>
<note>
<pitch>
<step>G</step>
<alter>1</alter>
<octave>3</octave>
</pitch>
<duration>960</duration>
<tie type="start" />
<notations>
<tied type="start" />
</notations>
<lyric>
<syllabic>begin</syllabic>
<text>ほ</text>
</lyric>
</note>
</measure>
<measure number="21">
<note>
<pitch>
<step>G</step>
<alter>1</alter>
<octave>3</octave>
</pitch>
<duration>960</duration>
<tie type="stop" />
<notations>
<tied type="stop" />
</notations>
<lyric>
<syllabic>middle</syllabic>
<text />
</lyric>
</note>
<note>
<pitch>
<step>G</step>
<octave>3</octave>
</pitch>
<duration>960</duration>
<lyric>
<syllabic>middle</syllabic>
<text>ら</text>
</lyric>
</note>
<note>
<rest />
<duration>1920</duration>
</note>
</measure>
<measure number="22">
<note>
<rest />
<duration>3840</duration>
</note>
</measure>
<measure number="23">
<note>
<rest />
<duration>2880</duration>
</note>
<note>
<pitch>
<step>D</step>
<alter>1</alter>
<octave>3</octave>
</pitch>
<duration>960</duration>
<lyric>
<syllabic>single</syllabic>
<text>き</text>
</lyric>
</note>
</measure>
<measure number="24">
<note>
<pitch>
<step>G</step>
<alter>1</alter>
<octave>3</octave>
</pitch>
<duration>960</duration>
<lyric>
<syllabic>single</syllabic>
<text>み</text>
</lyric>
</note>
<note>
<pitch>
<step>A</step>
<alter>1</alter>
<octave>3</octave>
</pitch>
<duration>960</duration>
<lyric>
<syllabic>single</syllabic>
<text>と</text>
</lyric>
</note>
<note>
<pitch>
<step>C</step>
<octave>4</octave>
</pitch>
<duration>960</duration>
<lyric>
<syllabic>single</syllabic>
<text>あ</text>
</lyric>
</note>
<note>
<pitch>
<step>G</step>
<alter>1</alter>
<octave>3</octave>
</pitch>
<duration>960</duration>
<lyric>
<syllabic>single</syllabic>
<text>る</text>
</lyric>
</note>
</measure>
<measure number="25">
<note>
<pitch>
<step>D</step>
<alter>1</alter>
<octave>4</octave>
</pitch>
<duration>480</duration>
<lyric>
<syllabic>single</syllabic>
<text>い</text>
</lyric>
</note>
<note>
<pitch>
<step>C</step>
<alter>1</alter>
<octave>4</octave>
</pitch>
<duration>960</duration>
<lyric>
<syllabic>single</syllabic>
<text>て</text>
</lyric>
</note>
<note>
<pitch>
<step>C</step>
<octave>4</octave>
</pitch>
<duration>960</duration>
<lyric>
<syllabic>single</syllabic>
<text>き</text>
</lyric>
</note>
<note>
<pitch>
<step>A</step>
<alter>1</alter>
<octave>3</octave>
</pitch>
<duration>960</duration>
<lyric>
<syllabic>single</syllabic>
<text>た</text>
</lyric>
</note>
<note>
<pitch>
<step>C</step>
<octave>4</octave>
</pitch>
<duration>480</duration>
<tie type="start" />
<notations>
<tied type="start" />
</notations>
<lyric>
<syllabic>begin</syllabic>
<text>き</text>
</lyric>
</note>
</measure>
<measure number="26">
<note>
<pitch>
<step>C</step>
<octave>4</octave>
</pitch>
<duration>960</duration>
<tie type="stop" />
<notations>
<tied type="stop" />
</notations>
<lyric>
<syllabic>middle</syllabic>
<text />
</lyric>
</note>
<note>
<pitch>
<step>A</step>
<alter>1</alter>
<octave>3</octave>
</pitch>
<duration>960</duration>
<lyric>
<syllabic>middle</syllabic>
<text>せ</text>
</lyric>
</note>
<note>
<pitch>
<step>G</step>
<alter>1</alter>
<octave>3</octave>
</pitch>
<duration>960</duration>
<lyric>
<syllabic>middle</syllabic>
<text>き</text>
</lyric>
</note>
<note>
<pitch>
<step>A</step>
<alter>1</alter>
<octave>3</octave>
</pitch>
<duration>960</duration>
<lyric>
<syllabic>middle</syllabic>
<text>うぉ</text>
</lyric>
</note>
</measure>
<measure number="27">
<note>
<rest />
<duration>2880</duration>
</note>
<note>
<pitch>
<step>D</step>
<alter>1</alter>
<octave>3</octave>
</pitch>
<duration>960</duration>
<lyric>
<syllabic>middle</syllabic>
<text>だ</text>
</lyric>
</note>
</measure>
<measure number="28">
<note>
<pitch>
<step>G</step>
<alter>1</alter>
<octave>3</octave>
</pitch>
<duration>960</duration>
<lyric>
<syllabic>middle</syllabic>
<text>れ</text>
</lyric>
</note>
<note>
<pitch>
<step>A</step>
<alter>1</alter>
<octave>3</octave>
</pitch>
<duration>960</duration>
<lyric>
<syllabic>middle</syllabic>
<text>か</text>
</lyric>
</note>
<note>
<pitch>
<step>C</step>
<octave>4</octave>
</pitch>
<duration>960</duration>
<lyric>
<syllabic>middle</syllabic>
<text>が</text>
</lyric>
</note>
<note>
<pitch>
<step>G</step>
<alter>1</alter>
<octave>3</octave>
</pitch>
<duration>960</duration>
<tie type="start" />
<notations>
<tied type="start" />
</notations>
<lyric>
<syllabic>begin</syllabic>
<text>ま</text>
</lyric>
</note>
</measure>
<measure number="29">
<note>
<pitch>
<step>G</step>
<alter>1</alter>
<octave>3</octave>
</pitch>
<duration>960</duration>
<tie type="stop" />
<notations>
<tied type="stop" />
</notations>
<lyric>
<syllabic>middle</syllabic>
<text />
</lyric>
</note>
<note>
<pitch>
<step>G</step>
<octave>3</octave>
</pitch>
<duration>960</duration>
<lyric>
<syllabic>middle</syllabic>
<text>た</text>
</lyric>
</note>
<note>
<rest />
<duration>1920</duration>
</note>
</measure>
<measure number="30">
<note>
<rest />
<duration>3360</duration>
</note>
<note>
<pitch>
<step>C</step>
<alter>1</alter>
<octave>3</octave>
</pitch>
<duration>480</duration>
<lyric>
<syllabic>single</syllabic>
<text>か</text>
</lyric>
</note>
</measure>
<measure number="31">
<note>
<pitch>
<step>C</step>
<alter>1</alter>
<octave>3</octave>
</pitch>
<duration>960</duration>
<lyric>
<syllabic>single</syllabic>
<text>ざ</text>
</lyric>
</note>
<note>
<pitch>
<step>C</step>
<octave>3</octave>
</pitch>
<duration>480</duration>
<lyric>
<syllabic>single</syllabic>
<text>り</text>
</lyric>
</note>
<note>
<pitch>
<step>C</step>
<alter>1</alter>
<octave>3</octave>
</pitch>
<duration>960</duration>
<lyric>
<syllabic>single</syllabic>
<text>つ</text>
</lyric>
</note>
<note>
<pitch>
<step>D</step>
<alter>1</alter>
<octave>3</octave>
</pitch>
<duration>480</duration>
<lyric>
<syllabic>single</syllabic>
<text>け</text>
</lyric>
</note>
<note>
<pitch>
<step>G</step>
<alter>1</alter>
<octave>3</octave>
</pitch>
<duration>960</duration>
<tie type="start" />
<notations>
<tied type="start" />
</notations>
<lyric>
<syllabic>begin</syllabic>
<text>て</text>
</lyric>
</note>
</measure>
<measure number="32">
<note>
<pitch>
<step>G</step>
<alter>1</alter>
<octave>3</octave>
</pitch>
<duration>960</duration>
<tie type="stop" />
<notations>
<tied type="stop" />
</notations>
<lyric>
<syllabic>middle</syllabic>
<text />
</lyric>
</note>
<note>
<rest />
<duration>1920</duration>
</note>
<note>
<pitch>
<step>G</step>
<alter>1</alter>
<octave>3</octave>
</pitch>
<duration>480</duration>
<lyric>
<syllabic>middle</syllabic>
<text>つ</text>
</lyric>
</note>
<note>
<pitch>
<step>G</step>
<alter>1</alter>
<octave>3</octave>
</pitch>
<duration>480</duration>
<lyric>
<syllabic>middle</syllabic>
<text>な</text>
</lyric>
</note>
</measure>
<measure number="33">
<note>
<pitch>
<step>G</step>
<alter>1</alter>
<octave>3</octave>
</pitch>
<duration>1440</duration>
<lyric>
<syllabic>middle</syllabic>
<text>がっ</text>
</lyric>
</note>
<note>
<pitch>
<step>G</step>
<alter>1</alter>
<octave>3</octave>
</pitch>
<duration>960</duration>
<lyric>
<syllabic>middle</syllabic>
<text>て</text>
</lyric>
</note>
<note>
<pitch>
<step>G</step>
<octave>3</octave>
</pitch>
<duration>480</duration>
<lyric>
<syllabic>middle</syllabic>
<text>く</text>
</lyric>
</note>
<note>
<pitch>
<step>G</step>
<alter>1</alter>
<octave>3</octave>
</pitch>
<duration>480</duration>
<lyric>
<syllabic>middle</syllabic>
<text>ん</text>
</lyric>
</note>
<note>
<pitch>
<step>A</step>
<alter>1</alter>
<octave>3</octave>
</pitch>
<duration>480</duration>
<tie type="start" />
<notations>
<tied type="start" />
</notations>
<lyric>
<syllabic>begin</syllabic>
<text>だ</text>
</lyric>
</note>
</measure>
<measure number="34">
<note>
<pitch>
<step>A</step>
<alter>1</alter>
<octave>3</octave>
</pitch>
<duration>1200</duration>
<tie type="stop" />
<notations>
<tied type="stop" />
</notations>
<lyric>
<syllabic>middle</syllabic>
<text />
</lyric>
</note>
<note>
<rest />
<duration>1680</duration>
</note>
<note>
<pitch>
<step>F</step>
<octave>3</octave>
</pitch>
<duration>480</duration>
<lyric>
<syllabic>middle</syllabic>
<text>ぼ</text>
</lyric>
</note>
<note>
<pitch>
<step>G</step>
<alter>1</alter>
<octave>3</octave>
</pitch>
<duration>480</duration>
<lyric>
<syllabic>middle</syllabic>
<text>く</text>
</lyric>
</note>
</measure>
<measure number="35">
<note>
<pitch>
<step>D</step>
<alter>1</alter>
<octave>4</octave>
</pitch>
<duration>1440</duration>
<lyric>
<syllabic>middle</syllabic>
<text>ら</text>
</lyric>
</note>
<note>
<pitch>
<step>G</step>
<alter>1</alter>
<octave>3</octave>
</pitch>
<duration>1440</duration>
<lyric>
<syllabic>middle</syllabic>
<text>の</text>
</lyric>
</note>
<note>
<pitch>
<step>G</step>
<alter>1</alter>
<octave>3</octave>
</pitch>
<duration>960</duration>
<lyric>
<syllabic>middle</syllabic>
<text>み</text>
</lyric>
</note>
</measure>
<measure number="36">
<note>
<pitch>
<step>G</step>
<octave>3</octave>
</pitch>
<duration>960</duration>
<lyric>
<syllabic>middle</syllabic>
<text>ら</text>
</lyric>
</note>
<note>
<pitch>
<step>G</step>
<octave>3</octave>
</pitch>
<duration>480</duration>
<lyric>
<syllabic>middle</syllabic>
<text>い</text>
</lyric>
</note>
<note>
<pitch>
<step>G</step>
<alter>1</alter>
<octave>3</octave>
</pitch>
<duration>720</duration>
<lyric>
<syllabic>middle</syllabic>
<text>が</text>
</lyric>
</note>
<note>
<rest />
<duration>720</duration>
</note>
<note>
<pitch>
<step>F</step>
<octave>3</octave>
</pitch>
<duration>480</duration>
<lyric>
<syllabic>middle</syllabic>
<text>こ</text>
</lyric>
</note>
<note>
<pitch>
<step>G</step>
<alter>1</alter>
<octave>3</octave>
</pitch>
<duration>480</duration>
<lyric>
<syllabic>middle</syllabic>
<text>こ</text>
</lyric>
</note>
</measure>
<measure number="37">
<note>
<pitch>
<step>D</step>
<alter>1</alter>
<octave>4</octave>
</pitch>
<duration>1440</duration>
<lyric>
<syllabic>middle</syllabic>
<text>か</text>
</lyric>
</note>
<note>
<pitch>
<step>G</step>
<alter>1</alter>
<octave>3</octave>
</pitch>
<duration>1440</duration>
<lyric>
<syllabic>middle</syllabic>
<text>ら</text>
</lyric>
</note>
<note>
<pitch>
<step>G</step>
<alter>1</alter>
<octave>3</octave>
</pitch>
<duration>960</duration>
<lyric>
<syllabic>middle</syllabic>
<text>は</text>
</lyric>
</note>
</measure>
<measure number="38">
<note>
<pitch>
<step>A</step>
<alter>1</alter>
<octave>3</octave>
</pitch>
<duration>960</duration>
<lyric>
<syllabic>middle</syllabic>
<text>じ</text>
</lyric>
</note>
<note>
<pitch>
<step>C</step>
<octave>4</octave>
</pitch>
<duration>480</duration>
<lyric>
<syllabic>middle</syllabic>
<text>ま</text>
</lyric>
</note>
<note>
<pitch>
<step>G</step>
<alter>1</alter>
<octave>3</octave>
</pitch>
<duration>720</duration>
<lyric>
<syllabic>middle</syllabic>
<text>る</text>
</lyric>
</note>
<note>
<rest />
<duration>720</duration>
</note>
<note>
<pitch>
<step>D</step>
<alter>1</alter>
<octave>3</octave>
</pitch>
<duration>480</duration>
<lyric>
<syllabic>middle</syllabic>
<text>き</text>
</lyric>
</note>
<note>
<pitch>
<step>G</step>
<alter>1</alter>
<octave>3</octave>
</pitch>
<duration>480</duration>
<tie type="start" />
<notations>
<tied type="start" />
</notations>
<lyric>
<syllabic>begin</syllabic>
<text>め</text>
</lyric>
</note>
</measure>
<measure number="39">
<note>
<pitch>
<step>G</step>
<alter>1</alter>
<octave>3</octave>
</pitch>
<duration>480</duration>
<tie type="stop" />
<notations>
<tied type="stop" />
</notations>
<lyric>
<syllabic>middle</syllabic>
<text />
</lyric>
</note>
<note>
<pitch>
<step>G</step>
<alter>1</alter>
<octave>3</octave>
</pitch>
<duration>480</duration>
<lyric>
<syllabic>middle</syllabic>
<text>こ</text>
</lyric>
</note>
<note>
<pitch>
<step>G</step>
<alter>1</alter>
<octave>3</octave>
</pitch>
<duration>480</duration>
<lyric>
<syllabic>middle</syllabic>
<text>ん</text>
</lyric>
</note>
<note>
<pitch>
<step>G</step>
<alter>1</alter>
<octave>3</octave>
</pitch>
<duration>480</duration>
<lyric>
<syllabic>middle</syllabic>
<text>で</text>
</lyric>
</note>
<note>
<pitch>
<step>G</step>
<alter>1</alter>
<octave>3</octave>
</pitch>
<duration>480</duration>
<lyric>
<syllabic>middle</syllabic>
<text>い</text>
</lyric>
</note>
<note>
<pitch>
<step>G</step>
<alter>1</alter>
<octave>3</octave>
</pitch>
<duration>480</duration>
<lyric>
<syllabic>middle</syllabic>
<text>た</text>
</lyric>
</note>
<note>
<pitch>
<step>G</step>
<alter>1</alter>
<octave>3</octave>
</pitch>
<duration>480</duration>
<lyric>
<syllabic>middle</syllabic>
<text>す</text>
</lyric>
</note>
<note>
<pitch>
<step>A</step>
<alter>1</alter>
<octave>3</octave>
</pitch>
<duration>480</duration>
<tie type="start" />
<notations>
<tied type="start" />
</notations>
<lyric>
<syllabic>begin</syllabic>
<text>た</text>
</lyric>
</note>
</measure>
<measure number="40">
<note>
<pitch>
<step>A</step>
<alter>1</alter>
<octave>3</octave>
</pitch>
<duration>480</duration>
<tie type="stop" />
<notations>
<tied type="stop" />
</notations>
<lyric>
<syllabic>middle</syllabic>
<text />
</lyric>
</note>
<note>
<pitch>
<step>G</step>
<alter>1</alter>
<octave>3</octave>
</pitch>
<duration>480</duration>
<lyric>
<syllabic>middle</syllabic>
<text>い</text>
</lyric>
</note>
<note>
<pitch>
<step>A</step>
<alter>1</alter>
<octave>3</octave>
</pitch>
<duration>480</duration>
<lyric>
<syllabic>middle</syllabic>
<text>る</text>
</lyric>
</note>
<note>
<pitch>
<step>C</step>
<octave>4</octave>
</pitch>
<duration>480</duration>
<lyric>
<syllabic>middle</syllabic>
<text>わ</text>
</lyric>
</note>
<note>
<rest />
<duration>480</duration>
</note>
<note>
<pitch>
<step>G</step>
<alter>1</alter>
<octave>3</octave>
</pitch>
<duration>480</duration>
<lyric>
<syllabic>middle</syllabic>
<text>き</text>
</lyric>
</note>
<note>
<pitch>
<step>A</step>
<alter>1</alter>
<octave>3</octave>
</pitch>
<duration>480</duration>
<lyric>
<syllabic>middle</syllabic>
<text>の</text>
</lyric>
</note>
<note>
<pitch>
<step>D</step>
<alter>1</alter>
<octave>4</octave>
</pitch>
<duration>480</duration>
<tie type="start" />
<notations>
<tied type="start" />
</notations>
<lyric>
<syllabic>begin</syllabic>
<text>お</text>
</lyric>
</note>
</measure>
<measure number="41">
<note>
<pitch>
<step>D</step>
<alter>1</alter>
<octave>4</octave>
</pitch>
<duration>480</duration>
<tie type="stop" />
<notations>
<tied type="stop" />
</notations>
<lyric>
<syllabic>middle</syllabic>
<text />
</lyric>
</note>
<note>
<pitch>
<step>G</step>
<alter>1</alter>
<octave>3</octave>
</pitch>
<duration>960</duration>
<lyric>
<syllabic>middle</syllabic>
<text>に</text>
</lyric>
</note>
<note>
<pitch>
<step>G</step>
<alter>1</alter>
<octave>3</octave>
</pitch>
<duration>960</duration>
<lyric>
<syllabic>middle</syllabic>
<text>す</text>
</lyric>
</note>
<note>
<pitch>
<step>G</step>
<alter>1</alter>
<octave>3</octave>
</pitch>
<duration>480</duration>
<lyric>
<syllabic>middle</syllabic>
<text>て</text>
</lyric>
</note>
<note>
<pitch>
<step>C</step>
<octave>4</octave>
</pitch>
<duration>480</duration>
<lyric>
<syllabic>middle</syllabic>
<text>よ</text>
</lyric>
</note>
<note>
<pitch>
<step>A</step>
<alter>1</alter>
<octave>3</octave>
</pitch>
<duration>480</duration>
<tie type="start" />
<notations>
<tied type="start" />
</notations>
<lyric>
<syllabic>begin</syllabic>
<text>お</text>
</lyric>
</note>
</measure>
<measure number="42">
<note>
<pitch>
<step>A</step>
<alter>1</alter>
<octave>3</octave>
</pitch>
<duration>1200</duration>
<tie type="stop" />
<notations>
<tied type="stop" />
</notations>
<lyric>
<syllabic>middle</syllabic>
<text />
</lyric>
</note>
<note>
<rest />
<duration>1680</duration>
</note>
<note>
<pitch>
<step>F</step>
<octave>3</octave>
</pitch>
<duration>480</duration>
<lyric>
<syllabic>middle</syllabic>
<text>こ</text>
</lyric>
</note>
<note>
<pitch>
<step>G</step>
<alter>1</alter>
<octave>3</octave>
</pitch>
<duration>480</duration>
<lyric>
<syllabic>middle</syllabic>
<text>と</text>
</lyric>
</note>
</measure>
<measure number="43">
<note>
<pitch>
<step>D</step>
<alter>1</alter>
<octave>4</octave>
</pitch>
<duration>1440</duration>
<lyric>
<syllabic>middle</syllabic>
<text>ば</text>
</lyric>
</note>
<note>
<pitch>
<step>G</step>
<alter>1</alter>
<octave>3</octave>
</pitch>
<duration>1440</duration>
<lyric>
<syllabic>middle</syllabic>
<text>じゃ</text>
</lyric>
</note>
<note>
<pitch>
<step>G</step>
<alter>1</alter>
<octave>3</octave>
</pitch>
<duration>960</duration>
<lyric>
<syllabic>middle</syllabic>
<text>う</text>
</lyric>
</note>
</measure>
<measure number="44">
<note>
<pitch>
<step>G</step>
<octave>3</octave>
</pitch>
<duration>1440</duration>
<lyric>
<syllabic>middle</syllabic>
<text>ま</text>
</lyric>
</note>
<note>
<pitch>
<step>G</step>
<alter>1</alter>
<octave>3</octave>
</pitch>
<duration>960</duration>
<lyric>
<syllabic>middle</syllabic>
<text>く</text>
</lyric>
</note>
<note>
<rest />
<duration>480</duration>
</note>
<note>
<pitch>
<step>F</step>
<octave>3</octave>
</pitch>
<duration>960</duration>
<lyric>
<syllabic>middle</syllabic>
<text>い</text>
</lyric>
</note>
</measure>
<measure number="45">
<note>
<pitch>
<step>D</step>
<alter>1</alter>
<octave>4</octave>
</pitch>
<duration>1440</duration>
<lyric>
<syllabic>middle</syllabic>
<text>え</text>
</lyric>
</note>
<note>
<pitch>
<step>G</step>
<alter>1</alter>
<octave>3</octave>
</pitch>
<duration>1440</duration>
<lyric>
<syllabic>middle</syllabic>
<text>な</text>
</lyric>
</note>
<note>
<pitch>
<step>G</step>
<alter>1</alter>
<octave>3</octave>
</pitch>
<duration>960</duration>
<lyric>
<syllabic>middle</syllabic>
<text>い</text>
</lyric>
</note>
</measure>
<measure number="46">
<note>
<pitch>
<step>A</step>
<alter>1</alter>
<octave>3</octave>
</pitch>
<duration>960</duration>
<lyric>
<syllabic>middle</syllabic>
<text>け</text>
</lyric>
</note>
<note>
<pitch>
<step>C</step>
<octave>4</octave>
</pitch>
<duration>480</duration>
<lyric>
<syllabic>middle</syllabic>
<text>れ</text>
</lyric>
</note>
<note>
<pitch>
<step>G</step>
<alter>1</alter>
<octave>3</octave>
</pitch>
<duration>720</duration>
<lyric>
<syllabic>middle</syllabic>
<text>ど</text>
</lyric>
</note>
<note>
<rest />
<duration>720</duration>
</note>
<note>
<pitch>
<step>A</step>
<alter>1</alter>
<octave>2</octave>
</pitch>
<duration>480</duration>
<lyric>
<syllabic>middle</syllabic>
<text>あ</text>
</lyric>
</note>
<note>
<pitch>
<step>C</step>
<alter>1</alter>
<octave>3</octave>
</pitch>
<duration>480</duration>
<tie type="start" />
<notations>
<tied type="start" />
</notations>
<lyric>
<syllabic>begin</syllabic>
<text>りっ</text>
</lyric>
</note>
</measure>
<measure number="47">
<note>
<pitch>
<step>C</step>
<alter>1</alter>
<octave>3</octave>
</pitch>
<duration>480</duration>
<tie type="stop" />
<notations>
<tied type="stop" />
</notations>
<lyric>
<syllabic>end</syllabic>
<text />
</lyric>
</note>
<note>
<pitch>
<step>C</step>
<alter>1</alter>
<octave>3</octave>
</pitch>
<duration>480</duration>
<lyric>
<syllabic>single</syllabic>
<text>た</text>
</lyric>
</note>
<note>
<pitch>
<step>D</step>
<alter>1</alter>
<octave>3</octave>
</pitch>
<duration>480</duration>
<lyric>
<syllabic>single</syllabic>
<text>け</text>
</lyric>
</note>
<note>
<pitch>
<step>D</step>
<alter>1</alter>
<octave>3</octave>
</pitch>
<duration>480</duration>
<lyric>
<syllabic>single</syllabic>
<text>の</text>
</lyric>
</note>
<note>
<pitch>
<step>F</step>
<octave>3</octave>
</pitch>
<duration>480</duration>
<lyric>
<syllabic>single</syllabic>
<text>さ</text>
</lyric>
</note>
<note>
<pitch>
<step>D</step>
<alter>1</alter>
<octave>3</octave>
</pitch>
<duration>480</duration>
<lyric>
<syllabic>single</syllabic>
<text>ん</text>
</lyric>
</note>
<note>
<pitch>
<step>D</step>
<alter>1</alter>
<octave>3</octave>
</pitch>
<duration>480</duration>
<lyric>
<syllabic>single</syllabic>
<text>きゅ</text>
</lyric>
</note>
<note>
<pitch>
<step>F</step>
<octave>3</octave>
</pitch>
<duration>480</duration>
<tie type="start" />
<notations>
<tied type="start" />
</notations>
<lyric>
<syllabic>begin</syllabic>
<text>う</text>
</lyric>
</note>
</measure>
<measure number="48">
<note>
<pitch>
<step>F</step>
<octave>3</octave>
</pitch>
<duration>480</duration>
<tie type="stop" />
<notations>
<tied type="stop" />
</notations>
<lyric>
<syllabic>middle</syllabic>
<text />
</lyric>
</note>
<note>
<pitch>
<step>F</step>
<octave>3</octave>
</pitch>
<duration>480</duration>
<lyric>
<syllabic>middle</syllabic>
<text>つ</text>
</lyric>
</note>
<note>
<pitch>
<step>G</step>
<octave>3</octave>
</pitch>
<duration>480</duration>
<lyric>
<syllabic>middle</syllabic>
<text>め</text>
</lyric>
</note>
<note>
<pitch>
<step>G</step>
<alter>1</alter>
<octave>3</octave>
</pitch>
<duration>480</duration>
<lyric>
<syllabic>middle</syllabic>
<text>こ</text>
</lyric>
</note>
<note>
<pitch>
<step>A</step>
<alter>1</alter>
<octave>3</octave>
</pitch>
<duration>480</duration>
<lyric>
<syllabic>middle</syllabic>
<text>ん</text>
</lyric>
</note>
<note>
<pitch>
<step>G</step>
<alter>1</alter>
<octave>3</octave>
</pitch>
<duration>480</duration>
<lyric>
<syllabic>middle</syllabic>
<text>だ</text>
</lyric>
</note>
<note>
<pitch>
<step>A</step>
<alter>1</alter>
<octave>3</octave>
</pitch>
<duration>480</duration>
<lyric>
<syllabic>middle</syllabic>
<text>こ</text>
</lyric>
</note>
<note>
<pitch>
<step>C</step>
<octave>4</octave>
</pitch>
<duration>480</duration>
<tie type="start" />
<notations>
<tied type="start" />
</notations>
<lyric>
<syllabic>begin</syllabic>
<text>の</text>
</lyric>
</note>
</measure>
<measure number="49">
<note>
<pitch>
<step>C</step>
<octave>4</octave>
</pitch>
<duration>480</duration>
<tie type="stop" />
<notations>
<tied type="stop" />
</notations>
<lyric>
<syllabic>middle</syllabic>
<text />
</lyric>
</note>
<note>
<pitch>
<step>A</step>
<alter>1</alter>
<octave>3</octave>
</pitch>
<duration>480</duration>
<lyric>
<syllabic>middle</syllabic>
<text>う</text>
</lyric>
</note>
<note>
<pitch>
<step>D</step>
<alter>1</alter>
<octave>4</octave>
</pitch>
<duration>1680</duration>
<lyric>
<syllabic>middle</syllabic>
<text>た</text>
</lyric>
</note>
<note>
<rest />
<duration>720</duration>
</note>
<note>
<pitch>
<step>A</step>
<alter>1</alter>
<octave>3</octave>
</pitch>
<duration>480</duration>
<lyric>
<syllabic>middle</syllabic>
<text>き</text>
</lyric>
</note>
</measure>
<measure number="50">
<note>
<pitch>
<step>D</step>
<alter>1</alter>
<octave>4</octave>
</pitch>
<duration>960</duration>
<lyric>
<syllabic>middle</syllabic>
<text>み</text>
</lyric>
</note>
<note>
<pitch>
<step>C</step>
<alter>1</alter>
<octave>4</octave>
</pitch>
<duration>480</duration>
<lyric>
<syllabic>middle</syllabic>
<text>に</text>
</lyric>
</note>
<note>
<pitch>
<step>D</step>
<alter>1</alter>
<octave>4</octave>
</pitch>
<duration>960</duration>
<lyric>
<syllabic>middle</syllabic>
<text>と</text>
</lyric>
</note>
<note>
<pitch>
<step>G</step>
<alter>1</alter>
<octave>4</octave>
</pitch>
<duration>960</duration>
<lyric>
<syllabic>middle</syllabic>
<text>ど</text>
</lyric>
</note>
<note>
<pitch>
<step>F</step>
<octave>4</octave>
</pitch>
<duration>480</duration>
<tie type="start" />
<notations>
<tied type="start" />
</notations>
<lyric>
<syllabic>begin</syllabic>
<text>け</text>
</lyric>
</note>
</measure>
<measure number="51">
<note>
<pitch>
<step>F</step>
<octave>4</octave>
</pitch>
<duration>480</duration>
<tie type="stop" />
<notations>
<tied type="stop" />
</notations>
<lyric>
<syllabic>middle</syllabic>
<text />
</lyric>
</note>
<note>
<pitch>
<step>D</step>
<alter>1</alter>
<octave>4</octave>
</pitch>
<duration>480</duration>
<lyric>
<syllabic>middle</syllabic>
<text>る</text>
</lyric>
</note>
<note>
<pitch>
<step>C</step>
<alter>1</alter>
<octave>4</octave>
</pitch>
<duration>2880</duration>
<tie type="start" />
<notations>
<tied type="start" />
</notations>
<lyric>
<syllabic>begin</syllabic>
<text>よ</text>
</lyric>
</note>
</measure>
<measure number="52">
<note>
<pitch>
<step>C</step>
<alter>1</alter>
<octave>4</octave>
</pitch>
<duration>1440</duration>
<tie type="stop" />
<notations>
<tied type="stop" />
</notations>
<lyric>
<syllabic>middle</syllabic>
<text />
</lyric>
</note>
<note>
<rest />
<duration>2400</duration>
</note>
</measure>
<measure number="53">
<note>
<rest />
<duration>3840</duration>
</note>
</measure>
<measure number="54">
<note>
<rest />
<duration>3840</duration>
</note>
</measure>
<measure number="55">
<note>
<rest />
<duration>3840</duration>
</note>
</measure>
<measure number="56">
<note>
<rest />
<duration>3840</duration>
</note>
</measure>
<measure number="57">
<note>
<rest />
<duration>3840</duration>
</note>
</measure>
<measure number="58">
<note>
<rest />
<duration>3840</duration>
</note>
</measure>
<measure number="59">
<note>
<rest />
<duration>3840</duration>
</note>
</measure>
<measure number="60">
<note>
<rest />
<duration>3840</duration>
</note>
</measure>
<measure number="61">
<note>
<rest />
<duration>3840</duration>
</note>
</measure>
<measure number="62">
<note>
<rest />
<duration>3840</duration>
</note>
</measure>
<measure number="63">
<note>
<rest />
<duration>3840</duration>
</note>
</measure>
<measure number="64">
<note>
<rest />
<duration>3840</duration>
</note>
</measure>
<measure number="65">
<note>
<rest />
<duration>3840</duration>
</note>
</measure>
<measure number="66">
<note>
<rest />
<duration>3840</duration>
</note>
</measure>
<measure number="67">
<note>
<rest />
<duration>480</duration>
</note>
<note>
<pitch>
<step>G</step>
<alter>1</alter>
<octave>3</octave>
</pitch>
<duration>480</duration>
<lyric>
<syllabic>single</syllabic>
<text>は</text>
</lyric>
</note>
<note>
<pitch>
<step>G</step>
<alter>1</alter>
<octave>3</octave>
</pitch>
<duration>480</duration>
<lyric>
<syllabic>single</syllabic>
<text>じ</text>
</lyric>
</note>
<note>
<pitch>
<step>G</step>
<alter>1</alter>
<octave>3</octave>
</pitch>
<duration>480</duration>
<lyric>
<syllabic>single</syllabic>
<text>め</text>
</lyric>
</note>
<note>
<pitch>
<step>G</step>
<alter>1</alter>
<octave>3</octave>
</pitch>
<duration>480</duration>
<lyric>
<syllabic>single</syllabic>
<text>て</text>
</lyric>
</note>
<note>
<pitch>
<step>G</step>
<alter>1</alter>
<octave>3</octave>
</pitch>
<duration>480</duration>
<lyric>
<syllabic>single</syllabic>
<text>き</text>
</lyric>
</note>
<note>
<pitch>
<step>G</step>
<alter>1</alter>
<octave>3</octave>
</pitch>
<duration>480</duration>
<lyric>
<syllabic>single</syllabic>
<text>い</text>
</lyric>
</note>
<note>
<pitch>
<step>G</step>
<alter>1</alter>
<octave>3</octave>
</pitch>
<duration>480</duration>
<tie type="start" />
<notations>
<tied type="start" />
</notations>
<lyric>
<syllabic>begin</syllabic>
<text>た</text>
</lyric>
</note>
</measure>
<measure number="68">
<note>
<pitch>
<step>G</step>
<alter>1</alter>
<octave>3</octave>
</pitch>
<duration>480</duration>
<tie type="stop" />
<notations>
<tied type="stop" />
</notations>
<lyric>
<syllabic>middle</syllabic>
<text />
</lyric>
</note>
<note>
<pitch>
<step>G</step>
<octave>3</octave>
</pitch>
<duration>960</duration>
<lyric>
<syllabic>middle</syllabic>
<text>き</text>
</lyric>
</note>
<note>
<pitch>
<step>D</step>
<alter>1</alter>
<octave>3</octave>
</pitch>
<duration>960</duration>
<lyric>
<syllabic>middle</syllabic>
<text>み</text>
</lyric>
</note>
<note>
<pitch>
<step>C</step>
<octave>3</octave>
</pitch>
<duration>480</duration>
<lyric>
<syllabic>middle</syllabic>
<text>の</text>
</lyric>
</note>
<note>
<pitch>
<step>C</step>
<alter>1</alter>
<octave>3</octave>
</pitch>
<duration>480</duration>
<lyric>
<syllabic>middle</syllabic>
<text>こ</text>
</lyric>
</note>
<note>
<pitch>
<step>D</step>
<alter>1</alter>
<octave>3</octave>
</pitch>
<duration>480</duration>
<lyric>
<syllabic>middle</syllabic>
<text>え</text>
</lyric>
</note>
</measure>
<measure number="69">
<note>
<rest />
<duration>480</duration>
</note>
<note>
<pitch>
<step>G</step>
<alter>1</alter>
<octave>3</octave>
</pitch>
<duration>480</duration>
<lyric>
<syllabic>middle</syllabic>
<text>り</text>
</lyric>
</note>
<note>
<pitch>
<step>G</step>
<alter>1</alter>
<octave>3</octave>
</pitch>
<duration>480</duration>
<lyric>
<syllabic>middle</syllabic>
<text>か</text>
</lyric>
</note>
<note>
<pitch>
<step>G</step>
<alter>1</alter>
<octave>3</octave>
</pitch>
<duration>480</duration>
<lyric>
<syllabic>middle</syllabic>
<text>い</text>
</lyric>
</note>
<note>
<pitch>
<step>G</step>
<alter>1</alter>
<octave>3</octave>
</pitch>
<duration>480</duration>
<lyric>
<syllabic>middle</syllabic>
<text>ふ</text>
</lyric>
</note>
<note>
<pitch>
<step>G</step>
<octave>3</octave>
</pitch>
<duration>480</duration>
<lyric>
<syllabic>middle</syllabic>
<text>の</text>
</lyric>
</note>
<note>
<pitch>
<step>G</step>
<alter>1</alter>
<octave>3</octave>
</pitch>
<duration>480</duration>
<lyric>
<syllabic>middle</syllabic>
<text>お</text>
</lyric>
</note>
<note>
<pitch>
<step>A</step>
<alter>1</alter>
<octave>3</octave>
</pitch>
<duration>480</duration>
<tie type="start" />
<notations>
<tied type="start" />
</notations>
<lyric>
<syllabic>begin</syllabic>
<text>だ</text>
</lyric>
</note>
</measure>
<measure number="70">
<note>
<pitch>
<step>A</step>
<alter>1</alter>
<octave>3</octave>
</pitch>
<duration>480</duration>
<tie type="stop" />
<notations>
<tied type="stop" />
</notations>
<lyric>
<syllabic>middle</syllabic>
<text />
</lyric>
</note>
<note>
<pitch>
<step>C</step>
<octave>4</octave>
</pitch>
<duration>960</duration>
<lyric>
<syllabic>middle</syllabic>
<text>あっ</text>
</lyric>
</note>
<note>
<pitch>
<step>G</step>
<alter>1</alter>
<octave>3</octave>
</pitch>
<duration>960</duration>
<lyric>
<syllabic>middle</syllabic>
<text>た</text>
</lyric>
</note>
<note>
<pitch>
<step>G</step>
<octave>3</octave>
</pitch>
<duration>960</duration>
<lyric>
<syllabic>middle</syllabic>
<text>け</text>
</lyric>
</note>
<note>
<pitch>
<step>G</step>
<alter>1</alter>
<octave>3</octave>
</pitch>
<duration>480</duration>
<lyric>
<syllabic>middle</syllabic>
<text>ど</text>
</lyric>
</note>
</measure>
<measure number="71">
<note>
<rest />
<duration>480</duration>
</note>
<note>
<pitch>
<step>G</step>
<alter>1</alter>
<octave>3</octave>
</pitch>
<duration>480</duration>
<lyric>
<syllabic>middle</syllabic>
<text>ふ</text>
</lyric>
</note>
<note>
<pitch>
<step>G</step>
<alter>1</alter>
<octave>3</octave>
</pitch>
<duration>480</duration>
<lyric>
<syllabic>middle</syllabic>
<text>し</text>
</lyric>
</note>
<note>
<pitch>
<step>G</step>
<alter>1</alter>
<octave>3</octave>
</pitch>
<duration>480</duration>
<lyric>
<syllabic>middle</syllabic>
<text>ぎ</text>
</lyric>
</note>
<note>
<pitch>
<step>G</step>
<alter>1</alter>
<octave>3</octave>
</pitch>
<duration>480</duration>
<lyric>
<syllabic>middle</syllabic>
<text>と</text>
</lyric>
</note>
<note>
<pitch>
<step>G</step>
<alter>1</alter>
<octave>3</octave>
</pitch>
<duration>480</duration>
<lyric>
<syllabic>middle</syllabic>
<text>こ</text>
</lyric>
</note>
<note>
<pitch>
<step>G</step>
<alter>1</alter>
<octave>3</octave>
</pitch>
<duration>480</duration>
<lyric>
<syllabic>middle</syllabic>
<text>こ</text>
</lyric>
</note>
<note>
<pitch>
<step>G</step>
<alter>1</alter>
<octave>3</octave>
</pitch>
<duration>480</duration>
<tie type="start" />
<notations>
<tied type="start" />
</notations>
<lyric>
<syllabic>begin</syllabic>
<text>ろ</text>
</lyric>
</note>
</measure>
<measure number="72">
<note>
<pitch>
<step>G</step>
<alter>1</alter>
<octave>3</octave>
</pitch>
<duration>480</duration>
<tie type="stop" />
<notations>
<tied type="stop" />
</notations>
<lyric>
<syllabic>middle</syllabic>
<text />
</lyric>
</note>
<note>
<pitch>
<step>G</step>
<octave>3</octave>
</pitch>
<duration>960</duration>
<lyric>
<syllabic>middle</syllabic>
<text>に</text>
</lyric>
</note>
<note>
<pitch>
<step>D</step>
<alter>1</alter>
<octave>3</octave>
</pitch>
<duration>960</duration>
<lyric>
<syllabic>middle</syllabic>
<text>ひ</text>
</lyric>
</note>
<note>
<pitch>
<step>C</step>
<octave>3</octave>
</pitch>
<duration>480</duration>
<lyric>
<syllabic>middle</syllabic>
<text>び</text>
</lyric>
</note>
<note>
<pitch>
<step>C</step>
<alter>1</alter>
<octave>3</octave>
</pitch>
<duration>480</duration>
<lyric>
<syllabic>middle</syllabic>
<text>い</text>
</lyric>
</note>
<note>
<pitch>
<step>D</step>
<alter>1</alter>
<octave>3</octave>
</pitch>
<duration>480</duration>
<lyric>
<syllabic>middle</syllabic>
<text>て</text>
</lyric>
</note>
</measure>
<measure number="73">
<note>
<rest />
<duration>480</duration>
</note>
<note>
<pitch>
<step>G</step>
<alter>1</alter>
<octave>3</octave>
</pitch>
<duration>480</duration>
<lyric>
<syllabic>middle</syllabic>
<text>こ</text>
</lyric>
</note>
<note>
<pitch>
<step>G</step>
<alter>1</alter>
<octave>3</octave>
</pitch>
<duration>480</duration>
<lyric>
<syllabic>middle</syllabic>
<text>い</text>
</lyric>
</note>
<note>
<pitch>
<step>G</step>
<alter>1</alter>
<octave>3</octave>
</pitch>
<duration>480</duration>
<lyric>
<syllabic>middle</syllabic>
<text>お</text>
</lyric>
</note>
<note>
<pitch>
<step>G</step>
<alter>1</alter>
<octave>3</octave>
</pitch>
<duration>480</duration>
<lyric>
<syllabic>middle</syllabic>
<text>し</text>
</lyric>
</note>
<note>
<pitch>
<step>G</step>
<octave>3</octave>
</pitch>
<duration>480</duration>
<lyric>
<syllabic>middle</syllabic>
<text>た</text>
</lyric>
</note>
<note>
<pitch>
<step>A</step>
<alter>1</alter>
<octave>3</octave>
</pitch>
<duration>480</duration>
<lyric>
<syllabic>middle</syllabic>
<text>ん</text>
</lyric>
</note>
<note>
<pitch>
<step>G</step>
<alter>1</alter>
<octave>3</octave>
</pitch>
<duration>480</duration>
<tie type="start" />
<notations>
<tied type="start" />
</notations>
<lyric>
<syllabic>begin</syllabic>
<text>だ</text>
</lyric>
</note>
</measure>
<measure number="74">
<note>
<pitch>
<step>G</step>
<alter>1</alter>
<octave>3</octave>
</pitch>
<duration>1440</duration>
<tie type="stop" />
<notations>
<tied type="stop" />
</notations>
<lyric>
<syllabic>middle</syllabic>
<text />
</lyric>
</note>
<note>
<rest />
<duration>2400</duration>
</note>
</measure>
<measure number="75">
<note>
<rest />
<duration>2880</duration>
</note>
<note>
<pitch>
<step>D</step>
<alter>1</alter>
<octave>3</octave>
</pitch>
<duration>960</duration>
<lyric>
<syllabic>single</syllabic>
<text>き</text>
</lyric>
</note>
</measure>
<measure number="76">
<note>
<pitch>
<step>G</step>
<alter>1</alter>
<octave>3</octave>
</pitch>
<duration>960</duration>
<lyric>
<syllabic>single</syllabic>
<text>づ</text>
</lyric>
</note>
<note>
<pitch>
<step>A</step>
<alter>1</alter>
<octave>3</octave>
</pitch>
<duration>960</duration>
<lyric>
<syllabic>single</syllabic>
<text>け</text>
</lyric>
</note>
<note>
<pitch>
<step>C</step>
<octave>4</octave>
</pitch>
<duration>960</duration>
<lyric>
<syllabic>single</syllabic>
<text>ば</text>
</lyric>
</note>
<note>
<pitch>
<step>G</step>
<alter>1</alter>
<octave>3</octave>
</pitch>
<duration>960</duration>
<tie type="start" />
<notations>
<tied type="start" />
</notations>
<lyric>
<syllabic>begin</syllabic>
<text>ほ</text>
</lyric>
</note>
</measure>
<measure number="77">
<note>
<pitch>
<step>G</step>
<alter>1</alter>
<octave>3</octave>
</pitch>
<duration>960</duration>
<tie type="stop" />
<notations>
<tied type="stop" />
</notations>
<lyric>
<syllabic>middle</syllabic>
<text />
</lyric>
</note>
<note>
<pitch>
<step>G</step>
<octave>3</octave>
</pitch>
<duration>960</duration>
<lyric>
<syllabic>middle</syllabic>
<text>ら</text>
</lyric>
</note>
<note>
<rest />
<duration>1920</duration>
</note>
</measure>
<measure number="78">
<note>
<rest />
<duration>3840</duration>
</note>
</measure>
<measure number="79">
<note>
<rest />
<duration>2880</duration>
</note>
<note>
<pitch>
<step>D</step>
<alter>1</alter>
<octave>3</octave>
</pitch>
<duration>960</duration>
<lyric>
<syllabic>single</syllabic>
<text>ぼ</text>
</lyric>
</note>
</measure>
<measure number="80">
<note>
<pitch>
<step>G</step>
<alter>1</alter>
<octave>3</octave>
</pitch>
<duration>960</duration>
<lyric>
<syllabic>single</syllabic>
<text>く</text>
</lyric>
</note>
<note>
<pitch>
<step>A</step>
<alter>1</alter>
<octave>3</octave>
</pitch>
<duration>960</duration>
<lyric>
<syllabic>single</syllabic>
<text>うぉ</text>
</lyric>
</note>
<note>
<pitch>
<step>C</step>
<octave>4</octave>
</pitch>
<duration>960</duration>
<lyric>
<syllabic>single</syllabic>
<text>み</text>
</lyric>
</note>
<note>
<pitch>
<step>G</step>
<alter>1</alter>
<octave>3</octave>
</pitch>
<duration>960</duration>
<lyric>
<syllabic>single</syllabic>
<text>ち</text>
</lyric>
</note>
</measure>
<measure number="81">
<note>
<pitch>
<step>D</step>
<alter>1</alter>
<octave>4</octave>
</pitch>
<duration>480</duration>
<lyric>
<syllabic>single</syllabic>
<text>び</text>
</lyric>
</note>
<note>
<pitch>
<step>C</step>
<alter>1</alter>
<octave>4</octave>
</pitch>
<duration>960</duration>
<lyric>
<syllabic>single</syllabic>
<text>い</text>
</lyric>
</note>
<note>
<pitch>
<step>C</step>
<octave>4</octave>
</pitch>
<duration>960</duration>
<lyric>
<syllabic>single</syllabic>
<text>て</text>
</lyric>
</note>
<note>
<pitch>
<step>A</step>
<alter>1</alter>
<octave>3</octave>
</pitch>
<duration>960</duration>
<lyric>
<syllabic>single</syllabic>
<text>き</text>
</lyric>
</note>
<note>
<pitch>
<step>C</step>
<octave>4</octave>
</pitch>
<duration>480</duration>
<tie type="start" />
<notations>
<tied type="start" />
</notations>
<lyric>
<syllabic>begin</syllabic>
<text>た</text>
</lyric>
</note>
</measure>
<measure number="82">
<note>
<pitch>
<step>C</step>
<octave>4</octave>
</pitch>
<duration>960</duration>
<tie type="stop" />
<notations>
<tied type="stop" />
</notations>
<lyric>
<syllabic>middle</syllabic>
<text />
</lyric>
</note>
<note>
<pitch>
<step>A</step>
<alter>1</alter>
<octave>3</octave>
</pitch>
<duration>960</duration>
<lyric>
<syllabic>middle</syllabic>
<text>こ</text>
</lyric>
</note>
<note>
<pitch>
<step>G</step>
<alter>1</alter>
<octave>3</octave>
</pitch>
<duration>960</duration>
<lyric>
<syllabic>middle</syllabic>
<text>え</text>
</lyric>
</note>
<note>
<pitch>
<step>A</step>
<alter>1</alter>
<octave>3</octave>
</pitch>
<duration>960</duration>
<lyric>
<syllabic>middle</syllabic>
<text>に</text>
</lyric>
</note>
</measure>
<measure number="83">
<note>
<rest />
<duration>2880</duration>
</note>
<note>
<pitch>
<step>D</step>
<alter>1</alter>
<octave>3</octave>
</pitch>
<duration>960</duration>
<lyric>
<syllabic>middle</syllabic>
<text>だ</text>
</lyric>
</note>
</measure>
<measure number="84">
<note>
<pitch>
<step>G</step>
<alter>1</alter>
<octave>3</octave>
</pitch>
<duration>960</duration>
<lyric>
<syllabic>middle</syllabic>
<text>れ</text>
</lyric>
</note>
<note>
<pitch>
<step>A</step>
<alter>1</alter>
<octave>3</octave>
</pitch>
<duration>960</duration>
<lyric>
<syllabic>middle</syllabic>
<text>か</text>
</lyric>
</note>
<note>
<pitch>
<step>C</step>
<octave>4</octave>
</pitch>
<duration>960</duration>
<lyric>
<syllabic>middle</syllabic>
<text>が</text>
</lyric>
</note>
<note>
<pitch>
<step>G</step>
<alter>1</alter>
<octave>3</octave>
</pitch>
<duration>960</duration>
<tie type="start" />
<notations>
<tied type="start" />
</notations>
<lyric>
<syllabic>begin</syllabic>
<text>ま</text>
</lyric>
</note>
</measure>
<measure number="85">
<note>
<pitch>
<step>G</step>
<alter>1</alter>
<octave>3</octave>
</pitch>
<duration>960</duration>
<tie type="stop" />
<notations>
<tied type="stop" />
</notations>
<lyric>
<syllabic>middle</syllabic>
<text />
</lyric>
</note>
<note>
<pitch>
<step>G</step>
<octave>3</octave>
</pitch>
<duration>960</duration>
<lyric>
<syllabic>middle</syllabic>
<text>た</text>
</lyric>
</note>
<note>
<rest />
<duration>1920</duration>
</note>
</measure>
<measure number="86">
<note>
<rest />
<duration>3360</duration>
</note>
<note>
<pitch>
<step>C</step>
<alter>1</alter>
<octave>3</octave>
</pitch>
<duration>480</duration>
<lyric>
<syllabic>single</syllabic>
<text>い</text>
</lyric>
</note>
</measure>
<measure number="87">
<note>
<pitch>
<step>C</step>
<alter>1</alter>
<octave>3</octave>
</pitch>
<duration>960</duration>
<lyric>
<syllabic>single</syllabic>
<text>ろ</text>
</lyric>
</note>
<note>
<pitch>
<step>C</step>
<octave>3</octave>
</pitch>
<duration>480</duration>
<lyric>
<syllabic>single</syllabic>
<text>うぉ</text>
</lyric>
</note>
<note>
<pitch>
<step>C</step>
<alter>1</alter>
<octave>3</octave>
</pitch>
<duration>960</duration>
<lyric>
<syllabic>single</syllabic>
<text>つ</text>
</lyric>
</note>
<note>
<pitch>
<step>D</step>
<alter>1</alter>
<octave>3</octave>
</pitch>
<duration>480</duration>
<lyric>
<syllabic>single</syllabic>
<text>け</text>
</lyric>
</note>
<note>
<pitch>
<step>G</step>
<alter>1</alter>
<octave>3</octave>
</pitch>
<duration>960</duration>
<tie type="start" />
<notations>
<tied type="start" />
</notations>
<lyric>
<syllabic>begin</syllabic>
<text>て</text>
</lyric>
</note>
</measure>
<measure number="88">
<note>
<pitch>
<step>G</step>
<alter>1</alter>
<octave>3</octave>
</pitch>
<duration>960</duration>
<tie type="stop" />
<notations>
<tied type="stop" />
</notations>
<lyric>
<syllabic>middle</syllabic>
<text />
</lyric>
</note>
<note>
<rest />
<duration>1920</duration>
</note>
<note>
<pitch>
<step>G</step>
<alter>1</alter>
<octave>3</octave>
</pitch>
<duration>480</duration>
<lyric>
<syllabic>middle</syllabic>
<text>つ</text>
</lyric>
</note>
<note>
<pitch>
<step>G</step>
<alter>1</alter>
<octave>3</octave>
</pitch>
<duration>480</duration>
<lyric>
<syllabic>middle</syllabic>
<text>な</text>
</lyric>
</note>
</measure>
<measure number="89">
<note>
<pitch>
<step>G</step>
<alter>1</alter>
<octave>3</octave>
</pitch>
<duration>1440</duration>
<lyric>
<syllabic>middle</syllabic>
<text>がっ</text>
</lyric>
</note>
<note>
<pitch>
<step>G</step>
<alter>1</alter>
<octave>3</octave>
</pitch>
<duration>960</duration>
<lyric>
<syllabic>middle</syllabic>
<text>て</text>
</lyric>
</note>
<note>
<pitch>
<step>G</step>
<octave>3</octave>
</pitch>
<duration>480</duration>
<lyric>
<syllabic>middle</syllabic>
<text>く</text>
</lyric>
</note>
<note>
<pitch>
<step>G</step>
<alter>1</alter>
<octave>3</octave>
</pitch>
<duration>480</duration>
<lyric>
<syllabic>middle</syllabic>
<text>ん</text>
</lyric>
</note>
<note>
<pitch>
<step>A</step>
<alter>1</alter>
<octave>3</octave>
</pitch>
<duration>480</duration>
<tie type="start" />
<notations>
<tied type="start" />
</notations>
<lyric>
<syllabic>begin</syllabic>
<text>だ</text>
</lyric>
</note>
</measure>
<measure number="90">
<note>
<pitch>
<step>A</step>
<alter>1</alter>
<octave>3</octave>
</pitch>
<duration>960</duration>
<tie type="stop" />
<notations>
<tied type="stop" />
</notations>
<lyric>
<syllabic>middle</syllabic>
<text />
</lyric>
</note>
<note>
<rest />
<duration>960</duration>
</note>
<note>
<pitch>
<step>A</step>
<alter>1</alter>
<octave>3</octave>
</pitch>
<duration>1920</duration>
<lyric>
<syllabic>middle</syllabic>
<text>きっ</text>
</lyric>
</note>
</measure>
<measure number="91">
<note>
<pitch>
<step>C</step>
<octave>4</octave>
</pitch>
<duration>3840</duration>
<lyric>
<syllabic>middle</syllabic>
<text>と</text>
</lyric>
</note>
</measure>
<measure number="92">
<note>
<rest />
<duration>3840</duration>
</note>
</measure>
<measure number="93">
<note>
<rest />
<duration>3840</duration>
</note>
</measure>
<measure number="94">
<note>
<rest />
<duration>3840</duration>
</note>
</measure>
<measure number="95">
<note>
<rest />
<duration>3840</duration>
</note>
</measure>
<measure number="96">
<note>
<rest />
<duration>3840</duration>
</note>
</measure>
<measure number="97">
<note>
<rest />
<duration>3840</duration>
</note>
</measure>
<measure number="98">
<note>
<rest />
<duration>3840</duration>
</note>
</measure>
<measure number="99">
<note>
<rest />
<duration>3840</duration>
</note>
</measure>
<measure number="100">
<note>
<rest />
<duration>3840</duration>
</note>
</measure>
<measure number="101">
<note>
<rest />
<duration>3840</duration>
</note>
</measure>
<measure number="102">
<note>
<rest />
<duration>3840</duration>
</note>
</measure>
<measure number="103">
<note>
<rest />
<duration>3840</duration>
</note>
</measure>
<measure number="104">
<note>
<rest />
<duration>3840</duration>
</note>
</measure>
<measure number="105">
<note>
<rest />
<duration>3840</duration>
</note>
</measure>
<measure number="106">
<note>
<rest />
<duration>3840</duration>
</note>
</measure>
<measure number="107">
<note>
<rest />
<duration>2880</duration>
</note>
<note>
<pitch>
<step>D</step>
<alter>1</alter>
<octave>3</octave>
</pitch>
<duration>960</duration>
<lyric>
<syllabic>single</syllabic>
<text>き</text>
</lyric>
</note>
</measure>
<measure number="108">
<note>
<pitch>
<step>G</step>
<alter>1</alter>
<octave>3</octave>
</pitch>
<duration>960</duration>
<lyric>
<syllabic>single</syllabic>
<text>づ</text>
</lyric>
</note>
<note>
<pitch>
<step>A</step>
<alter>1</alter>
<octave>3</octave>
</pitch>
<duration>960</duration>
<lyric>
<syllabic>single</syllabic>
<text>け</text>
</lyric>
</note>
<note>
<pitch>
<step>C</step>
<octave>4</octave>
</pitch>
<duration>960</duration>
<lyric>
<syllabic>single</syllabic>
<text>ば</text>
</lyric>
</note>
<note>
<pitch>
<step>G</step>
<alter>1</alter>
<octave>3</octave>
</pitch>
<duration>960</duration>
<tie type="start" />
<notations>
<tied type="start" />
</notations>
<lyric>
<syllabic>begin</syllabic>
<text>ほ</text>
</lyric>
</note>
</measure>
<measure number="109">
<note>
<pitch>
<step>G</step>
<alter>1</alter>
<octave>3</octave>
</pitch>
<duration>960</duration>
<tie type="stop" />
<notations>
<tied type="stop" />
</notations>
<lyric>
<syllabic>middle</syllabic>
<text />
</lyric>
</note>
<note>
<pitch>
<step>G</step>
<octave>3</octave>
</pitch>
<duration>960</duration>
<lyric>
<syllabic>middle</syllabic>
<text>ら</text>
</lyric>
</note>
<note>
<rest />
<duration>1920</duration>
</note>
</measure>
<measure number="110">
<note>
<rest />
<duration>3840</duration>
</note>
</measure>
<measure number="111">
<note>
<rest />
<duration>2880</duration>
</note>
<note>
<pitch>
<step>D</step>
<alter>1</alter>
<octave>3</octave>
</pitch>
<duration>960</duration>
<lyric>
<syllabic>single</syllabic>
<text>き</text>
</lyric>
</note>
</measure>
<measure number="112">
<note>
<pitch>
<step>G</step>
<alter>1</alter>
<octave>3</octave>
</pitch>
<duration>960</duration>
<lyric>
<syllabic>single</syllabic>
<text>み</text>
</lyric>
</note>
<note>
<pitch>
<step>A</step>
<alter>1</alter>
<octave>3</octave>
</pitch>
<duration>960</duration>
<lyric>
<syllabic>single</syllabic>
<text>と</text>
</lyric>
</note>
<note>
<pitch>
<step>C</step>
<octave>4</octave>
</pitch>
<duration>960</duration>
<lyric>
<syllabic>single</syllabic>
<text>あ</text>
</lyric>
</note>
<note>
<pitch>
<step>G</step>
<alter>1</alter>
<octave>3</octave>
</pitch>
<duration>960</duration>
<lyric>
<syllabic>single</syllabic>
<text>る</text>
</lyric>
</note>
</measure>
<measure number="113">
<note>
<pitch>
<step>D</step>
<alter>1</alter>
<octave>4</octave>
</pitch>
<duration>480</duration>
<lyric>
<syllabic>single</syllabic>
<text>い</text>
</lyric>
</note>
<note>
<pitch>
<step>C</step>
<alter>1</alter>
<octave>4</octave>
</pitch>
<duration>960</duration>
<lyric>
<syllabic>single</syllabic>
<text>て</text>
</lyric>
</note>
<note>
<pitch>
<step>C</step>
<octave>4</octave>
</pitch>
<duration>960</duration>
<lyric>
<syllabic>single</syllabic>
<text>き</text>
</lyric>
</note>
<note>
<pitch>
<step>A</step>
<alter>1</alter>
<octave>3</octave>
</pitch>
<duration>960</duration>
<lyric>
<syllabic>single</syllabic>
<text>た</text>
</lyric>
</note>
<note>
<pitch>
<step>C</step>
<octave>4</octave>
</pitch>
<duration>480</duration>
<tie type="start" />
<notations>
<tied type="start" />
</notations>
<lyric>
<syllabic>begin</syllabic>
<text>き</text>
</lyric>
</note>
</measure>
<measure number="114">
<note>
<pitch>
<step>C</step>
<octave>4</octave>
</pitch>
<duration>960</duration>
<tie type="stop" />
<notations>
<tied type="stop" />
</notations>
<lyric>
<syllabic>middle</syllabic>
<text />
</lyric>
</note>
<note>
<pitch>
<step>A</step>
<alter>1</alter>
<octave>3</octave>
</pitch>
<duration>960</duration>
<lyric>
<syllabic>middle</syllabic>
<text>せ</text>
</lyric>
</note>
<note>
<pitch>
<step>G</step>
<alter>1</alter>
<octave>3</octave>
</pitch>
<duration>960</duration>
<lyric>
<syllabic>middle</syllabic>
<text>き</text>
</lyric>
</note>
<note>
<pitch>
<step>A</step>
<alter>1</alter>
<octave>3</octave>
</pitch>
<duration>960</duration>
<lyric>
<syllabic>middle</syllabic>
<text>が</text>
</lyric>
</note>
</measure>
<measure number="115">
<note>
<rest />
<duration>2880</duration>
</note>
<note>
<pitch>
<step>D</step>
<alter>1</alter>
<octave>3</octave>
</pitch>
<duration>960</duration>
<lyric>
<syllabic>middle</syllabic>
<text>み</text>
</lyric>
</note>
</measure>
<measure number="116">
<note>
<pitch>
<step>G</step>
<alter>1</alter>
<octave>3</octave>
</pitch>
<duration>960</duration>
<lyric>
<syllabic>middle</syllabic>
<text>た</text>
</lyric>
</note>
<note>
<pitch>
<step>A</step>
<alter>1</alter>
<octave>3</octave>
</pitch>
<duration>960</duration>
<lyric>
<syllabic>middle</syllabic>
<text>こ</text>
</lyric>
</note>
<note>
<pitch>
<step>C</step>
<octave>4</octave>
</pitch>
<duration>960</duration>
<lyric>
<syllabic>middle</syllabic>
<text>と</text>
</lyric>
</note>
<note>
<pitch>
<step>G</step>
<alter>1</alter>
<octave>3</octave>
</pitch>
<duration>960</duration>
<tie type="start" />
<notations>
<tied type="start" />
</notations>
<lyric>
<syllabic>begin</syllabic>
<text>な</text>
</lyric>
</note>
</measure>
<measure number="117">
<note>
<pitch>
<step>G</step>
<alter>1</alter>
<octave>3</octave>
</pitch>
<duration>960</duration>
<tie type="stop" />
<notations>
<tied type="stop" />
</notations>
<lyric>
<syllabic>middle</syllabic>
<text />
</lyric>
</note>
<note>
<pitch>
<step>G</step>
<octave>3</octave>
</pitch>
<duration>960</duration>
<lyric>
<syllabic>middle</syllabic>
<text>い</text>
</lyric>
</note>
<note>
<rest />
<duration>1920</duration>
</note>
</measure>
<measure number="118">
<note>
<rest />
<duration>3360</duration>
</note>
<note>
<pitch>
<step>C</step>
<alter>1</alter>
<octave>3</octave>
</pitch>
<duration>480</duration>
<lyric>
<syllabic>single</syllabic>
<text>き</text>
</lyric>
</note>
</measure>
<measure number="119">
<note>
<pitch>
<step>C</step>
<alter>1</alter>
<octave>3</octave>
</pitch>
<duration>960</duration>
<lyric>
<syllabic>single</syllabic>
<text>れ</text>
</lyric>
</note>
<note>
<pitch>
<step>C</step>
<octave>3</octave>
</pitch>
<duration>480</duration>
<lyric>
<syllabic>single</syllabic>
<text>な</text>
</lyric>
</note>
<note>
<pitch>
<step>C</step>
<alter>1</alter>
<octave>3</octave>
</pitch>
<duration>960</duration>
<lyric>
<syllabic>single</syllabic>
<text>い</text>
</lyric>
</note>
<note>
<pitch>
<step>D</step>
<alter>1</alter>
<octave>3</octave>
</pitch>
<duration>480</duration>
<lyric>
<syllabic>single</syllabic>
<text>ろ</text>
</lyric>
</note>
<note>
<pitch>
<step>G</step>
<alter>1</alter>
<octave>3</octave>
</pitch>
<duration>960</duration>
<tie type="start" />
<notations>
<tied type="start" />
</notations>
<lyric>
<syllabic>begin</syllabic>
<text>に</text>
</lyric>
</note>
</measure>
<measure number="120">
<note>
<pitch>
<step>G</step>
<alter>1</alter>
<octave>3</octave>
</pitch>
<duration>960</duration>
<tie type="stop" />
<notations>
<tied type="stop" />
</notations>
<lyric>
<syllabic>middle</syllabic>
<text />
</lyric>
</note>
<note>
<rest />
<duration>2400</duration>
</note>
<note>
<pitch>
<step>G</step>
<alter>1</alter>
<octave>3</octave>
</pitch>
<duration>480</duration>
<lyric>
<syllabic>middle</syllabic>
<text>そ</text>
</lyric>
</note>
</measure>
<measure number="121">
<note>
<pitch>
<step>G</step>
<alter>1</alter>
<octave>3</octave>
</pitch>
<duration>1440</duration>
<lyric>
<syllabic>middle</syllabic>
<text>まっ</text>
</lyric>
</note>
<note>
<pitch>
<step>G</step>
<alter>1</alter>
<octave>3</octave>
</pitch>
<duration>960</duration>
<lyric>
<syllabic>middle</syllabic>
<text>て</text>
</lyric>
</note>
<note>
<pitch>
<step>G</step>
<octave>3</octave>
</pitch>
<duration>480</duration>
<lyric>
<syllabic>middle</syllabic>
<text>た</text>
</lyric>
</note>
<note>
<pitch>
<step>G</step>
<alter>1</alter>
<octave>3</octave>
</pitch>
<duration>480</duration>
<lyric>
<syllabic>middle</syllabic>
<text>ん</text>
</lyric>
</note>
<note>
<pitch>
<step>A</step>
<alter>1</alter>
<octave>3</octave>
</pitch>
<duration>480</duration>
<tie type="start" />
<notations>
<tied type="start" />
</notations>
<lyric>
<syllabic>begin</syllabic>
<text>だ</text>
</lyric>
</note>
</measure>
<measure number="122">
<note>
<pitch>
<step>A</step>
<alter>1</alter>
<octave>3</octave>
</pitch>
<duration>1440</duration>
<tie type="stop" />
<notations>
<tied type="stop" />
</notations>
<lyric>
<syllabic>middle</syllabic>
<text />
</lyric>
</note>
<note>
<rest />
<duration>1440</duration>
</note>
<note>
<pitch>
<step>F</step>
<octave>3</octave>
</pitch>
<duration>480</duration>
<lyric>
<syllabic>middle</syllabic>
<text>ぼ</text>
</lyric>
</note>
<note>
<pitch>
<step>G</step>
<alter>1</alter>
<octave>3</octave>
</pitch>
<duration>480</duration>
<lyric>
<syllabic>middle</syllabic>
<text>く</text>
</lyric>
</note>
</measure>
<measure number="123">
<note>
<pitch>
<step>D</step>
<alter>1</alter>
<octave>4</octave>
</pitch>
<duration>1440</duration>
<lyric>
<syllabic>middle</syllabic>
<text>ら</text>
</lyric>
</note>
<note>
<pitch>
<step>G</step>
<alter>1</alter>
<octave>3</octave>
</pitch>
<duration>1440</duration>
<lyric>
<syllabic>middle</syllabic>
<text>の</text>
</lyric>
</note>
<note>
<pitch>
<step>G</step>
<alter>1</alter>
<octave>3</octave>
</pitch>
<duration>960</duration>
<lyric>
<syllabic>middle</syllabic>
<text>み</text>
</lyric>
</note>
</measure>
<measure number="124">
<note>
<pitch>
<step>G</step>
<octave>3</octave>
</pitch>
<duration>960</duration>
<lyric>
<syllabic>middle</syllabic>
<text>ら</text>
</lyric>
</note>
<note>
<pitch>
<step>G</step>
<octave>3</octave>
</pitch>
<duration>480</duration>
<lyric>
<syllabic>middle</syllabic>
<text>い</text>
</lyric>
</note>
<note>
<pitch>
<step>G</step>
<alter>1</alter>
<octave>3</octave>
</pitch>
<duration>720</duration>
<lyric>
<syllabic>middle</syllabic>
<text>が</text>
</lyric>
</note>
<note>
<rest />
<duration>720</duration>
</note>
<note>
<pitch>
<step>F</step>
<octave>3</octave>
</pitch>
<duration>480</duration>
<lyric>
<syllabic>middle</syllabic>
<text>こ</text>
</lyric>
</note>
<note>
<pitch>
<step>G</step>
<alter>1</alter>
<octave>3</octave>
</pitch>
<duration>480</duration>
<lyric>
<syllabic>middle</syllabic>
<text>こ</text>
</lyric>
</note>
</measure>
<measure number="125">
<note>
<pitch>
<step>D</step>
<alter>1</alter>
<octave>4</octave>
</pitch>
<duration>1440</duration>
<lyric>
<syllabic>middle</syllabic>
<text>か</text>
</lyric>
</note>
<note>
<pitch>
<step>G</step>
<alter>1</alter>
<octave>3</octave>
</pitch>
<duration>1440</duration>
<lyric>
<syllabic>middle</syllabic>
<text>ら</text>
</lyric>
</note>
<note>
<pitch>
<step>G</step>
<alter>1</alter>
<octave>3</octave>
</pitch>
<duration>960</duration>
<lyric>
<syllabic>middle</syllabic>
<text>は</text>
</lyric>
</note>
</measure>
<measure number="126">
<note>
<pitch>
<step>A</step>
<alter>1</alter>
<octave>3</octave>
</pitch>
<duration>960</duration>
<lyric>
<syllabic>middle</syllabic>
<text>じ</text>
</lyric>
</note>
<note>
<pitch>
<step>C</step>
<octave>4</octave>
</pitch>
<duration>480</duration>
<lyric>
<syllabic>middle</syllabic>
<text>ま</text>
</lyric>
</note>
<note>
<pitch>
<step>G</step>
<alter>1</alter>
<octave>3</octave>
</pitch>
<duration>960</duration>
<lyric>
<syllabic>middle</syllabic>
<text>る</text>
</lyric>
</note>
<note>
<rest />
<duration>480</duration>
</note>
<note>
<pitch>
<step>D</step>
<alter>1</alter>
<octave>3</octave>
</pitch>
<duration>480</duration>
<lyric>
<syllabic>middle</syllabic>
<text>お</text>
</lyric>
</note>
<note>
<pitch>
<step>G</step>
<alter>1</alter>
<octave>3</octave>
</pitch>
<duration>480</duration>
<tie type="start" />
<notations>
<tied type="start" />
</notations>
<lyric>
<syllabic>begin</syllabic>
<text>や</text>
</lyric>
</note>
</measure>
<measure number="127">
<note>
<pitch>
<step>G</step>
<alter>1</alter>
<octave>3</octave>
</pitch>
<duration>480</duration>
<tie type="stop" />
<notations>
<tied type="stop" />
</notations>
<lyric>
<syllabic>middle</syllabic>
<text />
</lyric>
</note>
<note>
<pitch>
<step>G</step>
<alter>1</alter>
<octave>3</octave>
</pitch>
<duration>480</duration>
<lyric>
<syllabic>middle</syllabic>
<text>す</text>
</lyric>
</note>
<note>
<pitch>
<step>G</step>
<alter>1</alter>
<octave>3</octave>
</pitch>
<duration>480</duration>
<lyric>
<syllabic>middle</syllabic>
<text>み</text>
</lyric>
</note>
<note>
<pitch>
<step>G</step>
<alter>1</alter>
<octave>3</octave>
</pitch>
<duration>480</duration>
<lyric>
<syllabic>middle</syllabic>
<text>の</text>
</lyric>
</note>
<note>
<pitch>
<step>G</step>
<alter>1</alter>
<octave>3</octave>
</pitch>
<duration>480</duration>
<lyric>
<syllabic>middle</syllabic>
<text>じ</text>
</lyric>
</note>
<note>
<pitch>
<step>G</step>
<alter>1</alter>
<octave>3</octave>
</pitch>
<duration>480</duration>
<lyric>
<syllabic>middle</syllabic>
<text>か</text>
</lyric>
</note>
<note>
<pitch>
<step>G</step>
<alter>1</alter>
<octave>3</octave>
</pitch>
<duration>480</duration>
<lyric>
<syllabic>middle</syllabic>
<text>ん</text>
</lyric>
</note>
<note>
<pitch>
<step>A</step>
<alter>1</alter>
<octave>3</octave>
</pitch>
<duration>480</duration>
<tie type="start" />
<notations>
<tied type="start" />
</notations>
<lyric>
<syllabic>begin</syllabic>
<text>が</text>
</lyric>
</note>
</measure>
<measure number="128">
<note>
<pitch>
<step>A</step>
<alter>1</alter>
<octave>3</octave>
</pitch>
<duration>480</duration>
<tie type="stop" />
<notations>
<tied type="stop" />
</notations>
<lyric>
<syllabic>middle</syllabic>
<text />
</lyric>
</note>
<note>
<pitch>
<step>G</step>
<alter>1</alter>
<octave>3</octave>
</pitch>
<duration>480</duration>
<lyric>
<syllabic>middle</syllabic>
<text>き</text>
</lyric>
</note>
<note>
<pitch>
<step>A</step>
<alter>1</alter>
<octave>3</octave>
</pitch>
<duration>480</duration>
<lyric>
<syllabic>middle</syllabic>
<text>て</text>
</lyric>
</note>
<note>
<pitch>
<step>C</step>
<octave>4</octave>
</pitch>
<duration>480</duration>
<lyric>
<syllabic>middle</syllabic>
<text>も</text>
</lyric>
</note>
<note>
<rest />
<duration>480</duration>
</note>
<note>
<pitch>
<step>G</step>
<alter>1</alter>
<octave>3</octave>
</pitch>
<duration>480</duration>
<lyric>
<syllabic>middle</syllabic>
<text>そ</text>
</lyric>
</note>
<note>
<pitch>
<step>A</step>
<alter>1</alter>
<octave>3</octave>
</pitch>
<duration>480</duration>
<lyric>
<syllabic>middle</syllabic>
<text>ば</text>
</lyric>
</note>
<note>
<pitch>
<step>D</step>
<alter>1</alter>
<octave>4</octave>
</pitch>
<duration>480</duration>
<tie type="start" />
<notations>
<tied type="start" />
</notations>
<lyric>
<syllabic>begin</syllabic>
<text>に</text>
</lyric>
</note>
</measure>
<measure number="129">
<note>
<pitch>
<step>D</step>
<alter>1</alter>
<octave>4</octave>
</pitch>
<duration>480</duration>
<tie type="stop" />
<notations>
<tied type="stop" />
</notations>
<lyric>
<syllabic>middle</syllabic>
<text />
</lyric>
</note>
<note>
<pitch>
<step>G</step>
<alter>1</alter>
<octave>3</octave>
</pitch>
<duration>960</duration>
<lyric>
<syllabic>middle</syllabic>
<text>い</text>
</lyric>
</note>
<note>
<pitch>
<step>G</step>
<alter>1</alter>
<octave>3</octave>
</pitch>
<duration>960</duration>
<lyric>
<syllabic>middle</syllabic>
<text>さ</text>
</lyric>
</note>
<note>
<pitch>
<step>G</step>
<alter>1</alter>
<octave>3</octave>
</pitch>
<duration>480</duration>
<lyric>
<syllabic>middle</syllabic>
<text>せ</text>
</lyric>
</note>
<note>
<pitch>
<step>C</step>
<octave>4</octave>
</pitch>
<duration>480</duration>
<lyric>
<syllabic>middle</syllabic>
<text>て</text>
</lyric>
</note>
<note>
<pitch>
<step>A</step>
<alter>1</alter>
<octave>3</octave>
</pitch>
<duration>480</duration>
<tie type="start" />
<notations>
<tied type="start" />
</notations>
<lyric>
<syllabic>begin</syllabic>
<text>ね</text>
</lyric>
</note>
</measure>
<measure number="130">
<note>
<pitch>
<step>A</step>
<alter>1</alter>
<octave>3</octave>
</pitch>
<duration>960</duration>
<tie type="stop" />
<notations>
<tied type="stop" />
</notations>
<lyric>
<syllabic>middle</syllabic>
<text />
</lyric>
</note>
<note>
<rest />
<duration>1920</duration>
</note>
<note>
<pitch>
<step>F</step>
<octave>3</octave>
</pitch>
<duration>480</duration>
<lyric>
<syllabic>middle</syllabic>
<text>こ</text>
</lyric>
</note>
<note>
<pitch>
<step>G</step>
<alter>1</alter>
<octave>3</octave>
</pitch>
<duration>480</duration>
<lyric>
<syllabic>middle</syllabic>
<text>と</text>
</lyric>
</note>
</measure>
<measure number="131">
<note>
<pitch>
<step>D</step>
<alter>1</alter>
<octave>4</octave>
</pitch>
<duration>1440</duration>
<lyric>
<syllabic>middle</syllabic>
<text>ば</text>
</lyric>
</note>
<note>
<pitch>
<step>G</step>
<alter>1</alter>
<octave>3</octave>
</pitch>
<duration>1440</duration>
<lyric>
<syllabic>middle</syllabic>
<text>じゃ</text>
</lyric>
</note>
<note>
<pitch>
<step>G</step>
<alter>1</alter>
<octave>3</octave>
</pitch>
<duration>960</duration>
<lyric>
<syllabic>middle</syllabic>
<text>う</text>
</lyric>
</note>
</measure>
<measure number="132">
<note>
<pitch>
<step>G</step>
<octave>3</octave>
</pitch>
<duration>1440</duration>
<lyric>
<syllabic>middle</syllabic>
<text>ま</text>
</lyric>
</note>
<note>
<pitch>
<step>G</step>
<alter>1</alter>
<octave>3</octave>
</pitch>
<duration>960</duration>
<lyric>
<syllabic>middle</syllabic>
<text>く</text>
</lyric>
</note>
<note>
<rest />
<duration>480</duration>
</note>
<note>
<pitch>
<step>F</step>
<octave>3</octave>
</pitch>
<duration>960</duration>
<lyric>
<syllabic>middle</syllabic>
<text>い</text>
</lyric>
</note>
</measure>
<measure number="133">
<note>
<pitch>
<step>D</step>
<alter>1</alter>
<octave>4</octave>
</pitch>
<duration>1440</duration>
<lyric>
<syllabic>middle</syllabic>
<text>え</text>
</lyric>
</note>
<note>
<pitch>
<step>G</step>
<alter>1</alter>
<octave>3</octave>
</pitch>
<duration>1440</duration>
<lyric>
<syllabic>middle</syllabic>
<text>な</text>
</lyric>
</note>
<note>
<pitch>
<step>G</step>
<alter>1</alter>
<octave>3</octave>
</pitch>
<duration>960</duration>
<lyric>
<syllabic>middle</syllabic>
<text>い</text>
</lyric>
</note>
</measure>
<measure number="134">
<note>
<pitch>
<step>A</step>
<alter>1</alter>
<octave>3</octave>
</pitch>
<duration>960</duration>
<lyric>
<syllabic>middle</syllabic>
<text>け</text>
</lyric>
</note>
<note>
<pitch>
<step>C</step>
<octave>4</octave>
</pitch>
<duration>480</duration>
<lyric>
<syllabic>middle</syllabic>
<text>れ</text>
</lyric>
</note>
<note>
<pitch>
<step>G</step>
<alter>1</alter>
<octave>3</octave>
</pitch>
<duration>720</duration>
<lyric>
<syllabic>middle</syllabic>
<text>ど</text>
</lyric>
</note>
<note>
<rest />
<duration>720</duration>
</note>
<note>
<pitch>
<step>A</step>
<alter>1</alter>
<octave>2</octave>
</pitch>
<duration>480</duration>
<lyric>
<syllabic>middle</syllabic>
<text>あ</text>
</lyric>
</note>
<note>
<pitch>
<step>C</step>
<alter>1</alter>
<octave>3</octave>
</pitch>
<duration>480</duration>
<tie type="start" />
<notations>
<tied type="start" />
</notations>
<lyric>
<syllabic>begin</syllabic>
<text>りっ</text>
</lyric>
</note>
</measure>
<measure number="135">
<note>
<pitch>
<step>C</step>
<alter>1</alter>
<octave>3</octave>
</pitch>
<duration>480</duration>
<tie type="stop" />
<notations>
<tied type="stop" />
</notations>
<lyric>
<syllabic>end</syllabic>
<text />
</lyric>
</note>
<note>
<pitch>
<step>C</step>
<alter>1</alter>
<octave>3</octave>
</pitch>
<duration>480</duration>
<lyric>
<syllabic>single</syllabic>
<text>た</text>
</lyric>
</note>
<note>
<pitch>
<step>D</step>
<alter>1</alter>
<octave>3</octave>
</pitch>
<duration>480</duration>
<lyric>
<syllabic>single</syllabic>
<text>け</text>
</lyric>
</note>
<note>
<pitch>
<step>D</step>
<alter>1</alter>
<octave>3</octave>
</pitch>
<duration>480</duration>
<lyric>
<syllabic>single</syllabic>
<text>の</text>
</lyric>
</note>
<note>
<pitch>
<step>F</step>
<octave>3</octave>
</pitch>
<duration>480</duration>
<lyric>
<syllabic>single</syllabic>
<text>さ</text>
</lyric>
</note>
<note>
<pitch>
<step>D</step>
<alter>1</alter>
<octave>3</octave>
</pitch>
<duration>480</duration>
<lyric>
<syllabic>single</syllabic>
<text>ん</text>
</lyric>
</note>
<note>
<pitch>
<step>D</step>
<alter>1</alter>
<octave>3</octave>
</pitch>
<duration>480</duration>
<lyric>
<syllabic>single</syllabic>
<text>きゅ</text>
</lyric>
</note>
<note>
<pitch>
<step>F</step>
<octave>3</octave>
</pitch>
<duration>480</duration>
<tie type="start" />
<notations>
<tied type="start" />
</notations>
<lyric>
<syllabic>begin</syllabic>
<text>う</text>
</lyric>
</note>
</measure>
<measure number="136">
<note>
<pitch>
<step>F</step>
<octave>3</octave>
</pitch>
<duration>480</duration>
<tie type="stop" />
<notations>
<tied type="stop" />
</notations>
<lyric>
<syllabic>middle</syllabic>
<text />
</lyric>
</note>
<note>
<pitch>
<step>F</step>
<octave>3</octave>
</pitch>
<duration>480</duration>
<lyric>
<syllabic>middle</syllabic>
<text>つ</text>
</lyric>
</note>
<note>
<pitch>
<step>G</step>
<octave>3</octave>
</pitch>
<duration>480</duration>
<lyric>
<syllabic>middle</syllabic>
<text>め</text>
</lyric>
</note>
<note>
<pitch>
<step>G</step>
<alter>1</alter>
<octave>3</octave>
</pitch>
<duration>480</duration>
<lyric>
<syllabic>middle</syllabic>
<text>こ</text>
</lyric>
</note>
<note>
<pitch>
<step>A</step>
<alter>1</alter>
<octave>3</octave>
</pitch>
<duration>480</duration>
<lyric>
<syllabic>middle</syllabic>
<text>ん</text>
</lyric>
</note>
<note>
<pitch>
<step>G</step>
<alter>1</alter>
<octave>3</octave>
</pitch>
<duration>480</duration>
<lyric>
<syllabic>middle</syllabic>
<text>だ</text>
</lyric>
</note>
<note>
<pitch>
<step>A</step>
<alter>1</alter>
<octave>3</octave>
</pitch>
<duration>480</duration>
<lyric>
<syllabic>middle</syllabic>
<text>こ</text>
</lyric>
</note>
<note>
<pitch>
<step>C</step>
<octave>4</octave>
</pitch>
<duration>480</duration>
<tie type="start" />
<notations>
<tied type="start" />
</notations>
<lyric>
<syllabic>begin</syllabic>
<text>の</text>
</lyric>
</note>
</measure>
<measure number="137">
<note>
<pitch>
<step>C</step>
<octave>4</octave>
</pitch>
<duration>480</duration>
<tie type="stop" />
<notations>
<tied type="stop" />
</notations>
<lyric>
<syllabic>middle</syllabic>
<text />
</lyric>
</note>
<note>
<pitch>
<step>A</step>
<alter>1</alter>
<octave>3</octave>
</pitch>
<duration>480</duration>
<lyric>
<syllabic>middle</syllabic>
<text>う</text>
</lyric>
</note>
<note>
<pitch>
<step>D</step>
<alter>1</alter>
<octave>4</octave>
</pitch>
<duration>1680</duration>
<lyric>
<syllabic>middle</syllabic>
<text>た</text>
</lyric>
</note>
<note>
<rest />
<duration>720</duration>
</note>
<note>
<pitch>
<step>A</step>
<alter>1</alter>
<octave>3</octave>
</pitch>
<duration>480</duration>
<lyric>
<syllabic>middle</syllabic>
<text>き</text>
</lyric>
</note>
</measure>
<measure number="138">
<note>
<pitch>
<step>D</step>
<alter>1</alter>
<octave>4</octave>
</pitch>
<duration>960</duration>
<lyric>
<syllabic>middle</syllabic>
<text>み</text>
</lyric>
</note>
<note>
<pitch>
<step>C</step>
<alter>1</alter>
<octave>4</octave>
</pitch>
<duration>480</duration>
<lyric>
<syllabic>middle</syllabic>
<text>に</text>
</lyric>
</note>
<note>
<pitch>
<step>D</step>
<alter>1</alter>
<octave>4</octave>
</pitch>
<duration>960</duration>
<lyric>
<syllabic>middle</syllabic>
<text>つ</text>
</lyric>
</note>
<note>
<pitch>
<step>G</step>
<alter>1</alter>
<octave>4</octave>
</pitch>
<duration>960</duration>
<lyric>
<syllabic>middle</syllabic>
<text>た</text>
</lyric>
</note>
<note>
<pitch>
<step>F</step>
<octave>4</octave>
</pitch>
<duration>480</duration>
<tie type="start" />
<notations>
<tied type="start" />
</notations>
<lyric>
<syllabic>begin</syllabic>
<text>え</text>
</lyric>
</note>
</measure>
<measure number="139">
<note>
<pitch>
<step>F</step>
<octave>4</octave>
</pitch>
<duration>480</duration>
<tie type="stop" />
<notations>
<tied type="stop" />
</notations>
<lyric>
<syllabic>middle</syllabic>
<text />
</lyric>
</note>
<note>
<pitch>
<step>D</step>
<alter>1</alter>
<octave>4</octave>
</pitch>
<duration>480</duration>
<lyric>
<syllabic>middle</syllabic>
<text>る</text>
</lyric>
</note>
<note>
<pitch>
<step>C</step>
<alter>1</alter>
<octave>4</octave>
</pitch>
<duration>2880</duration>
<tie type="start" />
<notations>
<tied type="start" />
</notations>
<lyric>
<syllabic>begin</syllabic>
<text>よ</text>
</lyric>
</note>
</measure>
<measure number="140">
<note>
<pitch>
<step>C</step>
<alter>1</alter>
<octave>4</octave>
</pitch>
<duration>1440</duration>
<tie type="stop" />
<notations>
<tied type="stop" />
</notations>
<lyric>
<syllabic>middle</syllabic>
<text />
</lyric>
</note>
<note>
<rest />
<duration>2400</duration>
</note>
</measure>
<measure number="141">
<note>
<rest />
<duration>3360</duration>
</note>
<note>
<pitch>
<step>A</step>
<alter>1</alter>
<octave>3</octave>
</pitch>
<duration>480</duration>
<lyric>
<syllabic>single</syllabic>
<text>き</text>
</lyric>
</note>
</measure>
<measure number="142">
<note>
<pitch>
<step>D</step>
<alter>1</alter>
<octave>4</octave>
</pitch>
<duration>960</duration>
<lyric>
<syllabic>single</syllabic>
<text>み</text>
</lyric>
</note>
<note>
<pitch>
<step>C</step>
<alter>1</alter>
<octave>4</octave>
</pitch>
<duration>480</duration>
<lyric>
<syllabic>single</syllabic>
<text>に</text>
</lyric>
</note>
<note>
<pitch>
<step>D</step>
<alter>1</alter>
<octave>4</octave>
</pitch>
<duration>960</duration>
<lyric>
<syllabic>single</syllabic>
<text>と</text>
</lyric>
</note>
<note>
<pitch>
<step>G</step>
<alter>1</alter>
<octave>4</octave>
</pitch>
<duration>960</duration>
<lyric>
<syllabic>single</syllabic>
<text>ど</text>
</lyric>
</note>
<note>
<pitch>
<step>F</step>
<octave>4</octave>
</pitch>
<duration>480</duration>
<tie type="start" />
<notations>
<tied type="start" />
</notations>
<lyric>
<syllabic>begin</syllabic>
<text>け</text>
</lyric>
</note>
</measure>
<measure number="143">
<note>
<pitch>
<step>F</step>
<octave>4</octave>
</pitch>
<duration>480</duration>
<tie type="stop" />
<notations>
<tied type="stop" />
</notations>
<lyric>
<syllabic>middle</syllabic>
<text />
</lyric>
</note>
<note>
<pitch>
<step>D</step>
<alter>1</alter>
<octave>4</octave>
</pitch>
<duration>480</duration>
<lyric>
<syllabic>middle</syllabic>
<text>る</text>
</lyric>
</note>
<note>
<pitch>
<step>C</step>
<alter>1</alter>
<octave>4</octave>
</pitch>
<duration>2880</duration>
<tie type="start" />
<notations>
<tied type="start" />
</notations>
<lyric>
<syllabic>begin</syllabic>
<text>よ</text>
</lyric>
</note>
</measure>
<measure number="144">
<note>
<pitch>
<step>C</step>
<alter>1</alter>
<octave>4</octave>
</pitch>
<duration>1440</duration>
<tie type="stop" />
<notations>
<tied type="stop" />
</notations>
<lyric>
<syllabic>middle</syllabic>
<text />
</lyric>
</note>
<note>
<rest />
<duration>2400</duration>
</note>
</measure>
<measure number="145">
<note>
<rest />
<duration>3840</duration>
</note>
</measure>
</part>
</score-partwise>
